<?xml version="1.0" encoding="UTF-8" standalone="no"?>
<!-- Uploaded to: SVG Repo, www.svgrepo.com, Generator: SVG Repo Mixer Tools -->

<svg
   height="48"
   width="48"
   version="1.1"
   id="Capa_1"
   viewBox="0 0 30.72 30.72"
   xml:space="preserve"
   xmlns="http://www.w3.org/2000/svg"
   xmlns:svg="http://www.w3.org/2000/svg"><defs
   id="defs11" />
<g
   id="g11"
   transform="matrix(0.06,0,0,0.06222222,0,-0.56888864)">
	<g
   id="g1">
		<path
   style="fill:#74d24f"
   d="M 496,112 H 16 c -8.82,0 -16,7.18 -16,16 v 256 c 0,8.82 7.18,16 16,16 h 480 c 8.82,0 16,-7.18 16,-16 V 128 c 0,-8.82 -7.18,-16 -16,-16 z"
   id="path1" />
	</g>
	<g
   id="g2">
		<path
   style="fill:#ffefbc"
   d="m 472,192 c -22.055,0 -40,-17.945 -40,-40 0,-4.422 -3.578,-8 -8,-8 H 88 c -4.422,0 -8,3.578 -8,8 0,22.055 -17.945,40 -40,40 -4.422,0 -8,3.578 -8,8 v 112 c 0,4.422 3.578,8 8,8 22.055,0 40,17.945 40,40 0,4.422 3.578,8 8,8 h 336 c 4.422,0 8,-3.578 8,-8 0,-22.055 17.945,-40 40,-40 4.422,0 8,-3.578 8,-8 V 200 c 0,-4.422 -3.578,-8 -8,-8 z"
   id="path2" />
	</g>
	<g
   id="g3">
		<path
   style="fill:#869b55"
   d="m 128,256 c 0,48.221 26.691,90.175 66.081,112 H 317.92 C 357.309,346.175 384,304.221 384,256 384,207.779 357.309,165.825 317.919,144 H 194.08 C 154.691,165.825 128,207.779 128,256 Z"
   id="path3" />
	</g>
	<g
   id="g4">
		<path
   style="fill:#ffefbc"
   d="m 256,244 c -16.023,0 -28,-8.445 -28,-16 0,-7.555 11.977,-16 28,-16 16.023,0 28,8.445 28,16 0,6.625 5.375,12 12,12 6.625,0 12,-5.375 12,-12 0,-19.236 -16.824,-34.862 -40,-38.932 V 184 c 0,-6.625 -5.375,-12 -12,-12 -6.625,0 -12,5.375 -12,12 v 5.068 c -23.176,4.07 -40,19.695 -40,38.932 0,22.43 22.844,40 52,40 16.023,0 28,8.445 28,16 0,7.555 -11.977,16 -28,16 -16.023,0 -28,-8.445 -28,-16 0,-6.625 -5.375,-12 -12,-12 -6.625,0 -12,5.375 -12,12 0,19.236 16.824,34.862 40,38.932 V 328 c 0,6.625 5.375,12 12,12 6.625,0 12,-5.375 12,-12 v -5.068 c 23.176,-4.07 40,-19.695 40,-38.932 0,-22.43 -22.844,-40 -52,-40 z"
   id="path4" />
	</g>
	<g
   id="g5">
		<circle
   style="fill:#74d24f"
   cx="80"
   cy="256"
   r="24"
   id="circle4" />
	</g>
	<g
   id="g6">
		<circle
   style="fill:#74d24f"
   cx="432"
   cy="256"
   r="24"
   id="circle5" />
	</g>
	<g
   id="g7">
		<circle
   style="fill:#869b55"
   cx="40"
   cy="152"
   r="16"
   id="circle6" />
	</g>
	<g
   id="g8">
		<circle
   style="fill:#869b55"
   cx="472"
   cy="152"
   r="16"
   id="circle7" />
	</g>
	<g
   id="g9">
		<circle
   style="fill:#869b55"
   cx="40"
   cy="360"
   r="16"
   id="circle8" />
	</g>
	<g
   id="g10">
		<circle
   style="fill:#869b55"
   cx="472"
   cy="360"
   r="16"
   id="circle9" />
	</g>
</g>
</svg>
