<?xml version="1.0" encoding="UTF-8" standalone="no"?>
<svg
   version="1.0"
   width="16.000000pt"
   height="16.000000pt"
   viewBox="0 0 16.000000 16.000000"
   preserveAspectRatio="xMidYMid meet"
   id="svg2"
   xmlns:xlink="http://www.w3.org/1999/xlink"
   xmlns="http://www.w3.org/2000/svg"
   xmlns:svg="http://www.w3.org/2000/svg"
   xmlns:osb="http://www.openswatchbook.org/uri/2009/osb">
  <defs
     id="defs2">
    <linearGradient
       id="linearGradient3">
      <stop
         style="stop-color:#6990c0;stop-opacity:1;"
         offset="0"
         id="stop3" />
    </linearGradient>
    <linearGradient
       id="linearGradient2">
      <stop
         style="stop-color:#6990c0;stop-opacity:1;"
         offset="0"
         id="stop2" />
    </linearGradient>
    <linearGradient
       id="Main">
      <stop
         style="stop-color:#000000;stop-opacity:1;"
         offset="0"
         id="stop2082" />
    </linearGradient>
    <linearGradient
       id="Red">
      <stop
         style="stop-color:#ff664d;stop-opacity:1;"
         offset="0"
         id="stop2533" />
    </linearGradient>
    <mask
       maskUnits="userSpaceOnUse"
       id="mask-powermask-path-effect3119">
      <path
         id="path3117"
         style="opacity:1;fill:#000000;stroke:none;stroke-width:0.264583px;stroke-linecap:butt;stroke-linejoin:miter;stroke-opacity:1"
         d="m 10.250537,66.995394 -0.0047,0.0047 c -0.02767,-0.0066 -0.211799,-0.04039 -0.4563028,0.204116 C 9.6572915,67.468749 9.6572915,67.468749 9.5249999,67.49562 9.3927082,67.468749 9.3927082,67.468749 9.2604165,67.204166 9.061979,67.005731 8.8982935,66.990872 8.8289184,66.99591 c -0.023124,0.0016 -0.035657,0.0057 -0.035657,0.0057 0,0 -0.062009,0.20257 0.2025716,0.467154 0.2645833,0.132291 0.2645841,0.132291 0.291455,0.264583 -0.026871,0.132292 -0.026872,0.132292 -0.291455,0.264583 -0.2445017,0.244505 -0.2107512,0.428639 -0.2041218,0.456304 l -0.00465,0.0047 c 0,0 0.00465,2.65e-4 0.00517,5.29e-4 1.736e-4,5.3e-4 0.00103,0.0057 0.00103,0.0057 l 0.00465,-0.0047 c 0.027721,0.0066 0.2118445,0.04033 0.4563028,-0.204123 0.1322919,-0.264584 0.1322919,-0.264584 0.2645833,-0.291455 0.1322919,0.02687 0.1322917,0.02687 0.2645833,0.291455 0.1984378,0.198435 0.3621234,0.213294 0.4314984,0.208256 0.02312,-0.0016 0.03566,-0.0057 0.03566,-0.0057 0,0 0.06201,-0.20257 -0.202572,-0.467156 -0.2645836,-0.132289 -0.2645839,-0.132291 -0.291455,-0.264583 0.026871,-0.132279 0.026873,-0.132292 0.291455,-0.264583 0.244502,-0.244505 0.210752,-0.428639 0.204122,-0.456304 l 0.0047,-0.0047 c 0,0 -0.0046,-7.94e-4 -0.0052,-0.0011 -1.47e-4,-5.29e-4 -10e-4,-0.0052 -10e-4,-0.0052 z" />
    </mask>
    <linearGradient
       id="Main-6">
      <stop
         style="stop-color:#4d4d4d;stop-opacity:1;"
         offset="0"
         id="stop2082-3" />
    </linearGradient>
    <linearGradient
       id="Green"
       gradientTransform="scale(3.7795276)">
      <stop
         style="stop-color:#66ff7a;stop-opacity:1;"
         offset="0"
         id="stop2506" />
    </linearGradient>
    <mask
       maskUnits="userSpaceOnUse"
       id="mask-powermask-path-effect1741">
      <path
         id="path1739"
         style="font-variation-settings:normal;opacity:1;vector-effect:none;fill:#000000;fill-opacity:0.992157;stroke:none;stroke-width:0.264583;stroke-linecap:butt;stroke-linejoin:miter;stroke-miterlimit:4;stroke-dasharray:none;stroke-dashoffset:0;stroke-opacity:1;marker:none;paint-order:fill markers stroke;stop-color:#000000;stop-opacity:1"
         d="m 20.095414,60.589583 a 0.52916663,0.52916663 0 0 0 -0.516248,0.529166 0.52916663,0.52916663 0 0 0 0.529167,0.529167 0.52916663,0.52916663 0 0 0 0.529167,-0.529167 0.52916663,0.52916663 0 0 0 -0.529167,-0.529166 0.52916663,0.52916663 0 0 0 -0.01292,0 z m -1.058333,2.116666 A 0.52916663,0.52916663 0 0 0 18.520833,63.235416 0.52916663,0.52916663 0 0 0 19.05,63.764583 0.52916663,0.52916663 0 0 0 19.579166,63.235416 0.52916663,0.52916663 0 0 0 19.05,62.706249 a 0.52916663,0.52916663 0 0 0 -0.01292,0 z m 2.116666,0 a 0.52916663,0.52916663 0 0 0 -0.516247,0.529167 0.52916663,0.52916663 0 0 0 0.529166,0.529167 0.52916663,0.52916663 0 0 0 0.529167,-0.529167 0.52916663,0.52916663 0 0 0 -0.529167,-0.529167 0.52916663,0.52916663 0 0 0 -0.01292,0 z" />
    </mask>
    <mask
       maskUnits="userSpaceOnUse"
       id="mask-powermask-path-effect1389">
      <path
         id="path1387"
         style="font-variation-settings:normal;opacity:1;vector-effect:none;fill:#000000;fill-opacity:0.992157;stroke:none;stroke-width:0.264583;stroke-linecap:butt;stroke-linejoin:miter;stroke-miterlimit:4;stroke-dasharray:none;stroke-dashoffset:0;stroke-opacity:1;stop-color:#000000;stop-opacity:1"
         transform="matrix(3.7795275,0,0,3.7795275,-6.9999997,-6.9999997)" />
    </mask>
    <linearGradient
       id="Blue"
       gradientTransform="matrix(0.26458333,0,0,0.26458333,-13.80713,103.48169)">
      <stop
         style="stop-color:#55c3ff;stop-opacity:1;"
         offset="0"
         id="stop2484" />
    </linearGradient>
    <linearGradient
       id="Main-3"
       osb:paint="solid">
      <stop
         style="stop-color:#4d4d4d;stop-opacity:1;"
         offset="0"
         id="stop2082-8" />
    </linearGradient>
    <linearGradient
       xlink:href="#Main-3"
       id="linearGradient2146"
       x1="61.899818"
       y1="249"
       x2="76.100182"
       y2="249"
       gradientUnits="userSpaceOnUse" />
    <linearGradient
       id="Main-61">
      <stop
         style="stop-color:#4d4d4d;stop-opacity:1;"
         offset="0"
         id="stop2082-1" />
    </linearGradient>
    <linearGradient
       xlink:href="#Main-6"
       id="linearGradient2098"
       x1="52.082603"
       y1="61.780205"
       x2="53.181248"
       y2="61.780205"
       gradientUnits="userSpaceOnUse"
       gradientTransform="matrix(3.7795278,0,0,3.7795278,-189.44141,-219.41797)" />
    <linearGradient
       xlink:href="#Main-6"
       id="linearGradient2096"
       x1="50.281166"
       y1="62.838539"
       x2="52.926998"
       y2="62.838539"
       gradientUnits="userSpaceOnUse" />
    <linearGradient
       xlink:href="#Main-6"
       id="linearGradient2098-8"
       x1="52.082603"
       y1="61.780205"
       x2="53.181248"
       y2="61.780205"
       gradientUnits="userSpaceOnUse" />
    <linearGradient
       xlink:href="#linearGradient2"
       id="linearGradient2096-5"
       x1="50.286324"
       y1="62.972603"
       x2="52.024643"
       y2="62.967445"
       gradientUnits="userSpaceOnUse"
       gradientTransform="translate(-0.27492098,-0.52917219)" />
    <linearGradient
       xlink:href="#linearGradient3"
       id="linearGradient2098-4"
       x1="52.082603"
       y1="61.780205"
       x2="53.181248"
       y2="61.780205"
       gradientUnits="userSpaceOnUse"
       gradientTransform="translate(-1.3228271,-0.79375592)" />
    <linearGradient
       xlink:href="#Main-6"
       id="linearGradient2092"
       x1="45.243748"
       y1="62.838539"
       x2="47.88958"
       y2="62.838539"
       gradientUnits="userSpaceOnUse"
       gradientTransform="translate(-0.26458362)" />
    <linearGradient
       xlink:href="#Main-6"
       id="linearGradient2094"
       x1="44.989498"
       y1="61.780205"
       x2="46.088139"
       y2="61.780205"
       gradientUnits="userSpaceOnUse"
       gradientTransform="translate(0.79373763)" />
    <linearGradient
       xlink:href="#Main-6"
       id="linearGradient2098-4-0"
       x1="52.082603"
       y1="61.780205"
       x2="53.181248"
       y2="61.780205"
       gradientUnits="userSpaceOnUse"
       gradientTransform="translate(-1.3228271,-0.79375592)" />
    <linearGradient
       xlink:href="#Main-6"
       id="linearGradient2096-5-4"
       x1="50.286324"
       y1="62.972603"
       x2="52.024643"
       y2="62.967445"
       gradientUnits="userSpaceOnUse"
       gradientTransform="translate(-0.27492098,-0.52917219)" />
  </defs>
  <g
     id="view-refresh"
     transform="matrix(0,3.779101,-3.7009417,0,239.09292,-187.97786)"
     style="display:inline;fill:#6990e2;fill-opacity:1">
    <path
       d="m 50.270649,61.097671 v 2.728844 l -0.165515,-0.295618 c -0.200301,-0.215272 -0.487064,0.07114 -0.294515,0.303831 l 0.496163,0.701273 c 0.08277,0.08969 0.349994,0.08969 0.432762,0 l 0.502632,-0.682198 c 0.08345,-0.08895 0.08345,-0.233953 0,-0.322906 -0.08277,-0.08969 -0.217568,-0.08969 -0.300336,0 l -0.141964,0.295618 v -2.728788 c -0.0035,-0.195933 0.01021,-0.357832 0.192519,-0.361564 h 0.257917 c 0.281511,-6.47e-4 0.281511,-0.45415 0,-0.454797 h -0.522618 c -0.416012,0.0038 -0.460565,0.369203 -0.457045,0.816305 z m 2.205154,-0.06817 c -0.200301,0.215272 0.100035,0.538178 0.300336,0.322906 l 0.140712,-0.295615 v 2.728844 c 0.0035,0.195934 -0.0091,0.357776 -0.191449,0.361508 h -0.522618 c -0.281511,6.47e-4 -0.281511,0.45415 0,0.454797 h 0.522618 c 0.416013,-0.0038 0.724196,-0.369259 0.720675,-0.816363 v -2.728786 l 0.166901,0.295615 c 0.08277,0.08969 0.217568,0.08969 0.300336,0 0.08345,-0.08895 0.08345,-0.233953 0,-0.322906 l -0.50243,-0.682195 c -0.08277,-0.08968 -0.349876,-0.08968 -0.432643,0 z"
       id="path1"
       style="overflow:hidden;fill:#6890e2;fill-opacity:1;stroke-width:0.00514101" />
  </g>
</svg>
