<?xml version="1.0" encoding="UTF-8" standalone="no"?>
<!-- Created with Inkscape (http://www.inkscape.org/) -->

<svg
   xmlns:dc="http://purl.org/dc/elements/1.1/"
   xmlns:cc="http://creativecommons.org/ns#"
   xmlns:rdf="http://www.w3.org/1999/02/22-rdf-syntax-ns#"
   xmlns:svg="http://www.w3.org/2000/svg"
   xmlns="http://www.w3.org/2000/svg"
   xmlns:xlink="http://www.w3.org/1999/xlink"
   xmlns:sodipodi="http://sodipodi.sourceforge.net/DTD/sodipodi-0.dtd"
   xmlns:inkscape="http://www.inkscape.org/namespaces/inkscape"
   width="48"
   height="48"
   id="svg2"
   version="1.1"
   inkscape:version="0.48.4 r9939"
   sodipodi:docname="activator.svg">
  <sodipodi:namedview
     id="base"
     pagecolor="#ffffff"
     bordercolor="#666666"
     borderopacity="1.0"
     inkscape:pageopacity="0.0"
     inkscape:pageshadow="2"
     inkscape:zoom="5.6568542"
     inkscape:cx="5.7818736"
     inkscape:cy="23.778975"
     inkscape:document-units="px"
     inkscape:current-layer="g3891"
     showgrid="false"
     showguides="true"
     inkscape:guide-bbox="true"
     inkscape:window-width="1280"
     inkscape:window-height="994"
     inkscape:window-x="0"
     inkscape:window-y="30"
     inkscape:window-maximized="1"
     inkscape:snap-page="true"
     inkscape:snap-bbox="true"
     inkscape:bbox-paths="true"
     inkscape:bbox-nodes="true"
     inkscape:snap-bbox-edge-midpoints="true"
     inkscape:snap-bbox-midpoints="true"
     inkscape:object-paths="true"
     inkscape:snap-intersection-paths="false"
     inkscape:object-nodes="true"
     inkscape:snap-global="true"
     inkscape:snap-smooth-nodes="true"
     inkscape:snap-grids="false"
     inkscape:snap-nodes="true" />
  <defs
     id="defs4">
    <linearGradient
       id="linearGradient3902"
       inkscape:collect="always">
      <stop
         id="stop3904"
         offset="0"
         style="stop-color:#000000;stop-opacity:1;" />
      <stop
         id="stop3906"
         offset="1"
         style="stop-color:#000000;stop-opacity:0;" />
    </linearGradient>
    <linearGradient
       id="linearGradient3886"
       inkscape:collect="always">
      <stop
         id="stop3888"
         offset="0"
         style="stop-color:#fff226;stop-opacity:1;" />
      <stop
         id="stop3890"
         offset="1"
         style="stop-color:#fff226;stop-opacity:0;" />
    </linearGradient>
    <linearGradient
       id="linearGradient9248">
      <stop
         id="stop9250"
         offset="0"
         style="stop-color:#ffffff;stop-opacity:1;" />
      <stop
         id="stop9252"
         offset="1"
         style="stop-color:#b4b4b4;stop-opacity:1;" />
    </linearGradient>
    <linearGradient
       id="linearGradient8521">
      <stop
         id="stop8523"
         offset="0"
         style="stop-color:#00105d;stop-opacity:1;" />
      <stop
         id="stop8525"
         offset="1"
         style="stop-color:#00105d;stop-opacity:0;" />
    </linearGradient>
    <linearGradient
       id="linearGradient7487">
      <stop
         style="stop-color:#000e50;stop-opacity:1;"
         offset="0"
         id="stop7489" />
      <stop
         style="stop-color:#000000;stop-opacity:1;"
         offset="1"
         id="stop7491" />
    </linearGradient>
    <linearGradient
       id="linearGradient6034">
      <stop
         style="stop-color:#ffffff;stop-opacity:1;"
         offset="0"
         id="stop6036" />
      <stop
         style="stop-color:#b3bbad;stop-opacity:1;"
         offset="1"
         id="stop6038" />
    </linearGradient>
    <linearGradient
       id="linearGradient6815">
      <stop
         id="stop6817"
         offset="0"
         style="stop-color:#000000;stop-opacity:1;" />
      <stop
         style="stop-color:#3c3c3c;stop-opacity:0.58823532;"
         offset="0.40229002"
         id="stop6825" />
      <stop
         id="stop6819"
         offset="1"
         style="stop-color:#3c3c3c;stop-opacity:0;" />
    </linearGradient>
    <linearGradient
       id="linearGradient4022">
      <stop
         id="stop4024"
         offset="0"
         style="stop-color:#204a87;stop-opacity:1;" />
      <stop
         id="stop4026"
         offset="1"
         style="stop-color:#729fcf;stop-opacity:1;" />
    </linearGradient>
    <linearGradient
       id="linearGradient3723">
      <stop
         id="stop3725"
         offset="0"
         style="stop-color:#ffffff;stop-opacity:0.78431374;" />
      <stop
         id="stop3727"
         offset="1"
         style="stop-color:#ffffff;stop-opacity:0;" />
    </linearGradient>
    <linearGradient
       id="linearGradient3715">
      <stop
         id="stop3717"
         offset="0"
         style="stop-color:#99bbd4;stop-opacity:1;" />
      <stop
         id="stop3719"
         offset="1"
         style="stop-color:#5d93ba;stop-opacity:1;" />
    </linearGradient>
    <linearGradient
       id="linearGradient3707">
      <stop
         id="stop3709"
         offset="0"
         style="stop-color:#a6c4d9;stop-opacity:0.78431374;" />
      <stop
         id="stop3711"
         offset="1"
         style="stop-color:#75a3c3;stop-opacity:1;" />
    </linearGradient>
    <inkscape:perspective
       id="perspective10"
       inkscape:persp3d-origin="372.04724 : 350.78739 : 1"
       inkscape:vp_z="744.09448 : 526.18109 : 1"
       inkscape:vp_y="0 : 1000 : 0"
       inkscape:vp_x="0 : 526.18109 : 1"
       sodipodi:type="inkscape:persp3d" />
    <inkscape:perspective
       sodipodi:type="inkscape:persp3d"
       inkscape:vp_x="0 : 0.5 : 1"
       inkscape:vp_y="0 : 1000 : 0"
       inkscape:vp_z="1 : 0.5 : 1"
       inkscape:persp3d-origin="0.5 : 0.33333333 : 1"
       id="perspective2920" />
    <linearGradient
       gradientTransform="translate(0.2341189,5.74082)"
       gradientUnits="userSpaceOnUse"
       y2="1029.8864"
       x2="63.765881"
       y1="949.3266"
       x1="63.765881"
       id="linearGradient3713"
       xlink:href="#linearGradient3707"
       inkscape:collect="always" />
    <linearGradient
       gradientTransform="translate(0.2341196,6.0908086)"
       gradientUnits="userSpaceOnUse"
       y2="983.41931"
       x2="63.765881"
       y1="936.95227"
       x1="63.765881"
       id="linearGradient3721"
       xlink:href="#linearGradient3715"
       inkscape:collect="always" />
    <linearGradient
       gradientTransform="translate(0.2341189,5.74082)"
       gradientUnits="userSpaceOnUse"
       y2="1030.7611"
       x2="37.375645"
       y1="948.8266"
       x1="37.375645"
       id="linearGradient3729"
       xlink:href="#linearGradient3723"
       inkscape:collect="always" />
    <linearGradient
       y2="983.41931"
       x2="63.765881"
       y1="936.95227"
       x1="63.765881"
       gradientTransform="translate(0.2341196,6.0908086)"
       gradientUnits="userSpaceOnUse"
       id="linearGradient3735"
       xlink:href="#linearGradient3715"
       inkscape:collect="always" />
    <linearGradient
       y2="1029.8864"
       x2="63.765881"
       y1="949.3266"
       x1="63.765881"
       gradientTransform="translate(0.2341189,5.74082)"
       gradientUnits="userSpaceOnUse"
       id="linearGradient3737"
       xlink:href="#linearGradient3707"
       inkscape:collect="always" />
    <linearGradient
       y2="1030.7611"
       x2="37.375645"
       y1="948.8266"
       x1="37.375645"
       gradientTransform="translate(0.2341189,5.74082)"
       gradientUnits="userSpaceOnUse"
       id="linearGradient3739"
       xlink:href="#linearGradient3723"
       inkscape:collect="always" />
    <linearGradient
       y2="1029.8864"
       x2="63.765881"
       y1="949.3266"
       x1="63.765881"
       gradientTransform="matrix(1.0066488,0,0,1.0066488,0.21965498,-1.1089658)"
       gradientUnits="userSpaceOnUse"
       id="linearGradient3742"
       xlink:href="#linearGradient3707"
       inkscape:collect="always" />
    <linearGradient
       y2="1030.7611"
       x2="37.375645"
       y1="948.8266"
       x1="37.375645"
       gradientTransform="matrix(1.0066488,0,0,1.0066488,0.21965498,-1.1089658)"
       gradientUnits="userSpaceOnUse"
       id="linearGradient3744"
       xlink:href="#linearGradient3723"
       inkscape:collect="always" />
    <linearGradient
       y2="983.41931"
       x2="63.765881"
       y1="936.95227"
       x1="63.765881"
       gradientTransform="matrix(1.0066488,0,0,1.0066488,0.21965567,-0.75665045)"
       gradientUnits="userSpaceOnUse"
       id="linearGradient3747"
       xlink:href="#linearGradient3715"
       inkscape:collect="always" />
    <linearGradient
       y2="983.41931"
       x2="63.765881"
       y1="936.95227"
       x1="63.765881"
       gradientTransform="matrix(1.0066488,0,0,1.0066488,0.21965567,-0.75665045)"
       gradientUnits="userSpaceOnUse"
       id="linearGradient3753"
       xlink:href="#linearGradient3715"
       inkscape:collect="always" />
    <linearGradient
       y2="1029.8864"
       x2="63.765881"
       y1="949.3266"
       x1="63.765881"
       gradientTransform="matrix(1.0066488,0,0,1.0066488,0.21965498,-1.1089658)"
       gradientUnits="userSpaceOnUse"
       id="linearGradient3755"
       xlink:href="#linearGradient3707"
       inkscape:collect="always" />
    <linearGradient
       y2="1030.7611"
       x2="37.375645"
       y1="948.8266"
       x1="37.375645"
       gradientTransform="matrix(1.0066488,0,0,1.0066488,0.21965498,-1.1089658)"
       gradientUnits="userSpaceOnUse"
       id="linearGradient3757"
       xlink:href="#linearGradient3723"
       inkscape:collect="always" />
    <linearGradient
       gradientTransform="matrix(0.91716429,0,0,0.91716429,2.2512556,85.18512)"
       gradientUnits="userSpaceOnUse"
       y2="1008.9376"
       x2="47.902649"
       y1="1048.3364"
       x1="14.991861"
       id="linearGradient4028"
       xlink:href="#linearGradient4022"
       inkscape:collect="always" />
    <linearGradient
       inkscape:collect="always"
       xlink:href="#linearGradient3818"
       id="linearGradient5433"
       x1="-14.939182"
       y1="166.73387"
       x2="-15.495684"
       y2="164.65698"
       gradientUnits="userSpaceOnUse"
       gradientTransform="matrix(0.71906912,0,0,0.71906912,35.096859,924.87424)" />
    <linearGradient
       id="linearGradient3818">
      <stop
         style="stop-color:#1e1e1e;stop-opacity:1;"
         offset="0"
         id="stop3820" />
      <stop
         style="stop-color:#000000;stop-opacity:0;"
         offset="1"
         id="stop3822" />
    </linearGradient>
    <linearGradient
       id="linearGradient3715-2">
      <stop
         style="stop-color:#ffffff;stop-opacity:1;"
         offset="0"
         id="stop3717-4" />
      <stop
         style="stop-color:#b3bbad;stop-opacity:1;"
         offset="1"
         id="stop3719-9" />
    </linearGradient>
    <linearGradient
       id="linearGradient5299">
      <stop
         style="stop-color:#000e50;stop-opacity:1;"
         offset="0"
         id="stop5301" />
      <stop
         style="stop-color:#000000;stop-opacity:1;"
         offset="1"
         id="stop5303" />
    </linearGradient>
    <radialGradient
       r="29.000444"
       fy="119.59179"
       fx="-172.875"
       cy="119.59179"
       cx="-172.875"
       gradientTransform="matrix(1.0541003,0.65674043,-0.42405323,0.68062603,240.54684,45.0811)"
       gradientUnits="userSpaceOnUse"
       id="radialGradient6812"
       xlink:href="#linearGradient3715-2"
       inkscape:collect="always" />
    <linearGradient
       y2="965.56183"
       x2="63.765881"
       y1="941.44623"
       x1="63.765881"
       gradientTransform="matrix(0.37749331,0,0,0.37749331,-0.0711918,657.55701)"
       gradientUnits="userSpaceOnUse"
       id="linearGradient2843"
       xlink:href="#linearGradient3715-6"
       inkscape:collect="always" />
    <linearGradient
       id="linearGradient3715-6">
      <stop
         id="stop3717-6"
         offset="0"
         style="stop-color:#99bbd4;stop-opacity:1;" />
      <stop
         id="stop3719-4"
         offset="1"
         style="stop-color:#5d93ba;stop-opacity:1;" />
    </linearGradient>
    <linearGradient
       inkscape:collect="always"
       xlink:href="#linearGradient3715-6"
       id="linearGradient3184"
       gradientUnits="userSpaceOnUse"
       gradientTransform="matrix(-0.37749331,0,0,0.37749331,4.1838142,536.26868)"
       x1="63.765881"
       y1="941.44623"
       x2="63.765881"
       y2="965.56183" />
    <linearGradient
       inkscape:collect="always"
       xlink:href="#linearGradient3715-6"
       id="linearGradient3321"
       gradientUnits="userSpaceOnUse"
       gradientTransform="matrix(-0.28231332,0,0,0.28231332,64.982195,664.15172)"
       x1="63.765881"
       y1="941.44623"
       x2="63.765881"
       y2="965.56183" />
    <linearGradient
       id="linearGradient6815-6">
      <stop
         id="stop6817-4"
         offset="0"
         style="stop-color:#000000;stop-opacity:1;" />
      <stop
         style="stop-color:#3c3c3c;stop-opacity:0.58823532;"
         offset="0.40229002"
         id="stop6825-9" />
      <stop
         id="stop6819-5"
         offset="1"
         style="stop-color:#3c3c3c;stop-opacity:0;" />
    </linearGradient>
    <linearGradient
       id="linearGradient3715-2-4">
      <stop
         style="stop-color:#ffffff;stop-opacity:1;"
         offset="0"
         id="stop3717-4-8" />
      <stop
         style="stop-color:#b3bbad;stop-opacity:1;"
         offset="1"
         id="stop3719-9-7" />
    </linearGradient>
    <radialGradient
       r="28.421875"
       fy="116.19179"
       fx="-182.4375"
       cy="116.19179"
       cx="-182.4375"
       gradientTransform="matrix(0.30667246,1.5835715,-1.396495,0.27044345,218.94267,1272.3725)"
       gradientUnits="userSpaceOnUse"
       id="radialGradient5641-1"
       xlink:href="#linearGradient5299-7"
       inkscape:collect="always" />
    <linearGradient
       id="linearGradient5299-7">
      <stop
         style="stop-color:#000e50;stop-opacity:1;"
         offset="0"
         id="stop5301-2" />
      <stop
         style="stop-color:#000000;stop-opacity:1;"
         offset="1"
         id="stop5303-7" />
    </linearGradient>
    <linearGradient
       y2="350.56357"
       x2="518.24652"
       y1="536.11566"
       x1="553.62225"
       gradientTransform="translate(-26.263966,56.568543)"
       gradientUnits="userSpaceOnUse"
       id="linearGradient4078-954"
       xlink:href="#linearGradient3955-87-471"
       inkscape:collect="always" />
    <linearGradient
       inkscape:collect="always"
       id="linearGradient3955-87-471">
      <stop
         style="stop-color:#436123;stop-opacity:1"
         offset="0"
         id="stop4122" />
      <stop
         id="stop4124"
         offset="0.04243463"
         style="stop-color:#74984d;stop-opacity:1;" />
      <stop
         style="stop-color:#74984d;stop-opacity:1"
         offset="1"
         id="stop4126" />
    </linearGradient>
    <pattern
       patternUnits="userSpaceOnUse"
       width="2"
       height="1"
       patternTransform="matrix(0,4.4721359,-4.4721359,0,-50.004131,-3.0322266e-6)"
       id="Strips1_1"
       inkscape:stockid="Stripes 1:1">
      <rect
         style="fill:black;stroke:none"
         x="0"
         y="-0.5"
         width="1"
         height="2"
         id="rect3917" />
    </pattern>
    <linearGradient
       inkscape:collect="always"
       xlink:href="#linearGradient6034"
       id="linearGradient6042"
       gradientUnits="userSpaceOnUse"
       x1="-2256.6802"
       y1="1067.036"
       x2="37.487514"
       y2="2532.4438"
       gradientTransform="translate(-5.8907179,205.15612)" />
    <linearGradient
       y2="2444.7776"
       x2="-2151.6707"
       y1="2903.8035"
       x1="-2148.2864"
       gradientUnits="userSpaceOnUse"
       id="linearGradient8509"
       xlink:href="#linearGradient7487"
       inkscape:collect="always"
       gradientTransform="translate(-5.8907179,205.15612)" />
    <linearGradient
       gradientUnits="userSpaceOnUse"
       y2="3353.4497"
       x2="-1962.6486"
       y1="2540.8635"
       x1="-1962.6486"
       id="linearGradient8527"
       xlink:href="#linearGradient7487"
       inkscape:collect="always" />
    <linearGradient
       spreadMethod="reflect"
       gradientUnits="userSpaceOnUse"
       y2="2914.2673"
       x2="-115.04873"
       y1="2899.3862"
       x1="-115.04873"
       id="linearGradient9254"
       xlink:href="#linearGradient9248"
       inkscape:collect="always"
       gradientTransform="translate(-5.8907179,205.15612)" />
    <radialGradient
       gradientUnits="userSpaceOnUse"
       gradientTransform="matrix(1,0,0,0.60717495,0,6.6355278)"
       r="3.1054714"
       fy="16.891813"
       fx="29.111721"
       cy="16.891813"
       cx="29.111721"
       id="radialGradient3892"
       xlink:href="#linearGradient3886"
       inkscape:collect="always" />
    <radialGradient
       gradientUnits="userSpaceOnUse"
       gradientTransform="matrix(2.1494315,0.36121083,-0.30519899,1.8161266,2.9871553,-34.404392)"
       r="15.46875"
       fy="32.971859"
       fx="13.599908"
       cy="32.971859"
       cx="13.599908"
       id="radialGradient3908"
       xlink:href="#linearGradient3902"
       inkscape:collect="always" />
    <inkscape:path-effect
       fuse_tolerance="0"
       vertical_pattern="false"
       prop_units="false"
       tang_offset="0"
       normal_offset="0"
       spacing="0"
       scale_y_rel="false"
       prop_scale="1"
       copytype="single_stretched"
       pattern="m 1273.479,-26681.071 0,10 10,-5 z"
       is_visible="true"
       id="path-effect4754"
       effect="skeletal" />
    <inkscape:path-effect
       effect="skeletal"
       id="path-effect4760"
       is_visible="true"
       pattern="m 1315.479,-26621.071 0,10 10,-5 z"
       copytype="single_stretched"
       prop_scale="1"
       scale_y_rel="false"
       spacing="0"
       normal_offset="0"
       tang_offset="0"
       prop_units="false"
       vertical_pattern="false"
       fuse_tolerance="0" />
    <inkscape:path-effect
       effect="skeletal"
       id="path-effect2991"
       is_visible="true"
       pattern="m 595.66194,-26736.611 0,10 10,-5 z"
       copytype="single_stretched"
       prop_scale="1"
       scale_y_rel="false"
       spacing="0"
       normal_offset="0"
       tang_offset="0"
       prop_units="false"
       vertical_pattern="false"
       fuse_tolerance="0" />
    <linearGradient
       inkscape:collect="always"
       xlink:href="#linearGradient3942"
       id="linearGradient3948"
       x1="74.006111"
       y1="153.75172"
       x2="344.5"
       y2="330.63455"
       gradientUnits="userSpaceOnUse"
       gradientTransform="translate(-183.1468,-158.28118)" />
    <linearGradient
       id="linearGradient3942">
      <stop
         style="stop-color:#ffffff;stop-opacity:1;"
         offset="0"
         id="stop3944" />
      <stop
         style="stop-color:#343a30;stop-opacity:0;"
         offset="1"
         id="stop3946" />
    </linearGradient>
    <radialGradient
       inkscape:collect="always"
       xlink:href="#linearGradient3880"
       id="radialGradient4008"
       gradientUnits="userSpaceOnUse"
       gradientTransform="matrix(1,0,0,1.0000234,0,-0.00345228)"
       cx="237.35278"
       cy="147.22479"
       fx="237.35278"
       fy="147.22479"
       r="107.16857" />
    <linearGradient
       id="linearGradient3880">
      <stop
         style="stop-color:#b3bbad;stop-opacity:1;"
         offset="0"
         id="stop3882" />
      <stop
         style="stop-color:#d6dbd3;stop-opacity:1;"
         offset="1"
         id="stop3884" />
    </linearGradient>
    <radialGradient
       inkscape:collect="always"
       xlink:href="#linearGradient3846"
       id="radialGradient4010"
       gradientUnits="userSpaceOnUse"
       gradientTransform="matrix(0.43641683,0,0,0.43645606,205.85223,33.676924)"
       cx="72.191498"
       cy="260.15875"
       fx="72.191498"
       fy="260.15875"
       r="149.18433" />
    <linearGradient
       id="linearGradient3846">
      <stop
         style="stop-color:#222620;stop-opacity:1;"
         offset="0"
         id="stop3848" />
      <stop
         style="stop-color:#9da795;stop-opacity:1;"
         offset="1"
         id="stop3850" />
    </linearGradient>
    <radialGradient
       inkscape:collect="always"
       xlink:href="#linearGradient3880"
       id="radialGradient4012"
       gradientUnits="userSpaceOnUse"
       gradientTransform="matrix(1,0,0,1.0000234,0,-0.00611206)"
       cx="83.637177"
       cy="260.86032"
       fx="83.637177"
       fy="260.86032"
       r="107.16857" />
    <linearGradient
       id="linearGradient3892">
      <stop
         style="stop-color:#b3bbad;stop-opacity:1;"
         offset="0"
         id="stop3894" />
      <stop
         style="stop-color:#d6dbd3;stop-opacity:1;"
         offset="1"
         id="stop3896" />
    </linearGradient>
    <radialGradient
       inkscape:collect="always"
       xlink:href="#linearGradient3846"
       id="radialGradient4014"
       gradientUnits="userSpaceOnUse"
       gradientTransform="matrix(0.43641683,0,0,0.43645606,52.136611,147.31246)"
       cx="72.191498"
       cy="260.15875"
       fx="72.191498"
       fy="260.15875"
       r="149.18433" />
    <linearGradient
       id="linearGradient3899">
      <stop
         style="stop-color:#222620;stop-opacity:1;"
         offset="0"
         id="stop3901" />
      <stop
         style="stop-color:#9da795;stop-opacity:1;"
         offset="1"
         id="stop3903" />
    </linearGradient>
    <radialGradient
       inkscape:collect="always"
       xlink:href="#linearGradient3880"
       id="radialGradient4016"
       gradientUnits="userSpaceOnUse"
       gradientTransform="matrix(1,0,0,1.0000234,0,-0.00345228)"
       cx="237.35278"
       cy="147.22479"
       fx="237.35278"
       fy="147.22479"
       r="107.16857" />
    <linearGradient
       id="linearGradient3906">
      <stop
         style="stop-color:#b3bbad;stop-opacity:1;"
         offset="0"
         id="stop3908" />
      <stop
         style="stop-color:#d6dbd3;stop-opacity:1;"
         offset="1"
         id="stop3910" />
    </linearGradient>
    <radialGradient
       inkscape:collect="always"
       xlink:href="#linearGradient3846"
       id="radialGradient4018"
       gradientUnits="userSpaceOnUse"
       gradientTransform="matrix(0.43641683,0,0,0.43645606,205.85223,33.676924)"
       cx="72.191498"
       cy="260.15875"
       fx="72.191498"
       fy="260.15875"
       r="149.18433" />
    <linearGradient
       id="linearGradient3913">
      <stop
         style="stop-color:#222620;stop-opacity:1;"
         offset="0"
         id="stop3915" />
      <stop
         style="stop-color:#9da795;stop-opacity:1;"
         offset="1"
         id="stop3917" />
    </linearGradient>
    <radialGradient
       inkscape:collect="always"
       xlink:href="#linearGradient3880"
       id="radialGradient3888"
       cx="237.35278"
       cy="147.22479"
       fx="237.35278"
       fy="147.22479"
       r="107.16857"
       gradientTransform="matrix(1,0,0,1.0000234,0,-0.00345228)"
       gradientUnits="userSpaceOnUse" />
    <linearGradient
       id="linearGradient3920">
      <stop
         style="stop-color:#b3bbad;stop-opacity:1;"
         offset="0"
         id="stop3922" />
      <stop
         style="stop-color:#d6dbd3;stop-opacity:1;"
         offset="1"
         id="stop3924" />
    </linearGradient>
    <radialGradient
       inkscape:collect="always"
       xlink:href="#linearGradient3846"
       id="radialGradient3876"
       gradientUnits="userSpaceOnUse"
       gradientTransform="matrix(0.43641683,0,0,0.43645606,205.85223,33.676924)"
       cx="72.191498"
       cy="260.15875"
       fx="72.191498"
       fy="260.15875"
       r="149.18433" />
    <linearGradient
       id="linearGradient3927">
      <stop
         style="stop-color:#222620;stop-opacity:1;"
         offset="0"
         id="stop3929" />
      <stop
         style="stop-color:#9da795;stop-opacity:1;"
         offset="1"
         id="stop3931" />
    </linearGradient>
    <radialGradient
       inkscape:collect="always"
       xlink:href="#linearGradient3880"
       id="radialGradient3886"
       cx="83.637177"
       cy="260.86032"
       fx="83.637177"
       fy="260.86032"
       r="107.16857"
       gradientTransform="matrix(1,0,0,1.0000234,0,-0.00611206)"
       gradientUnits="userSpaceOnUse" />
    <linearGradient
       id="linearGradient3934">
      <stop
         style="stop-color:#b3bbad;stop-opacity:1;"
         offset="0"
         id="stop3936" />
      <stop
         style="stop-color:#d6dbd3;stop-opacity:1;"
         offset="1"
         id="stop3938" />
    </linearGradient>
    <radialGradient
       inkscape:collect="always"
       xlink:href="#linearGradient3846"
       id="radialGradient3878"
       gradientUnits="userSpaceOnUse"
       gradientTransform="matrix(0.43641683,0,0,0.43645606,52.136611,147.31246)"
       cx="72.191498"
       cy="260.15875"
       fx="72.191498"
       fy="260.15875"
       r="149.18433" />
    <linearGradient
       id="linearGradient3941">
      <stop
         style="stop-color:#222620;stop-opacity:1;"
         offset="0"
         id="stop3943" />
      <stop
         style="stop-color:#9da795;stop-opacity:1;"
         offset="1"
         id="stop3945" />
    </linearGradient>
    <radialGradient
       r="149.18433"
       fy="260.15875"
       fx="72.191498"
       cy="260.15875"
       cx="72.191498"
       gradientTransform="matrix(0.43641683,0,0,0.43645606,52.136611,147.31246)"
       gradientUnits="userSpaceOnUse"
       id="radialGradient3964"
       xlink:href="#linearGradient3846"
       inkscape:collect="always" />
    <linearGradient
       inkscape:collect="always"
       xlink:href="#linearGradient3942"
       id="linearGradient3955"
       gradientUnits="userSpaceOnUse"
       gradientTransform="translate(-183.1468,-158.28118)"
       x1="74.006111"
       y1="153.75172"
       x2="344.5"
       y2="330.63455" />
    <radialGradient
       inkscape:collect="always"
       xlink:href="#linearGradient3880"
       id="radialGradient3957"
       gradientUnits="userSpaceOnUse"
       gradientTransform="matrix(1,0,0,1.0000234,0,-0.00345228)"
       cx="237.35278"
       cy="147.22479"
       fx="237.35278"
       fy="147.22479"
       r="107.16857" />
    <radialGradient
       inkscape:collect="always"
       xlink:href="#linearGradient3846"
       id="radialGradient3959"
       gradientUnits="userSpaceOnUse"
       gradientTransform="matrix(0.43641683,0,0,0.43645606,205.85223,33.676924)"
       cx="72.191498"
       cy="260.15875"
       fx="72.191498"
       fy="260.15875"
       r="149.18433" />
    <radialGradient
       inkscape:collect="always"
       xlink:href="#linearGradient3880"
       id="radialGradient3961"
       gradientUnits="userSpaceOnUse"
       gradientTransform="matrix(1,0,0,1.0000234,0,-0.00611206)"
       cx="83.637177"
       cy="260.86032"
       fx="83.637177"
       fy="260.86032"
       r="107.16857" />
    <radialGradient
       inkscape:collect="always"
       xlink:href="#linearGradient3846"
       id="radialGradient3963"
       gradientUnits="userSpaceOnUse"
       gradientTransform="matrix(0.43641683,0,0,0.43645606,52.136611,147.31246)"
       cx="72.191498"
       cy="260.15875"
       fx="72.191498"
       fy="260.15875"
       r="149.18433" />
    <radialGradient
       inkscape:collect="always"
       xlink:href="#linearGradient3880"
       id="radialGradient3965"
       gradientUnits="userSpaceOnUse"
       gradientTransform="matrix(1,0,0,1.0000234,0,-0.00345228)"
       cx="237.35278"
       cy="147.22479"
       fx="237.35278"
       fy="147.22479"
       r="107.16857" />
    <radialGradient
       inkscape:collect="always"
       xlink:href="#linearGradient3846"
       id="radialGradient3967"
       gradientUnits="userSpaceOnUse"
       gradientTransform="matrix(0.43641683,0,0,0.43645606,205.85223,33.676924)"
       cx="72.191498"
       cy="260.15875"
       fx="72.191498"
       fy="260.15875"
       r="149.18433" />
    <radialGradient
       inkscape:collect="always"
       xlink:href="#linearGradient3880"
       id="radialGradient3969"
       gradientUnits="userSpaceOnUse"
       gradientTransform="matrix(1,0,0,1.0000234,0,-0.00345228)"
       cx="237.35278"
       cy="147.22479"
       fx="237.35278"
       fy="147.22479"
       r="107.16857" />
    <radialGradient
       inkscape:collect="always"
       xlink:href="#linearGradient3846"
       id="radialGradient3971"
       gradientUnits="userSpaceOnUse"
       gradientTransform="matrix(0.43641683,0,0,0.43645606,205.85223,33.676924)"
       cx="72.191498"
       cy="260.15875"
       fx="72.191498"
       fy="260.15875"
       r="149.18433" />
    <radialGradient
       inkscape:collect="always"
       xlink:href="#linearGradient3880"
       id="radialGradient3973"
       gradientUnits="userSpaceOnUse"
       gradientTransform="matrix(1,0,0,1.0000234,0,-0.00611206)"
       cx="83.637177"
       cy="260.86032"
       fx="83.637177"
       fy="260.86032"
       r="107.16857" />
    <radialGradient
       inkscape:collect="always"
       xlink:href="#linearGradient3846"
       id="radialGradient3975"
       gradientUnits="userSpaceOnUse"
       gradientTransform="matrix(0.43641683,0,0,0.43645606,52.136611,147.31246)"
       cx="72.191498"
       cy="260.15875"
       fx="72.191498"
       fy="260.15875"
       r="149.18433" />
  </defs>
  <metadata
     id="metadata7">
    <rdf:RDF>
      <cc:Work
         rdf:about="">
        <dc:format>image/svg+xml</dc:format>
        <dc:type
           rdf:resource="http://purl.org/dc/dcmitype/StillImage" />
        <dc:title />
      </cc:Work>
    </rdf:RDF>
  </metadata>
  <g
     transform="translate(0,-1004.3622)"
     id="layer1"
     inkscape:groupmode="layer"
     inkscape:label="Livello 1">
    <g
       id="g3891"
       transform="matrix(0.02092262,0,0,0.02092262,47.215663,982.03701)">
      <g
         id="g3870"
         transform="matrix(5.8815068,0,0,5.8815068,-2053.5487,1194.005)">
        <path
           inkscape:connector-curvature="0"
           id="rect2992"
           d="m 74.006115,153.75173 -2.293597,24.26085 c -6.678529,0.95337 -13.104206,2.69622 -19.176801,5.12921 l -14.112853,-19.85435 -16.682471,9.63107 10.148001,22.16801 c -5.208311,4.10464 -9.919134,8.81803 -14.022512,14.02752 l -22.1730264,-10.148 -9.6310646,16.68247 19.8643811,14.11788 c -2.4307012,6.07084 -4.1718975,12.49075 -5.1241859,19.16677 l -24.2708842,2.29358 0,19.26716 24.2708842,2.29358 c 0.9525384,6.67507 2.6936912,13.09659 5.1241859,19.16677 l -19.8643811,14.11787 9.6310646,16.68248 22.1730264,-10.15303 c 4.104193,5.2109 8.817994,9.92192 14.027532,14.02754 l -10.153021,22.17301 16.682471,9.63107 14.112853,-19.85935 c 6.07303,2.43349 12.497989,4.17575 19.176801,5.12918 l 2.293597,24.26588 19.262121,0 2.293598,-24.26084 c 6.678796,-0.9526 13.103616,-2.69656 19.176816,-5.12921 l 14.11283,19.85434 16.68248,-9.63107 -10.148,-22.168 c 5.2099,-4.10517 9.92292,-8.81697 14.02753,-14.02753 l 22.16801,10.14801 9.63106,-16.68248 -19.85936,-14.11285 c 2.43176,-6.07198 4.17636,-12.4945 5.1292,-19.17179 l 24.26085,-2.29358 0,-19.26716 -24.26085,-2.29358 c -0.95259,-6.67824 -2.69723,-13.09915 -5.1292,-19.17179 l 19.85936,-14.11286 -9.63106,-16.68247 -22.163,10.14298 c -4.10507,-5.21113 -8.82183,-9.92209 -14.03254,-14.02752 l 10.148,-22.16299 -16.68248,-9.63107 -14.10782,19.85435 c -6.07453,-2.43336 -12.50131,-4.17588 -19.181826,-5.12921 l -2.293598,-24.26085 -19.262121,0 z m 9.636081,75.41742 c 17.499664,0 31.688654,14.18737 31.688654,31.68865 0,17.5013 -14.18899,31.68867 -31.688654,31.68867 -17.499677,0 -31.683647,-14.18737 -31.683647,-31.68867 0,-17.50128 14.18397,-31.68865 31.683647,-31.68865 z"
           style="fill:url(#radialGradient3973);fill-opacity:1;stroke:#232323;stroke-width:0.1104;stroke-linecap:square;stroke-linejoin:round;stroke-miterlimit:4;stroke-opacity:1;stroke-dasharray:none;stroke-dashoffset:0" />
        <path
           inkscape:connector-curvature="0"
           style="fill:url(#radialGradient3975);fill-opacity:1;stroke:#232323;stroke-width:0.08238852;stroke-linecap:square;stroke-linejoin:round;stroke-miterlimit:4;stroke-opacity:1;stroke-dasharray:none;stroke-dashoffset:0"
           d="m 83.642196,195.78909 c -35.934507,0 -65.06538,29.13145 -65.06538,65.06928 0,35.93783 29.130873,65.07318 65.06538,65.07318 35.934514,0 65.065374,-29.13535 65.065374,-65.07318 0,-35.93783 -29.13086,-65.06928 -65.065374,-65.06928 z m 0,40.43075 c 13.606323,0 24.638534,11.03095 24.638534,24.63853 0,13.60758 -11.032211,24.63853 -24.638534,24.63853 -13.606323,0 -24.634627,-11.03095 -24.634627,-24.63853 0,-13.60758 11.028304,-24.63853 24.634627,-24.63853 z"
           id="path3066" />
      </g>
      <g
         id="g3866"
         transform="matrix(5.8815068,0,0,5.8815068,-2053.5487,1194.005)">
        <path
           inkscape:connector-curvature="0"
           style="fill:url(#radialGradient3969);fill-opacity:1;stroke:#232323;stroke-width:0.1104;stroke-linecap:square;stroke-linejoin:round;stroke-miterlimit:4;stroke-opacity:1;stroke-dasharray:none;stroke-dashoffset:0"
           d="m 227.72174,40.116204 -2.29361,24.260844 c -6.6785,0.953376 -13.10419,2.696214 -19.17679,5.129207 l -14.11284,-19.854344 -16.68248,9.631064 10.14799,22.16801 c -5.2083,4.10465 -9.91913,8.818038 -14.02251,14.027533 l -22.17303,-10.148001 -9.63106,16.682473 19.86438,14.11786 c -2.4307,6.07086 -4.17189,12.49075 -5.12418,19.16677 l -24.27089,2.29359 0,19.26715 24.27089,2.29359 c 0.95254,6.67507 2.69368,13.09659 5.12418,19.16677 l -19.86438,14.11787 9.63106,16.68247 22.17303,-10.15302 c 4.10419,5.21091 8.81801,9.92193 14.02753,14.02753 l -10.15303,22.17302 16.68248,9.63107 14.11284,-19.85936 c 6.07304,2.4335 12.498,4.17577 19.17681,5.1292 l 2.29361,24.26587 19.26211,0 2.29359,-24.26085 c 6.67881,-0.95258 13.10363,-2.69656 19.17681,-5.12921 l 14.11284,19.85435 16.68248,-9.63107 -10.14801,-22.16801 c 5.20992,-4.10516 9.92293,-8.81696 14.02754,-14.02753 l 22.16802,10.14801 9.63106,-16.68247 -19.85938,-14.11285 c 2.43179,-6.07198 4.17637,-12.4945 5.12922,-19.17179 l 24.26084,-2.29359 0,-19.26715 -24.26084,-2.29359 c -0.95261,-6.67823 -2.69725,-13.09915 -5.12922,-19.17179 l 19.85938,-14.11284 -9.63106,-16.682473 -22.163,10.14298 c -4.10508,-5.211147 -8.82183,-9.9221 -14.03256,-14.027532 l 10.14802,-22.16299 -16.68248,-9.631064 -14.10782,19.854344 c -6.07452,-2.433363 -12.5013,-4.175875 -19.18182,-5.129207 l -2.29359,-24.260844 -19.26213,0 z m 9.63608,75.417406 c 17.49966,0 31.68866,14.18737 31.68866,31.68867 0,17.5013 -14.18899,31.68866 -31.68865,31.68866 -17.49969,0 -31.68365,-14.18736 -31.68365,-31.68866 0,-17.5013 14.18396,-31.68867 31.68365,-31.68867 z"
           id="path3860" />
        <path
           id="path3862"
           d="m 237.35782,82.153551 c -35.93451,0 -65.06538,29.131449 -65.06538,65.069279 0,35.93784 29.13087,65.07319 65.06538,65.07319 35.9345,0 65.06538,-29.13535 65.06538,-65.07319 0,-35.93783 -29.13088,-65.069279 -65.06538,-65.069279 z m 0,40.430759 c 13.60633,0 24.63853,11.03094 24.63853,24.63852 0,13.60759 -11.03221,24.63853 -24.63853,24.63853 -13.60633,0 -24.63463,-11.03094 -24.63463,-24.63853 0,-13.60758 11.0283,-24.63852 24.63463,-24.63852 z"
           style="fill:url(#radialGradient3971);fill-opacity:1;stroke:#232323;stroke-width:0.08238852;stroke-linecap:square;stroke-linejoin:round;stroke-miterlimit:4;stroke-opacity:1;stroke-dasharray:none;stroke-dashoffset:0"
           inkscape:connector-curvature="0" />
      </g>
      <g
         transform="matrix(5.8815068,0,0,5.8815068,-2053.5487,1194.005)"
         id="g3890">
        <path
           id="path3892"
           d="m 227.72174,40.116204 -2.29361,24.260844 c -6.6785,0.953376 -13.10419,2.696214 -19.17679,5.129207 l -14.11284,-19.854344 -16.68248,9.631064 10.14799,22.16801 c -5.2083,4.10465 -9.91913,8.818038 -14.02251,14.027533 l -22.17303,-10.148001 -9.63106,16.682473 19.86438,14.11786 c -2.4307,6.07086 -4.17189,12.49075 -5.12418,19.16677 l -24.27089,2.29359 0,19.26715 24.27089,2.29359 c 0.95254,6.67507 2.69368,13.09659 5.12418,19.16677 l -19.86438,14.11787 9.63106,16.68247 22.17303,-10.15302 c 4.10419,5.21091 8.81801,9.92193 14.02753,14.02753 l -10.15303,22.17302 16.68248,9.63107 14.11284,-19.85936 c 6.07304,2.4335 12.498,4.17577 19.17681,5.1292 l 2.29361,24.26587 19.26211,0 2.29359,-24.26085 c 6.67881,-0.95258 13.10363,-2.69656 19.17681,-5.12921 l 14.11284,19.85435 16.68248,-9.63107 -10.14801,-22.16801 c 5.20992,-4.10516 9.92293,-8.81696 14.02754,-14.02753 l 22.16802,10.14801 9.63106,-16.68247 -19.85938,-14.11285 c 2.43179,-6.07198 4.17637,-12.4945 5.12922,-19.17179 l 24.26084,-2.29359 0,-19.26715 -24.26084,-2.29359 c -0.95261,-6.67823 -2.69725,-13.09915 -5.12922,-19.17179 l 19.85938,-14.11284 -9.63106,-16.682473 -22.163,10.14298 c -4.10508,-5.211147 -8.82183,-9.9221 -14.03256,-14.027532 l 10.14802,-22.16299 -16.68248,-9.631064 -14.10782,19.854344 c -6.07452,-2.433363 -12.5013,-4.175875 -19.18182,-5.129207 l -2.29359,-24.260844 -19.26213,0 z m 9.63608,75.417406 c 17.49966,0 31.68866,14.18737 31.68866,31.68867 0,17.5013 -14.18899,31.68866 -31.68865,31.68866 -17.49969,0 -31.68365,-14.18736 -31.68365,-31.68866 0,-17.5013 14.18396,-31.68867 31.68365,-31.68867 z"
           style="fill:url(#radialGradient3965);fill-opacity:1;stroke:#232323;stroke-width:0.1104;stroke-linecap:square;stroke-linejoin:round;stroke-miterlimit:4;stroke-opacity:1;stroke-dasharray:none;stroke-dashoffset:0"
           inkscape:connector-curvature="0" />
        <path
           inkscape:connector-curvature="0"
           style="fill:url(#radialGradient3967);fill-opacity:1;stroke:#232323;stroke-width:0.08238852;stroke-linecap:square;stroke-linejoin:round;stroke-miterlimit:4;stroke-opacity:1;stroke-dasharray:none;stroke-dashoffset:0"
           d="m 237.35782,82.153551 c -35.93451,0 -65.06538,29.131449 -65.06538,65.069279 0,35.93784 29.13087,65.07319 65.06538,65.07319 35.9345,0 65.06538,-29.13535 65.06538,-65.07319 0,-35.93783 -29.13088,-65.069279 -65.06538,-65.069279 z m 0,40.430759 c 13.60633,0 24.63853,11.03094 24.63853,24.63852 0,13.60759 -11.03221,24.63853 -24.63853,24.63853 -13.60633,0 -24.63463,-11.03094 -24.63463,-24.63853 0,-13.60758 11.0283,-24.63852 24.63463,-24.63852 z"
           id="path3894" />
      </g>
      <g
         transform="matrix(5.8815068,0,0,5.8815068,-2053.5487,1194.005)"
         id="g3904">
        <path
           style="fill:url(#radialGradient3961);fill-opacity:1;stroke:#232323;stroke-width:0.1104;stroke-linecap:square;stroke-linejoin:round;stroke-miterlimit:4;stroke-opacity:1;stroke-dasharray:none;stroke-dashoffset:0"
           d="m 74.006115,153.75173 -2.293597,24.26085 c -6.678529,0.95337 -13.104206,2.69622 -19.176801,5.12921 l -14.112853,-19.85435 -16.682471,9.63107 10.148001,22.16801 c -5.208311,4.10464 -9.919134,8.81803 -14.022512,14.02752 l -22.1730264,-10.148 -9.6310646,16.68247 19.8643811,14.11788 c -2.4307012,6.07084 -4.1718975,12.49075 -5.1241859,19.16677 l -24.2708842,2.29358 0,19.26716 24.2708842,2.29358 c 0.9525384,6.67507 2.6936912,13.09659 5.1241859,19.16677 l -19.8643811,14.11787 9.6310646,16.68248 22.1730264,-10.15303 c 4.104193,5.2109 8.817994,9.92192 14.027532,14.02754 l -10.153021,22.17301 16.682471,9.63107 14.112853,-19.85935 c 6.07303,2.43349 12.497989,4.17575 19.176801,5.12918 l 2.293597,24.26588 19.262121,0 2.293598,-24.26084 c 6.678796,-0.9526 13.103616,-2.69656 19.176816,-5.12921 l 14.11283,19.85434 16.68248,-9.63107 -10.148,-22.168 c 5.2099,-4.10517 9.92292,-8.81697 14.02753,-14.02753 l 22.16801,10.14801 9.63106,-16.68248 -19.85936,-14.11285 c 2.43176,-6.07198 4.17636,-12.4945 5.1292,-19.17179 l 24.26085,-2.29358 0,-19.26716 -24.26085,-2.29358 c -0.95259,-6.67824 -2.69723,-13.09915 -5.1292,-19.17179 l 19.85936,-14.11286 -9.63106,-16.68247 -22.163,10.14298 c -4.10507,-5.21113 -8.82183,-9.92209 -14.03254,-14.02752 l 10.148,-22.16299 -16.68248,-9.63107 -14.10782,19.85435 c -6.07453,-2.43336 -12.50131,-4.17588 -19.181826,-5.12921 l -2.293598,-24.26085 -19.262121,0 z m 9.636081,75.41742 c 17.499664,0 31.688654,14.18737 31.688654,31.68865 0,17.5013 -14.18899,31.68867 -31.688654,31.68867 -17.499677,0 -31.683647,-14.18737 -31.683647,-31.68867 0,-17.50128 14.18397,-31.68865 31.683647,-31.68865 z"
           id="path3906"
           inkscape:connector-curvature="0" />
        <path
           id="path3908"
           d="m 83.642196,195.78909 c -35.934507,0 -65.06538,29.13145 -65.06538,65.06928 0,35.93783 29.130873,65.07318 65.06538,65.07318 35.934514,0 65.065374,-29.13535 65.065374,-65.07318 0,-35.93783 -29.13086,-65.06928 -65.065374,-65.06928 z m 0,40.43075 c 13.606323,0 24.638534,11.03095 24.638534,24.63853 0,13.60758 -11.032211,24.63853 -24.638534,24.63853 -13.606323,0 -24.634627,-11.03095 -24.634627,-24.63853 0,-13.60758 11.028304,-24.63853 24.634627,-24.63853 z"
           style="fill:url(#radialGradient3963);fill-opacity:1;stroke:#232323;stroke-width:0.08238852;stroke-linecap:square;stroke-linejoin:round;stroke-miterlimit:4;stroke-opacity:1;stroke-dasharray:none;stroke-dashoffset:0"
           inkscape:connector-curvature="0" />
      </g>
      <g
         id="g3910"
         transform="matrix(5.8815068,0,0,5.8815068,-2053.5487,1194.005)">
        <path
           inkscape:connector-curvature="0"
           style="fill:url(#radialGradient3957);fill-opacity:1;stroke:#232323;stroke-width:0.1104;stroke-linecap:square;stroke-linejoin:round;stroke-miterlimit:4;stroke-opacity:1;stroke-dasharray:none;stroke-dashoffset:0"
           d="m 227.72174,40.116204 -2.29361,24.260844 c -6.6785,0.953376 -13.10419,2.696214 -19.17679,5.129207 l -14.11284,-19.854344 -16.68248,9.631064 10.14799,22.16801 c -5.2083,4.10465 -9.91913,8.818038 -14.02251,14.027533 l -22.17303,-10.148001 -9.63106,16.682473 19.86438,14.11786 c -2.4307,6.07086 -4.17189,12.49075 -5.12418,19.16677 l -24.27089,2.29359 0,19.26715 24.27089,2.29359 c 0.95254,6.67507 2.69368,13.09659 5.12418,19.16677 l -19.86438,14.11787 9.63106,16.68247 22.17303,-10.15302 c 4.10419,5.21091 8.81801,9.92193 14.02753,14.02753 l -10.15303,22.17302 16.68248,9.63107 14.11284,-19.85936 c 6.07304,2.4335 12.498,4.17577 19.17681,5.1292 l 2.29361,24.26587 19.26211,0 2.29359,-24.26085 c 6.67881,-0.95258 13.10363,-2.69656 19.17681,-5.12921 l 14.11284,19.85435 16.68248,-9.63107 -10.14801,-22.16801 c 5.20992,-4.10516 9.92293,-8.81696 14.02754,-14.02753 l 22.16802,10.14801 9.63106,-16.68247 -19.85938,-14.11285 c 2.43179,-6.07198 4.17637,-12.4945 5.12922,-19.17179 l 24.26084,-2.29359 0,-19.26715 -24.26084,-2.29359 c -0.95261,-6.67823 -2.69725,-13.09915 -5.12922,-19.17179 l 19.85938,-14.11284 -9.63106,-16.682473 -22.163,10.14298 c -4.10508,-5.211147 -8.82183,-9.9221 -14.03256,-14.027532 l 10.14802,-22.16299 -16.68248,-9.631064 -14.10782,19.854344 c -6.07452,-2.433363 -12.5013,-4.175875 -19.18182,-5.129207 l -2.29359,-24.260844 -19.26213,0 z m 9.63608,75.417406 c 17.49966,0 31.68866,14.18737 31.68866,31.68867 0,17.5013 -14.18899,31.68866 -31.68865,31.68866 -17.49969,0 -31.68365,-14.18736 -31.68365,-31.68866 0,-17.5013 14.18396,-31.68867 31.68365,-31.68867 z"
           id="path3912" />
        <path
           id="path3914"
           d="m 237.35782,82.153551 c -35.93451,0 -65.06538,29.131449 -65.06538,65.069279 0,35.93784 29.13087,65.07319 65.06538,65.07319 35.9345,0 65.06538,-29.13535 65.06538,-65.07319 0,-35.93783 -29.13088,-65.069279 -65.06538,-65.069279 z m 0,40.430759 c 13.60633,0 24.63853,11.03094 24.63853,24.63852 0,13.60759 -11.03221,24.63853 -24.63853,24.63853 -13.60633,0 -24.63463,-11.03094 -24.63463,-24.63853 0,-13.60758 11.0283,-24.63852 24.63463,-24.63852 z"
           style="fill:url(#radialGradient3959);fill-opacity:1;stroke:#232323;stroke-width:0.08238852;stroke-linecap:square;stroke-linejoin:round;stroke-miterlimit:4;stroke-opacity:1;stroke-dasharray:none;stroke-dashoffset:0"
           inkscape:connector-curvature="0" />
      </g>
      <g
         transform="matrix(5.8815068,0,0,5.8815068,-976.36939,2124.9368)"
         id="g3927"
         style="fill:#343a30;fill-opacity:1">
        <path
           id="path3931"
           style="opacity:0.5;fill:url(#linearGradient3955);fill-opacity:1;stroke:none"
           d="m 54.211024,-76.127632 c -35.93451,0 -65.065384,29.13145 -65.065384,65.06928 0,35.93784 29.130874,65.07319 65.065384,65.07319 35.9345,0 65.065376,-29.13535 65.065376,-65.07319 0,-35.93783 -29.130876,-65.06928 -65.065376,-65.06928 z m 0,40.43076 c 13.60633,0 24.63853,11.03094 24.63853,24.63852 0,13.60759 -11.03221,24.63853 -24.63853,24.63853 -13.60633,0 -24.63463,-11.03094 -24.63463,-24.63853 0,-13.60758 11.0283,-24.63852 24.63463,-24.63852 z m -9.63608,-82.468108 -2.29361,24.260848 c -6.6785,0.95337 -13.10419,2.69621 -19.17679,5.1292 L 8.9917,-108.62927 -7.69078,-98.998209 2.45721,-76.830202 c -5.2083,4.10465 -9.91913,8.81804 -14.02251,14.02754 l -22.17303,-10.14801 -9.63106,16.68248 19.86438,14.11786 c -2.4307,6.07086 -4.17189,12.49075 -5.12418,19.16677 l -24.27089,2.29359 0,19.26715 24.27089,2.29359 c 0.95254,6.67507 2.69368,13.09659 5.12418,19.16677 l -19.86438,14.11787 9.63106,16.68247 22.17303,-10.15302 c 4.10419,5.21091 8.81801,9.92193 14.02753,14.02753 l -10.15303,22.17302 16.68248,9.63107 14.112844,-19.85936 c 6.07304,2.4335 12.498,4.17577 19.17681,5.1292 l 2.29361,24.26587 19.26211,0 2.29359,-24.26085 c 6.67881,-0.95258 13.10363,-2.69656 19.17681,-5.12921 l 14.11284,19.85435 16.682476,-9.63107 -10.14801,-22.16801 c 5.20992,-4.10516 9.92293,-8.81696 14.02754,-14.02753 l 22.16802,10.14801 9.63106,-16.68247 -19.85938,-14.11285 c 2.43179,-6.07198 4.17637,-12.4945 5.12922,-19.17179 l 24.26084,-2.29359 0,-19.26715 -24.26084,-2.29359 c -0.95261,-6.67823 -2.69725,-13.09915 -5.12922,-19.17179 l 19.85938,-14.11284 -9.63106,-16.68248 -22.163,10.14298 c -4.10508,-5.21114 -8.82183,-9.9221 -14.03256,-14.02753 l 10.14802,-22.162987 -16.682476,-9.631061 -14.10782,19.854338 c -6.07452,-2.43336 -12.5013,-4.17587 -19.18182,-5.1292 l -2.29359,-24.260848 -19.26213,0 z m 9.63608,75.417408 c 17.49966,0 31.68866,14.18737 31.68866,31.68867 0,17.5013 -14.18899,31.68866 -31.68865,31.68866 -17.49969,0 -31.68365,-14.18736 -31.68365,-31.68866 0,-17.5013 14.18396,-31.68867 31.68365,-31.68867 z m -153.715628,80.25548 c -35.934506,0 -65.065376,29.13145 -65.065376,65.069282 0,35.93783 29.13087,65.07318 65.065376,65.07318 35.934514,0 65.065374,-29.13535 65.065374,-65.07318 0,-35.937832 -29.13086,-65.069282 -65.065374,-65.069282 z m 0,40.43075 c 13.606323,0 24.638534,11.03095 24.638534,24.638532 0,13.60758 -11.032211,24.63853 -24.638534,24.63853 -13.606326,0 -24.634626,-11.03095 -24.634626,-24.63853 0,-13.607582 11.0283,-24.638532 24.634626,-24.638532 z m -9.636086,-82.46811 -2.29359,24.26085 c -6.67853,0.95337 -13.10421,2.69622 -19.1768,5.12921 l -14.11286,-19.85435 -16.68247,9.63107 10.148,22.16801 c -5.20831,4.10464 -9.91913,8.81803 -14.02251,14.02752 l -22.17302,-10.148 -9.63107,16.68247 19.86438,14.11788 c -2.4307,6.07084 -4.17189,12.49075 -5.12418,19.16677 l -24.27089,2.29358 0,19.267162 24.27089,2.29358 c 0.95254,6.67507 2.69369,13.09659 5.12418,19.16677 l -19.86438,14.11787 9.63107,16.68248 22.17302,-10.15303 c 4.10419,5.2109 8.818,9.92192 14.02753,14.02754 l -10.15302,22.17301 16.68247,9.63107 14.11286,-19.85935 c 6.07303,2.43349 12.49799,4.17575 19.1768,5.12918 l 2.29359,24.26588 19.262126,0 2.293598,-24.26084 c 6.678796,-0.9526 13.103616,-2.69656 19.176816,-5.12921 l 14.11283,19.85434 16.68248,-9.63107 -10.148,-22.168 c 5.2099,-4.10517 9.92292,-8.81697 14.02753,-14.02753 l 22.16801,10.14801 9.63106,-16.68248 -19.85936,-14.11285 c 2.43176,-6.07198 4.17636,-12.4945 5.1292,-19.17179 l 24.26085,-2.29358 0,-19.267162 -24.26085,-2.29358 c -0.95259,-6.67824 -2.69723,-13.09915 -5.1292,-19.17179 l 19.85936,-14.11286 -9.63106,-16.68247 -22.163,10.14298 c -4.10507,-5.21113 -8.82183,-9.92209 -14.03254,-14.02752 l 10.148,-22.16299 -16.68248,-9.63107 -14.10782,19.85435 c -6.07453,-2.43336 -12.50131,-4.17588 -19.181826,-5.12921 l -2.293598,-24.26085 -19.262126,0 z m 9.636086,75.41742 c 17.499664,0 31.688654,14.18737 31.688654,31.688652 0,17.5013 -14.18899,31.68867 -31.688654,31.68867 -17.499676,0 -31.683646,-14.18737 -31.683646,-31.68867 0,-17.501282 14.18397,-31.688652 31.683646,-31.688652 z"
           inkscape:connector-curvature="0" />
      </g>
    </g>
  </g>
</svg>
