<?xml version="1.0" encoding="UTF-8" standalone="no"?>
<svg
   version="1.0"
   width="16.000000pt"
   height="16.000000pt"
   viewBox="0 0 16.000000 16.000000"
   preserveAspectRatio="xMidYMid meet"
   id="svg2"
   xmlns:xlink="http://www.w3.org/1999/xlink"
   xmlns="http://www.w3.org/2000/svg"
   xmlns:svg="http://www.w3.org/2000/svg">
  <defs
     id="defs2">
    <linearGradient
       id="Main">
      <stop
         style="stop-color:#000000;stop-opacity:1;"
         offset="0"
         id="stop2082" />
    </linearGradient>
    <linearGradient
       xlink:href="#Main-5"
       id="linearGradient2320"
       x1="2.6458335"
       y1="14.816667"
       x2="5.8208332"
       y2="14.816667"
       gradientUnits="userSpaceOnUse" />
    <linearGradient
       id="Main-5">
      <stop
         style="stop-color:#4d4d4d;stop-opacity:1;"
         offset="0"
         id="stop2082-8" />
    </linearGradient>
    <linearGradient
       xlink:href="#Main-5"
       id="linearGradient2322"
       x1="3.1750002"
       y1="14.816651"
       x2="5.2916675"
       y2="14.816651"
       gradientUnits="userSpaceOnUse" />
    <linearGradient
       xlink:href="#Main-5"
       id="linearGradient2324"
       x1="5.6885424"
       y1="14.816667"
       x2="6.3500004"
       y2="14.816667"
       gradientUnits="userSpaceOnUse" />
    <linearGradient
       xlink:href="#Main-5"
       id="linearGradient2326"
       x1="4.17975"
       y1="16.49861"
       x2="5.3575182"
       y2="16.49861"
       gradientUnits="userSpaceOnUse" />
    <linearGradient
       xlink:href="#Main-5"
       id="linearGradient2328"
       x1="2.2552035"
       y1="15.843752"
       x2="3.3670816"
       y2="15.843752"
       gradientUnits="userSpaceOnUse" />
    <linearGradient
       xlink:href="#Main-5"
       id="linearGradient2330"
       x1="2.2552028"
       y1="13.789582"
       x2="3.3670833"
       y2="13.789582"
       gradientUnits="userSpaceOnUse" />
    <linearGradient
       xlink:href="#Main-5"
       id="linearGradient2332"
       x1="4.17975"
       y1="13.134723"
       x2="5.3575163"
       y2="13.134723"
       gradientUnits="userSpaceOnUse" />
  </defs>
  <g
     id="activator"
     style="display:inline"
     transform="matrix(3.7795278,0,0,3.7323517,-8.0000099,-47.301008)">
    <rect
       style="opacity:0;fill:#a51d2d;stroke-width:0.264583px;paint-order:fill markers stroke;stop-color:#000000"
       id="rect1388"
       width="4.2333331"
       height="4.2333331"
       x="2.1166692"
       y="12.7"
       rx="1.9824198e-15" />
    <path
       id="path1591"
       style="font-variation-settings:normal;opacity:1;vector-effect:none;fill:url(#linearGradient2320);fill-opacity:1;stroke:none;stroke-width:0.264583px;stroke-linecap:butt;stroke-linejoin:miter;stroke-miterlimit:4;stroke-dasharray:none;stroke-dashoffset:0;stroke-opacity:1;stop-color:#000000;stop-opacity:1"
       d="m 4.2333336,13.229167 a 1.5875001,1.5874996 0 0 0 -1.5875001,1.5875 1.5875001,1.5874996 0 0 0 1.5875001,1.5875 1.5875001,1.5874996 0 0 0 1.5874998,-1.5875 1.5875001,1.5874996 0 0 0 -1.5874998,-1.5875 z m 0,0.264583 A 1.3229167,1.3229167 0 0 1 5.5562504,14.816667 1.3229167,1.3229167 0 0 1 4.2333336,16.139583 1.3229167,1.3229167 0 0 1 2.9104169,14.816667 1.3229167,1.3229167 0 0 1 4.2333336,13.49375 Z" />
    <path
       id="path1598"
       style="font-variation-settings:normal;opacity:1;vector-effect:none;fill:url(#linearGradient2322);fill-opacity:1;stroke:none;stroke-width:0.264583px;stroke-linecap:butt;stroke-linejoin:miter;stroke-miterlimit:4;stroke-dasharray:none;stroke-dashoffset:0;stroke-opacity:1;stop-color:#000000;stop-opacity:1"
       d="M 4.2173138,13.758333 A 1.0583334,1.0583334 0 0 0 3.1750002,14.816667 1.0583334,1.0583334 0 0 0 4.2333336,15.875 1.0583334,1.0583334 0 0 0 5.2916674,14.816667 1.0583334,1.0583334 0 0 0 4.2333336,13.758333 a 1.0583334,1.0583334 0 0 0 -0.016021,0 z m 0.00259,0.264584 a 0.79374999,0.79374999 0 0 1 0.013427,0 0.79374999,0.79374999 0 0 1 0.7937496,0.79375 0.79374999,0.79374999 0 0 1 -0.7937496,0.79375 0.79374999,0.79374999 0 0 1 -0.7937501,-0.79375 0.79374999,0.79374999 0 0 1 0.7803143,-0.79375 z" />
    <path
       style="font-variation-settings:normal;opacity:1;vector-effect:none;fill:url(#linearGradient2324);fill-opacity:1;stroke:none;stroke-width:0.264583px;stroke-linecap:butt;stroke-linejoin:miter;stroke-miterlimit:4;stroke-dasharray:none;stroke-dashoffset:0;stroke-opacity:1;stop-color:#000000;stop-opacity:1"
       d="m 5.6885424,14.2875 v 0.264584 h 0.396875 v 0.529166 h -0.396875 v 0.264584 c 0,0 0.264583,0 0.396875,0 0.264583,0 0.264583,0 0.264583,-0.264584 0,-0.176389 0,-0.529166 0,-0.529166 0,-0.264584 0,-0.264584 -0.264583,-0.264584 z"
       id="path1605" />
    <path
       style="font-variation-settings:normal;opacity:1;vector-effect:none;fill:url(#linearGradient2326);fill-opacity:1;stroke:none;stroke-width:0.264583px;stroke-linecap:butt;stroke-linejoin:miter;stroke-miterlimit:4;stroke-dasharray:none;stroke-dashoffset:0;stroke-opacity:1;stop-color:#000000;stop-opacity:1"
       d="m 5.1862854,16.037131 -0.251634,0.08176 0.122641,0.377451 -0.5032668,0.163521 -0.1226411,-0.377451 -0.2516344,0.08176 c 0,0 0.081761,0.251634 0.1226411,0.377451 0.081761,0.251633 0.081761,0.251633 0.333395,0.169872 0.1677562,-0.05451 0.5032672,-0.163521 0.5032672,-0.163521 0.251634,-0.08176 0.251634,-0.08176 0.169873,-0.333394 z"
       id="path1607" />
    <path
       style="font-variation-settings:normal;opacity:1;vector-effect:none;fill:url(#linearGradient2328);fill-opacity:1;stroke:none;stroke-width:0.264583px;stroke-linecap:butt;stroke-linejoin:miter;stroke-miterlimit:4;stroke-dasharray:none;stroke-dashoffset:0;stroke-opacity:1;stop-color:#000000;stop-opacity:1"
       d="M 3.3670817,16.100122 3.2115641,15.886069 2.890485,16.119347 2.5794493,15.691242 2.9005284,15.457965 2.7450107,15.243911 c 0,0 -0.2140526,0.155519 -0.321079,0.233278 -0.2140517,0.155518 -0.2140517,0.155518 -0.058533,0.369571 0.1036816,0.142701 0.3110358,0.428104 0.3110358,0.428104 0.1555176,0.214053 0.1555176,0.214053 0.3695702,0.05853 z"
       id="path1609" />
    <path
       style="font-variation-settings:normal;opacity:1;vector-effect:none;fill:url(#linearGradient2330);fill-opacity:1;stroke:none;stroke-width:0.264583px;stroke-linecap:butt;stroke-linejoin:miter;stroke-miterlimit:4;stroke-dasharray:none;stroke-dashoffset:0;stroke-opacity:1;stop-color:#000000;stop-opacity:1"
       d="M 2.7450088,14.389422 2.9005278,14.17537 2.5794483,13.942092 2.890485,13.513988 3.2115635,13.747266 3.3670834,13.533213 c 0,0 -0.2140533,-0.155518 -0.3210794,-0.233277 C 2.8319519,13.144419 2.8319519,13.144419 2.6764334,13.358476 2.572756,13.50118 2.3653976,13.78658 2.3653976,13.78658 c -0.1555189,0.214052 -0.1555189,0.214052 0.058538,0.369569 z"
       id="path1611" />
    <path
       style="font-variation-settings:normal;opacity:1;vector-effect:none;fill:url(#linearGradient2332);fill-opacity:1;stroke:none;stroke-width:0.264583px;stroke-linecap:butt;stroke-linejoin:miter;stroke-miterlimit:4;stroke-dasharray:none;stroke-dashoffset:0;stroke-opacity:1;stop-color:#000000;stop-opacity:1"
       d="m 4.1797501,13.26916 0.2516335,0.08176 0.1226416,-0.377452 0.5032662,0.163522 -0.122641,0.377451 0.251634,0.08176 c 0,0 0.08176,-0.251634 0.122641,-0.377451 0.08176,-0.251633 0.08176,-0.251633 -0.169878,-0.333393 -0.167758,-0.0545 -0.5032668,-0.163521 -0.5032668,-0.163521 -0.2516336,-0.08176 -0.2516336,-0.08176 -0.3333918,0.169876 z"
       id="path1613" />
  </g>
</svg>
