<?xml version="1.0" encoding="UTF-8" standalone="no"?>
<svg
   version="1.0"
   width="16.000000pt"
   height="16.000000pt"
   viewBox="0 0 16.000000 16.000000"
   preserveAspectRatio="xMidYMid meet"
   id="svg2"
   xmlns:xlink="http://www.w3.org/1999/xlink"
   xmlns="http://www.w3.org/2000/svg"
   xmlns:svg="http://www.w3.org/2000/svg">
  <defs
     id="defs2">
    <linearGradient
       id="Main">
      <stop
         style="stop-color:#000000;stop-opacity:1;"
         offset="0"
         id="stop2082" />
    </linearGradient>
    <linearGradient
       xlink:href="#Main-1"
       id="linearGradient2316"
       x1="7.4083333"
       y1="15.610416"
       x2="11.641667"
       y2="15.610416"
       gradientUnits="userSpaceOnUse" />
    <linearGradient
       id="Main-1">
      <stop
         style="stop-color:#4d4d4d;stop-opacity:1;"
         offset="0"
         id="stop2082-1" />
    </linearGradient>
    <linearGradient
       xlink:href="#Main-1"
       id="linearGradient2318"
       x1="7.4311438"
       y1="13.585216"
       x2="9.7828169"
       y2="13.585216"
       gradientUnits="userSpaceOnUse" />
  </defs>
  <g
     id="apparatus"
     style="display:inline"
     transform="matrix(3.7795264,0,0,3.7795277,-27.999988,-48.000001)">
    <path
       id="path1548"
       style="font-variation-settings:normal;opacity:1;vector-effect:none;fill:url(#linearGradient2316);fill-opacity:1;stroke:none;stroke-width:0.264583px;stroke-linecap:butt;stroke-linejoin:miter;stroke-miterlimit:4;stroke-dasharray:none;stroke-dashoffset:0;stroke-opacity:1;stop-color:#000000;stop-opacity:1"
       d="m 7.4083332,14.2875 c 0,1.058334 10e-8,1.852084 0.7937501,2.116667 v 0.529166 h 2.6458337 v -0.529166 c 0.79375,-0.264583 0.79375,-1.058333 0.79375,-2.116667 z m 0.2645835,0.264583 h 3.7041663 c -0.0043,0.391937 -0.02302,0.776349 -0.08992,1.021643 -0.08422,0.308823 -0.201392,0.472102 -0.522965,0.579293 -0.108066,0.03605 -0.180927,0.0049 -0.180868,0.118856 V 16.66875 H 8.4666666 l 10e-8,-0.396875 c 5.96e-5,-0.113922 -0.072801,-0.0828 -0.1808676,-0.118856 C 7.9642258,16.045828 7.847058,15.882549 7.7628336,15.573726 7.6959349,15.328432 7.6772196,14.94402 7.6729167,14.552083 Z" />
    <path
       style="font-variation-settings:normal;opacity:1;vector-effect:none;fill:url(#linearGradient2318);fill-opacity:1;stroke:none;stroke-width:0.264583px;stroke-linecap:butt;stroke-linejoin:miter;stroke-miterlimit:4;stroke-dasharray:none;stroke-dashoffset:0;stroke-opacity:1;stop-color:#000000;stop-opacity:1"
       d="m 8.0303333,14.440792 c 0,0 -0.2549422,-0.503321 -0.5872624,-1.214834 -0.051288,-0.109811 0.072913,-0.283564 0.1805731,-0.367422 0.1272316,-0.0991 0.335854,-0.186629 0.4261393,-0.102012 0.6564188,0.615209 1.7330335,1.691503 1.7330335,1.691503 l -0.443406,-0.08626 c 0,0 -0.8603506,-0.879948 -1.300715,-1.309642 -0.1226325,-0.119661 -0.3779304,0.08975 -0.3032537,0.272244 0.1220055,0.29815 0.5843882,1.043318 0.5843882,1.043318 z"
       id="path1575" />
  </g>
</svg>
