<?xml version="1.0" encoding="UTF-8" standalone="no"?>
<svg
   version="1.0"
   width="16.000000pt"
   height="16.000000pt"
   viewBox="0 0 16.000000 16.000000"
   preserveAspectRatio="xMidYMid meet"
   id="svg2"
   xmlns:xlink="http://www.w3.org/1999/xlink"
   xmlns="http://www.w3.org/2000/svg"
   xmlns:svg="http://www.w3.org/2000/svg">
  <defs
     id="defs2">
    <linearGradient
       id="Main">
      <stop
         style="stop-color:#000000;stop-opacity:1;"
         offset="0"
         id="stop2082" />
    </linearGradient>
    <linearGradient
       id="Main-1">
      <stop
         style="stop-color:#4d4d4d;stop-opacity:1;"
         offset="0"
         id="stop2082-1" />
    </linearGradient>
    <linearGradient
       xlink:href="#Main-1"
       id="linearGradient2334"
       x1="12.7"
       y1="14.834408"
       x2="16.933334"
       y2="14.834408"
       gradientUnits="userSpaceOnUse" />
    <linearGradient
       xlink:href="#Main-1"
       id="linearGradient2336"
       x1="13.229167"
       y1="14.816667"
       x2="16.404167"
       y2="14.816667"
       gradientUnits="userSpaceOnUse" />
  </defs>
  <g
     id="armor"
     style="display:inline"
     transform="matrix(3.7795254,0,0,3.7481122,-47.999972,-47.601024)">
    <path
       id="path1648"
       style="font-variation-settings:normal;opacity:1;vector-effect:none;fill:url(#linearGradient2334);fill-opacity:1;stroke:none;stroke-width:0.264583px;stroke-linecap:butt;stroke-linejoin:miter;stroke-miterlimit:4;stroke-dasharray:none;stroke-dashoffset:0;stroke-opacity:1;stop-color:#000000;stop-opacity:1"
       d="m 12.7,12.7 c -10e-7,2.645834 0.529166,3.307291 1.984375,4.233333 0.07443,0.04731 0.190154,0.04731 0.264584,0 1.455208,-0.926042 1.984375,-1.587499 1.984375,-4.233333 z m 0.264584,0.264583 h 3.704166 c 0,1.984375 -0.463021,2.869609 -1.736328,3.673161 -0.06513,0.04105 -0.16638,0.04105 -0.23151,0 -1.273308,-0.803552 -1.736328,-1.688786 -1.736328,-3.673161 z" />
    <path
       id="path1653"
       style="font-variation-settings:normal;opacity:1;vector-effect:none;fill:url(#linearGradient2336);fill-opacity:1;stroke:none;stroke-width:0.264583px;stroke-linecap:butt;stroke-linejoin:miter;stroke-miterlimit:4;stroke-dasharray:none;stroke-dashoffset:0;stroke-opacity:1;stop-color:#000000;stop-opacity:1"
       d="m 14.816667,16.404167 c 1.364557,-0.881951 1.49242,-1.658193 1.5875,-3.175 h -1.5875 -1.5875 c 0.09508,1.516807 0.222943,2.293049 1.5875,3.175 z m 0,-2.910417 h 1.30638 c -0.115736,1.322698 -0.265299,1.809261 -1.30638,2.588086 -1.041081,-0.778825 -1.190644,-1.265388 -1.30638,-2.588086 z" />
  </g>
</svg>
