<?xml version="1.0" encoding="UTF-8" standalone="no"?>
<svg
   version="1.0"
   width="16.000000pt"
   height="16.000000pt"
   viewBox="0 0 16.000000 16.000000"
   preserveAspectRatio="xMidYMid meet"
   id="svg2"
   xmlns:xlink="http://www.w3.org/1999/xlink"
   xmlns="http://www.w3.org/2000/svg"
   xmlns:svg="http://www.w3.org/2000/svg">
  <defs
     id="defs2">
    <linearGradient
       id="Main">
      <stop
         style="stop-color:#000000;stop-opacity:1;"
         offset="0"
         id="stop2082" />
    </linearGradient>
    <linearGradient
       id="Main-1">
      <stop
         style="stop-color:#4d4d4d;stop-opacity:1;"
         offset="0"
         id="stop2082-1" />
    </linearGradient>
    <linearGradient
       xlink:href="#Main-1"
       id="linearGradient2222"
       x1="8.2020836"
       y1="40.481251"
       x2="10.847917"
       y2="40.481251"
       gradientUnits="userSpaceOnUse" />
    <linearGradient
       xlink:href="#Main-1"
       id="linearGradient2224"
       x1="7.4083333"
       y1="42.068752"
       x2="8.4666662"
       y2="42.068752"
       gradientUnits="userSpaceOnUse" />
    <linearGradient
       xlink:href="#Main-1"
       id="linearGradient2226"
       x1="8.9958334"
       y1="42.597919"
       x2="10.054167"
       y2="42.597919"
       gradientUnits="userSpaceOnUse" />
    <linearGradient
       xlink:href="#Main-1"
       id="linearGradient2228"
       x1="10.583333"
       y1="42.068752"
       x2="11.641667"
       y2="42.068752"
       gradientUnits="userSpaceOnUse" />
    <linearGradient
       xlink:href="#Main-1"
       id="linearGradient2230"
       x1="7.4083333"
       y1="40.613544"
       x2="11.641667"
       y2="40.613544"
       gradientUnits="userSpaceOnUse" />
  </defs>
  <g
     id="birthsign"
     transform="matrix(3.7795264,0,0,3.7795278,-27.999988,-148.00001)"
     style="display:inline">
    <path
       id="path10688"
       style="font-variation-settings:normal;opacity:1;vector-effect:none;fill:url(#linearGradient2222);fill-opacity:1;stroke:none;stroke-width:0.264583px;stroke-linecap:butt;stroke-linejoin:miter;stroke-miterlimit:4;stroke-dasharray:none;stroke-dashoffset:0;stroke-opacity:1;marker:none;paint-order:fill markers stroke;stop-color:#000000;stop-opacity:1"
       d="m 9.5249999,39.158335 a 1.3229166,1.3229166 0 0 0 -1.3229167,1.322916 1.3229166,1.3229166 0 0 0 1.3229167,1.322917 1.3229166,1.3229166 0 0 0 1.3229171,-1.322917 1.3229166,1.3229166 0 0 0 -1.3229171,-1.322916 z m -0.01602,0.264583 a 1.0583333,1.0583333 0 0 1 0.01602,0 1.0583333,1.0583333 0 0 1 1.0583331,1.058333 1.0583333,1.0583333 0 0 1 -1.0583331,1.058334 1.0583333,1.0583333 0 0 1 -1.0583333,-1.058334 1.0583333,1.0583333 0 0 1 1.0423133,-1.058333 z" />
    <path
       id="rect10697"
       style="font-variation-settings:normal;opacity:1;vector-effect:none;fill:url(#linearGradient2224);fill-opacity:1;stroke:none;stroke-width:0.264583px;stroke-linecap:butt;stroke-linejoin:miter;stroke-miterlimit:4;stroke-dasharray:none;stroke-dashoffset:0;stroke-opacity:1;marker:none;paint-order:fill markers stroke;stop-color:#000000;stop-opacity:1"
       d="m 7.6729166,41.539585 c -0.1465789,0 -0.2645834,0.118004 -0.2645834,0.264583 v 0.529167 c 0,0.146579 0.1180045,0.264583 0.2645834,0.264583 h 0.5291666 c 0.146579,0 0.2645834,-0.118004 0.2645834,-0.264583 v -0.529167 c 0,-0.146579 -0.1180044,-0.264583 -0.2645834,-0.264583 z m 0,0.264583 h 0.5291666 v 0.529167 H 7.6729166 Z" />
    <path
       id="path10718"
       style="font-variation-settings:normal;opacity:1;vector-effect:none;fill:url(#linearGradient2226);fill-opacity:1;stroke:none;stroke-width:0.264583px;stroke-linecap:butt;stroke-linejoin:miter;stroke-miterlimit:4;stroke-dasharray:none;stroke-dashoffset:0;stroke-opacity:1;marker:none;paint-order:fill markers stroke;stop-color:#000000;stop-opacity:1"
       d="m 9.2604166,42.068753 c -0.1465789,0 -0.2645833,0.118005 -0.2645833,0.264584 v 0.529166 c 0,0.14658 0.1180044,0.264584 0.2645833,0.264584 h 0.5291667 c 0.146579,0 0.2645837,-0.118004 0.2645837,-0.264584 v -0.529166 c 0,-0.146579 -0.1180047,-0.264584 -0.2645837,-0.264584 z m 0,0.264584 h 0.5291667 v 0.529166 H 9.2604166 Z" />
    <path
       id="path10720"
       style="font-variation-settings:normal;opacity:1;vector-effect:none;fill:url(#linearGradient2228);fill-opacity:1;stroke:none;stroke-width:0.264583px;stroke-linecap:butt;stroke-linejoin:miter;stroke-miterlimit:4;stroke-dasharray:none;stroke-dashoffset:0;stroke-opacity:1;marker:none;paint-order:fill markers stroke;stop-color:#000000;stop-opacity:1"
       d="m 10.847917,41.539587 c -0.146579,0 -0.264584,0.118005 -0.264584,0.264584 v 0.529166 c 0,0.14658 0.118005,0.264584 0.264584,0.264584 h 0.529166 c 0.146579,0 0.264584,-0.118004 0.264584,-0.264584 v -0.529166 c 0,-0.146579 -0.118005,-0.264584 -0.264584,-0.264584 z m 0,0.264584 h 0.529166 v 0.529166 h -0.529166 z" />
    <path
       id="path10722"
       style="font-variation-settings:normal;opacity:1;vector-effect:none;fill:url(#linearGradient2230);fill-opacity:1;stroke:none;stroke-width:0.264583px;stroke-linecap:butt;stroke-linejoin:miter;stroke-miterlimit:4;stroke-dasharray:none;stroke-dashoffset:0;stroke-opacity:1;marker:none;paint-order:fill markers stroke;stop-color:#000000;stop-opacity:1"
       d="m 7.9374999,40.216668 c -0.2922507,0 -0.5291667,0.177686 -0.5291667,0.396875 0,0.219189 0.236916,0.396875 0.5291667,0.396875 H 9.2604165 9.7895832 11.1125 c 0.292251,0 0.529167,-0.177686 0.529167,-0.396875 0,-0.219189 -0.236916,-0.396875 -0.529167,-0.396875 h -0.432015 v 0.264583 H 11.1125 c 0.0019,-2.4e-5 0.0038,-2.4e-5 0.0057,0 0.09451,0.0024 0.169547,0.06084 0.169499,0.132292 0,0.07309 -0.07845,0.132334 -0.175183,0.132292 h -0.0057 -1.3172328 -0.5291667 -1.3172322 -0.00568 c -0.096734,4.2e-5 -0.1751831,-0.0592 -0.1751831,-0.132292 -4.81e-5,-0.07145 0.074991,-0.130014 0.1694987,-0.132292 0.00189,-2.4e-5 0.00379,-2.4e-5 0.00568,0 h 0.432015 v -0.264583 z" />
  </g>
</svg>
