<?xml version="1.0" encoding="UTF-8" standalone="no"?>
<svg
   version="1.0"
   width="16.000000pt"
   height="16.000000pt"
   viewBox="0 0 16.000000 16.000000"
   preserveAspectRatio="xMidYMid meet"
   id="svg2"
   xmlns:xlink="http://www.w3.org/1999/xlink"
   xmlns="http://www.w3.org/2000/svg"
   xmlns:svg="http://www.w3.org/2000/svg">
  <defs
     id="defs2">
    <linearGradient
       id="Main">
      <stop
         style="stop-color:#000000;stop-opacity:1;"
         offset="0"
         id="stop2082" />
    </linearGradient>
    <linearGradient
       id="Main-1">
      <stop
         style="stop-color:#4d4d4d;stop-opacity:1;"
         offset="0"
         id="stop2082-1" />
    </linearGradient>
    <linearGradient
       xlink:href="#Main-1"
       id="linearGradient2234"
       x1="12.700004"
       y1="41.275002"
       x2="16.662027"
       y2="41.275002"
       gradientUnits="userSpaceOnUse" />
    <linearGradient
       xlink:href="#Main-1"
       id="linearGradient2236"
       x1="15.261501"
       y1="42.025791"
       x2="15.91278"
       y2="42.025791"
       gradientUnits="userSpaceOnUse" />
  </defs>
  <g
     id="body-part"
     transform="matrix(3.7795264,0,0,3.7795278,-47.999995,-148.00001)"
     style="display:inline">
    <path
       id="path1689"
       style="font-variation-settings:normal;opacity:1;vector-effect:none;fill:url(#linearGradient2234);fill-opacity:1;stroke:none;stroke-width:0.264583px;stroke-linecap:butt;stroke-linejoin:miter;stroke-miterlimit:4;stroke-dasharray:none;stroke-dashoffset:0;stroke-opacity:1;marker:none;paint-order:fill markers stroke;stop-color:#000000;stop-opacity:1"
       d="m 14.305075,39.158335 c 0.660363,1.331254 0.764294,1.869768 0.764294,2.462382 0,0.424307 -0.988158,0.901957 -1.840199,0.987536 -0.18112,0.0063 -0.529166,0.09876 -0.529166,0.518832 0,0.229584 0.339402,0.264584 0.529166,0.264584 h 3.024106 c 0.686469,-0.431602 0.364641,-0.995913 0.07028,-1.802474 -0.223239,-0.779487 -0.183967,-1.148525 -0.183967,-2.43086 z m 0.432014,0.264584 h 1.137915 c 0.01315,1.138401 -0.05581,1.388856 0.167431,2.168342 0.294362,0.806564 0.370625,1.401879 0.09715,1.535824 h -2.910417 c -0.324061,0 -0.321976,-0.267568 0,-0.293523 0.859047,-0.06925 2.12235,-0.654593 2.12235,-1.212845 0.0016,-0.218358 0.106445,-0.895485 -0.614431,-2.197798 z" />
    <path
       style="font-variation-settings:normal;opacity:1;vector-effect:none;fill:url(#linearGradient2236);fill-opacity:1;stroke:none;stroke-width:0.264583px;stroke-linecap:butt;stroke-linejoin:miter;stroke-miterlimit:4;stroke-dasharray:none;stroke-dashoffset:0;stroke-opacity:1;marker:none;paint-order:fill markers stroke;stop-color:#000000;stop-opacity:1"
       d="m 15.261501,42.27091 c 0.204639,0.05209 0.511182,-0.240606 0.55025,-0.599654 0.113481,0.139526 0.14858,0.519555 0.01464,0.635827 -0.133946,0.116272 -0.449543,0.08661 -0.564885,-0.03617 z"
       id="path1693" />
  </g>
</svg>
