<?xml version="1.0" encoding="UTF-8" standalone="no"?>
<svg
   version="1.0"
   width="16.000000pt"
   height="16.000000pt"
   viewBox="0 0 16.000000 16.000000"
   preserveAspectRatio="xMidYMid meet"
   id="svg2"
   xmlns:xlink="http://www.w3.org/1999/xlink"
   xmlns="http://www.w3.org/2000/svg"
   xmlns:svg="http://www.w3.org/2000/svg">
  <defs
     id="defs2">
    <linearGradient
       id="Main">
      <stop
         style="stop-color:#000000;stop-opacity:1;"
         offset="0"
         id="stop2082" />
    </linearGradient>
    <linearGradient
       id="Red">
      <stop
         style="stop-color:#ff664d;stop-opacity:1;"
         offset="0"
         id="stop2533" />
    </linearGradient>
    <mask
       maskUnits="userSpaceOnUse"
       id="mask-powermask-path-effect3119">
      <path
         id="path3117"
         style="opacity:1;fill:#000000;stroke:none;stroke-width:0.264583px;stroke-linecap:butt;stroke-linejoin:miter;stroke-opacity:1"
         d="m 10.250537,66.995394 -0.0047,0.0047 c -0.02767,-0.0066 -0.211799,-0.04039 -0.4563028,0.204116 C 9.6572915,67.468749 9.6572915,67.468749 9.5249999,67.49562 9.3927082,67.468749 9.3927082,67.468749 9.2604165,67.204166 9.061979,67.005731 8.8982935,66.990872 8.8289184,66.99591 c -0.023124,0.0016 -0.035657,0.0057 -0.035657,0.0057 0,0 -0.062009,0.20257 0.2025716,0.467154 0.2645833,0.132291 0.2645841,0.132291 0.291455,0.264583 -0.026871,0.132292 -0.026872,0.132292 -0.291455,0.264583 -0.2445017,0.244505 -0.2107512,0.428639 -0.2041218,0.456304 l -0.00465,0.0047 c 0,0 0.00465,2.65e-4 0.00517,5.29e-4 1.736e-4,5.3e-4 0.00103,0.0057 0.00103,0.0057 l 0.00465,-0.0047 c 0.027721,0.0066 0.2118445,0.04033 0.4563028,-0.204123 0.1322919,-0.264584 0.1322919,-0.264584 0.2645833,-0.291455 0.1322919,0.02687 0.1322917,0.02687 0.2645833,0.291455 0.1984378,0.198435 0.3621234,0.213294 0.4314984,0.208256 0.02312,-0.0016 0.03566,-0.0057 0.03566,-0.0057 0,0 0.06201,-0.20257 -0.202572,-0.467156 -0.2645836,-0.132289 -0.2645839,-0.132291 -0.291455,-0.264583 0.026871,-0.132279 0.026873,-0.132292 0.291455,-0.264583 0.244502,-0.244505 0.210752,-0.428639 0.204122,-0.456304 l 0.0047,-0.0047 c 0,0 -0.0046,-7.94e-4 -0.0052,-0.0011 -1.47e-4,-5.29e-4 -10e-4,-0.0052 -10e-4,-0.0052 z" />
    </mask>
    <linearGradient
       id="Main-6">
      <stop
         style="stop-color:#4d4d4d;stop-opacity:1;"
         offset="0"
         id="stop2082-3" />
    </linearGradient>
    <linearGradient
       xlink:href="#Main-6"
       id="linearGradient2338"
       x1="17.991667"
       y1="13.62678"
       x2="20.108334"
       y2="13.62678"
       gradientUnits="userSpaceOnUse" />
    <linearGradient
       xlink:href="#Main-6"
       id="linearGradient2340"
       x1="19.84375"
       y1="14.816667"
       x2="20.372917"
       y2="14.816667"
       gradientUnits="userSpaceOnUse" />
    <linearGradient
       xlink:href="#Main-6"
       id="linearGradient2342"
       x1="17.991667"
       y1="14.948958"
       x2="18.25625"
       y2="14.948958"
       gradientUnits="userSpaceOnUse" />
    <linearGradient
       xlink:href="#Main-6"
       id="linearGradient2344"
       x1="21.960417"
       y1="14.948958"
       x2="22.225"
       y2="14.948958"
       gradientUnits="userSpaceOnUse" />
    <linearGradient
       xlink:href="#Main-6"
       id="linearGradient2346"
       x1="17.991667"
       y1="15.478861"
       x2="20.108334"
       y2="15.478861"
       gradientUnits="userSpaceOnUse" />
    <linearGradient
       xlink:href="#Main-6"
       id="linearGradient2348"
       x1="17.991667"
       y1="16.008026"
       x2="20.108334"
       y2="16.008026"
       gradientUnits="userSpaceOnUse" />
    <linearGradient
       xlink:href="#Main-6"
       id="linearGradient2350"
       x1="20.108332"
       y1="13.62678"
       x2="22.224998"
       y2="13.62678"
       gradientUnits="userSpaceOnUse" />
    <linearGradient
       xlink:href="#Main-6"
       id="linearGradient2352"
       x1="20.108332"
       y1="16.008026"
       x2="22.224998"
       y2="16.008026"
       gradientUnits="userSpaceOnUse" />
    <linearGradient
       xlink:href="#Main-6"
       id="linearGradient2354"
       x1="20.108332"
       y1="15.478861"
       x2="22.224998"
       y2="15.478861"
       gradientUnits="userSpaceOnUse" />
  </defs>
  <g
     id="book"
     style="display:inline"
     transform="matrix(3.7795278,0,0,3.7795278,-67.999998,-48.000002)">
    <path
       id="path1701"
       style="font-variation-settings:normal;opacity:1;vector-effect:none;fill:url(#linearGradient2338);fill-opacity:1;stroke:none;stroke-width:0.264583px;stroke-linecap:butt;stroke-linejoin:miter;stroke-miterlimit:4;stroke-dasharray:none;stroke-dashoffset:0;stroke-opacity:1;stop-color:#000000;stop-opacity:1"
       d="m 20.108334,13.493751 h -0.264583 c -0.631361,-0.523199 -1.676055,-0.176816 -1.852084,0.264583 l 0.04547,0.264583 c 0.176029,-0.441399 1.167806,-0.797084 1.806609,-0.264583 h 0.264583 z" />
    <rect
       style="font-variation-settings:normal;opacity:1;vector-effect:none;fill:url(#linearGradient2340);fill-opacity:1;stroke:none;stroke-width:0.264583px;stroke-linecap:butt;stroke-linejoin:miter;stroke-miterlimit:4;stroke-dasharray:none;stroke-dashoffset:0;stroke-opacity:1;stop-color:#000000;stop-opacity:1"
       id="rect1714"
       width="0.5291667"
       height="2.3812501"
       x="19.84375"
       y="13.626042" />
    <rect
       style="font-variation-settings:normal;opacity:1;vector-effect:none;fill:url(#linearGradient2342);fill-opacity:1;stroke:none;stroke-width:0.264583px;stroke-linecap:butt;stroke-linejoin:miter;stroke-miterlimit:4;stroke-dasharray:none;stroke-dashoffset:0;stroke-opacity:1;stop-color:#000000;stop-opacity:1"
       id="rect1716"
       width="0.26458335"
       height="2.3812501"
       x="17.991667"
       y="13.758333" />
    <rect
       style="font-variation-settings:normal;opacity:1;vector-effect:none;fill:url(#linearGradient2344);fill-opacity:1;stroke:none;stroke-width:0.264583px;stroke-linecap:butt;stroke-linejoin:miter;stroke-miterlimit:4;stroke-dasharray:none;stroke-dashoffset:0;stroke-opacity:1;stop-color:#000000;stop-opacity:1"
       id="rect1718"
       width="0.26458335"
       height="2.3812501"
       x="21.960417"
       y="13.758333" />
    <path
       id="path1736"
       style="font-variation-settings:normal;opacity:1;vector-effect:none;fill:url(#linearGradient2346);fill-opacity:1;stroke:none;stroke-width:0.264583px;stroke-linecap:butt;stroke-linejoin:miter;stroke-miterlimit:4;stroke-dasharray:none;stroke-dashoffset:0;stroke-opacity:1;stop-color:#000000;stop-opacity:1"
       d="m 20.108334,15.345832 h -0.264583 c -0.631361,-0.523199 -1.676055,-0.176816 -1.852084,0.264583 l 0.04547,0.264583 c 0.176029,-0.441399 1.167806,-0.797084 1.806609,-0.264583 h 0.264583 z" />
    <path
       id="path1738"
       style="font-variation-settings:normal;opacity:1;vector-effect:none;fill:url(#linearGradient2348);fill-opacity:1;stroke:none;stroke-width:0.264583px;stroke-linecap:butt;stroke-linejoin:miter;stroke-miterlimit:4;stroke-dasharray:none;stroke-dashoffset:0;stroke-opacity:1;stop-color:#000000;stop-opacity:1"
       d="m 20.108334,15.874998 h -0.264583 c -0.631361,-0.523199 -1.676055,-0.176816 -1.852084,0.264583 l 0.04547,0.264583 c 0.176029,-0.441399 1.167806,-0.797084 1.806609,-0.264583 h 0.264583 z" />
    <path
       id="path1740"
       style="font-variation-settings:normal;opacity:1;vector-effect:none;fill:url(#linearGradient2350);fill-opacity:1;stroke:none;stroke-width:0.264583px;stroke-linecap:butt;stroke-linejoin:miter;stroke-miterlimit:4;stroke-dasharray:none;stroke-dashoffset:0;stroke-opacity:1;stop-color:#000000;stop-opacity:1"
       d="m 20.108331,13.493751 h 0.264583 c 0.631361,-0.523199 1.676055,-0.176816 1.852084,0.264583 l -0.04547,0.264583 c -0.176029,-0.441399 -1.167806,-0.797084 -1.806609,-0.264583 h -0.264583 z" />
    <path
       id="path1742"
       style="font-variation-settings:normal;opacity:1;vector-effect:none;fill:url(#linearGradient2352);fill-opacity:1;stroke:none;stroke-width:0.264583px;stroke-linecap:butt;stroke-linejoin:miter;stroke-miterlimit:4;stroke-dasharray:none;stroke-dashoffset:0;stroke-opacity:1;stop-color:#000000;stop-opacity:1"
       d="m 20.108331,15.874998 h 0.264583 c 0.631361,-0.523199 1.676055,-0.176816 1.852084,0.264583 l -0.04547,0.264583 C 22.003499,15.962765 21.011722,15.60708 20.372919,16.139581 h -0.264583 z" />
    <path
       id="path1744"
       style="font-variation-settings:normal;opacity:1;vector-effect:none;fill:url(#linearGradient2354);fill-opacity:1;stroke:none;stroke-width:0.264583px;stroke-linecap:butt;stroke-linejoin:miter;stroke-miterlimit:4;stroke-dasharray:none;stroke-dashoffset:0;stroke-opacity:1;stop-color:#000000;stop-opacity:1"
       d="m 20.108331,15.345832 h 0.264583 c 0.631361,-0.523199 1.676055,-0.176816 1.852084,0.264583 l -0.04547,0.264583 c -0.176029,-0.441399 -1.167806,-0.797084 -1.806609,-0.264583 h -0.264583 z" />
  </g>
</svg>
