<?xml version="1.0" encoding="UTF-8" standalone="no"?>
<!-- Created with Inkscape (http://www.inkscape.org/) -->

<svg
   width="48pt"
   height="48pt"
   viewBox="0 0 16.933333 16.933333"
   version="1.1"
   id="svg1"
   xmlns="http://www.w3.org/2000/svg"
   xmlns:svg="http://www.w3.org/2000/svg">
  <defs
     id="defs1">
    <linearGradient
       id="Main">
      <stop
         style="stop-color:#4d4d4d;stop-opacity:1;"
         offset="0"
         id="stop2082" />
    </linearGradient>
  </defs>
  <g
     transform="matrix(0.01348304,5.4290978e-4,-5.4290978e-4,0.01348304,-8.3169871,11.902656)"
     id="g3861"
     style="fill:#4d4d4d;fill-opacity:1;stroke:#808080;stroke-width:7.41072;stroke-dasharray:none;stroke-opacity:1">
    <path
       style="fill:#4d4d4d;fill-opacity:1;stroke:#808080;stroke-width:14.1112;stroke-dasharray:none;stroke-opacity:1"
       d="m 1223.0877,970.60693 c 3.4659,1.1301 69.3268,-132.17231 0.01,1.65348 22.4324,7.9982 57.8129,20.83702 84.2736,35.72149 31.47,17.7026 95.0975,62.919 130.2191,93.4513 159.6062,-258.85749 217.7622,-402.8573 250.8816,-481.45696 1.4672,-3.6726 -10.6381,-224.03518 -7.9288,-242.38296 0.1439,-0.97479 -4.636,-160.00618 -6.6178,-156.89403 -183.2275,287.73306 -308.4059,492.56152 -450.8377,749.90768 z m -18.5993,36.81547 c -10.343,-2.1435 -12.6893,2.7546 -14.3902,6.9154 -54.017,132.1446 -235.98278,450.7428 -258.39341,511.235 42.95377,6.6425 123.61141,56.0901 148.18501,89.6848 41.8408,-48.8743 238.2435,-354.2773 326.9039,-464.9703 3.3794,-4.2192 7.1429,-9.3124 11.2187,-15.1876 -31.8717,-28.1815 -90.6253,-67.9585 -118.9834,-84.5388 -27.4402,-16.0436 -52.8034,-27.3693 -75.3438,-35.4062 -5.3875,-1.921 -14.1678,-6.1689 -19.1968,-7.7323 z"
       id="path3021"
       transform="matrix(0.52516433,0,0,0.52516433,961.78994,-828.86591)" />
    <g
       id="g3795"
       style="fill:#4d4d4d;fill-opacity:1;stroke:#808080;stroke-width:7.41072;stroke-dasharray:none;stroke-opacity:1">
      <path
         id="path3793"
         d="m 1432.3282,180.29088 c -0.3954,-0.0244 -0.6929,-0.0105 -1.091,-0.0361 -3.8526,-0.2484 -7.8422,-0.56196 -11.8738,-0.94553 -4.0316,-0.38357 -8.1046,-0.83644 -12.1828,-1.38194 -4.0783,-0.5455 -8.1539,-1.17502 -12.1465,-1.90928 -3.9927,-0.73421 -7.9173,-1.57768 -11.692,-2.52747 -3.7746,-0.94978 -7.3947,-2.0082 -10.8191,-3.20027 -1.7122,-0.59601 -3.3824,-1.22943 -4.9822,-1.89108 -1.5999,-0.66164 -3.1295,-1.36052 -4.6004,-2.09106 -1.4709,-0.73059 -2.8749,-1.48824 -4.2004,-2.29116 -1.3254,-0.80286 -2.5823,-1.64896 -3.7458,-2.52747 -1.1634,-0.8785 -2.2335,-1.78819 -3.2184,-2.74566 -0.9849,-0.95752 -1.8831,-1.96043 -2.673,-3.00029 -0.7898,-1.03985 -1.4765,-2.12929 -2.0547,-3.25479 -0.5782,-1.12557 -1.0501,-2.29484 -1.4001,-3.50943 -0.3501,-1.21459 -0.5856,-2.47515 -0.691,-3.78214 -0.1054,-1.307 -0.083,-2.65216 0.073,-4.05487 0.1559,-1.40277 0.2212,-2.7861 0.1819,-4.12766 -0.039,-1.34156 -0.1778,-2.64605 -0.4001,-3.92761 -0.2222,-1.28157 -0.5345,-2.5231 -0.9273,-3.74578 -0.3929,-1.22268 -0.8671,-2.41726 -1.4183,-3.58216 -0.5512,-1.16484 -1.1757,-2.31025 -1.8729,-3.41847 -0.6973,-1.10817 -1.4601,-2.18399 -2.2911,-3.23659 -0.8311,-1.05266 -1.7386,-2.07483 -2.6912,-3.07302 -0.9525,-0.9982 -1.9566,-1.98266 -3.0184,-2.92756 -1.0618,-0.94484 -2.1688,-1.85296 -3.3276,-2.74566 -1.1587,-0.8927 -2.375,-1.75864 -3.6185,-2.6002 -0.5162,-0.34947 -1.1071,-0.64116 -1.6365,-0.98196 -18.7596,41.685 -48.6658,67.50321 -110.1368,78.95234 -10.0671,1.87502 -6.7445,14.14668 0,14.14662 72.5797,0 156.074,-0.34097 218.4553,-19.58348 z"
         style="fill:#4d4d4d;fill-opacity:1;stroke:#808080;stroke-width:8.21086;stroke-dasharray:none;stroke-opacity:1" />
      <path
         id="path3849"
         d="m 1430.619,-12.707633 c -45.8854,0 -84.0461,33.091677 -91.8989,76.715697 -4.2316,15.792726 -8.9665,30.004108 -14.7104,42.767336 0.5294,0.3408 1.1203,0.63249 1.6365,0.98196 1.2435,0.84156 2.4598,1.7075 3.6185,2.6002 1.1588,0.8927 2.2658,1.80082 3.3276,2.74566 1.0618,0.9449 2.0659,1.92936 3.0184,2.92756 0.9526,0.99819 1.8601,2.02036 2.6912,3.07302 0.831,1.0526 1.5938,2.12842 2.2911,3.23658 0.6972,1.10823 1.3217,2.25364 1.8729,3.41848 0.5512,1.1649 1.0254,2.35948 1.4183,3.58216 0.3928,1.22268 0.7051,2.46421 0.9273,3.74578 0.2223,1.28156 0.3607,2.58605 0.4001,3.92761 0.039,1.34156 -0.026,2.72489 -0.1819,4.12766 -0.1558,1.40271 -0.1781,2.74787 -0.073,4.05487 0.1054,1.30699 0.3409,2.56755 0.691,3.78214 0.35,1.21459 0.8219,2.38386 1.4001,3.50942 0.5782,1.12551 1.2649,2.21495 2.0547,3.2548 0.7899,1.03986 1.6881,2.04277 2.673,3.00029 0.9849,0.95747 2.055,1.86716 3.2184,2.74566 1.1635,0.87851 2.4204,1.7246 3.7458,2.52747 1.3255,0.80292 2.7295,1.56057 4.2004,2.29116 1.4709,0.73054 3.0005,1.42942 4.6004,2.09106 1.5998,0.66165 3.27,1.29507 4.9822,1.89108 3.4244,1.19207 7.0445,2.25049 10.8191,3.20027 3.7747,0.94979 7.6993,1.79326 11.692,2.52746 3.9926,0.73426 8.0682,1.36379 12.1465,1.90929 4.0782,0.5455 8.1512,0.99837 12.1828,1.38194 4.0316,0.38356 8.0212,0.69713 11.8738,0.94553 0.3981,0.0256 0.6956,0.0122 1.091,0.0361 35.9837,-11.09972 64.9673,-28.45453 80.7161,-55.73206 6.9768,-13.08128 10.9282,-28.03414 10.9282,-43.89477 0,-51.568563 -41.7849,-93.371684 -93.3535,-93.371684 z"
         style="fill:#4d4d4d;fill-opacity:1;stroke:#808080;stroke-width:8.21086;stroke-dasharray:none;stroke-opacity:1" />
    </g>
    <rect
       style="fill:none;fill-opacity:1;stroke:#4d4d4d;stroke-width:24.154;stroke-dasharray:none;stroke-opacity:1"
       id="rect4"
       width="551.00012"
       height="551.00012"
       x="759.14246"
       y="-686.99188"
       transform="rotate(-2.3058334)" />
  </g>
</svg>
