<?xml version="1.0" encoding="UTF-8" standalone="no"?>
<svg
   version="1.0"
   width="16.000000pt"
   height="16.000000pt"
   viewBox="0 0 16.000000 16.000000"
   preserveAspectRatio="xMidYMid meet"
   id="svg2"
   xmlns:xlink="http://www.w3.org/1999/xlink"
   xmlns="http://www.w3.org/2000/svg"
   xmlns:svg="http://www.w3.org/2000/svg">
  <defs
     id="defs2">
    <linearGradient
       id="Main">
      <stop
         style="stop-color:#000000;stop-opacity:1;"
         offset="0"
         id="stop2082" />
    </linearGradient>
    <linearGradient
       id="Red">
      <stop
         style="stop-color:#ff664d;stop-opacity:1;"
         offset="0"
         id="stop2533" />
    </linearGradient>
    <mask
       maskUnits="userSpaceOnUse"
       id="mask-powermask-path-effect3119">
      <path
         id="path3117"
         style="opacity:1;fill:#000000;stroke:none;stroke-width:0.264583px;stroke-linecap:butt;stroke-linejoin:miter;stroke-opacity:1"
         d="m 10.250537,66.995394 -0.0047,0.0047 c -0.02767,-0.0066 -0.211799,-0.04039 -0.4563028,0.204116 C 9.6572915,67.468749 9.6572915,67.468749 9.5249999,67.49562 9.3927082,67.468749 9.3927082,67.468749 9.2604165,67.204166 9.061979,67.005731 8.8982935,66.990872 8.8289184,66.99591 c -0.023124,0.0016 -0.035657,0.0057 -0.035657,0.0057 0,0 -0.062009,0.20257 0.2025716,0.467154 0.2645833,0.132291 0.2645841,0.132291 0.291455,0.264583 -0.026871,0.132292 -0.026872,0.132292 -0.291455,0.264583 -0.2445017,0.244505 -0.2107512,0.428639 -0.2041218,0.456304 l -0.00465,0.0047 c 0,0 0.00465,2.65e-4 0.00517,5.29e-4 1.736e-4,5.3e-4 0.00103,0.0057 0.00103,0.0057 l 0.00465,-0.0047 c 0.027721,0.0066 0.2118445,0.04033 0.4563028,-0.204123 0.1322919,-0.264584 0.1322919,-0.264584 0.2645833,-0.291455 0.1322919,0.02687 0.1322917,0.02687 0.2645833,0.291455 0.1984378,0.198435 0.3621234,0.213294 0.4314984,0.208256 0.02312,-0.0016 0.03566,-0.0057 0.03566,-0.0057 0,0 0.06201,-0.20257 -0.202572,-0.467156 -0.2645836,-0.132289 -0.2645839,-0.132291 -0.291455,-0.264583 0.026871,-0.132279 0.026873,-0.132292 0.291455,-0.264583 0.244502,-0.244505 0.210752,-0.428639 0.204122,-0.456304 l 0.0047,-0.0047 c 0,0 -0.0046,-7.94e-4 -0.0052,-0.0011 -1.47e-4,-5.29e-4 -10e-4,-0.0052 -10e-4,-0.0052 z" />
    </mask>
    <linearGradient
       id="Main-6">
      <stop
         style="stop-color:#4d4d4d;stop-opacity:1;"
         offset="0"
         id="stop2082-3" />
    </linearGradient>
    <linearGradient
       id="Green"
       gradientTransform="scale(3.7795276)">
      <stop
         style="stop-color:#66ff7a;stop-opacity:1;"
         offset="0"
         id="stop2506" />
    </linearGradient>
    <mask
       maskUnits="userSpaceOnUse"
       id="mask-powermask-path-effect1741">
      <path
         id="path1739"
         style="font-variation-settings:normal;opacity:1;vector-effect:none;fill:#000000;fill-opacity:0.992157;stroke:none;stroke-width:0.264583;stroke-linecap:butt;stroke-linejoin:miter;stroke-miterlimit:4;stroke-dasharray:none;stroke-dashoffset:0;stroke-opacity:1;marker:none;paint-order:fill markers stroke;stop-color:#000000;stop-opacity:1"
         d="m 20.095414,60.589583 a 0.52916663,0.52916663 0 0 0 -0.516248,0.529166 0.52916663,0.52916663 0 0 0 0.529167,0.529167 0.52916663,0.52916663 0 0 0 0.529167,-0.529167 0.52916663,0.52916663 0 0 0 -0.529167,-0.529166 0.52916663,0.52916663 0 0 0 -0.01292,0 z m -1.058333,2.116666 A 0.52916663,0.52916663 0 0 0 18.520833,63.235416 0.52916663,0.52916663 0 0 0 19.05,63.764583 0.52916663,0.52916663 0 0 0 19.579166,63.235416 0.52916663,0.52916663 0 0 0 19.05,62.706249 a 0.52916663,0.52916663 0 0 0 -0.01292,0 z m 2.116666,0 a 0.52916663,0.52916663 0 0 0 -0.516247,0.529167 0.52916663,0.52916663 0 0 0 0.529166,0.529167 0.52916663,0.52916663 0 0 0 0.529167,-0.529167 0.52916663,0.52916663 0 0 0 -0.529167,-0.529167 0.52916663,0.52916663 0 0 0 -0.01292,0 z" />
    </mask>
    <linearGradient
       xlink:href="#Main-6"
       id="linearGradient2220"
       x1="17.991667"
       y1="62.44165"
       x2="22.224998"
       y2="62.44165"
       gradientUnits="userSpaceOnUse" />
    <mask
       maskUnits="userSpaceOnUse"
       id="mask-powermask-path-effect1741-0">
      <path
         id="mask-powermask-path-effect1741_box"
         style="fill:#ffffff;fill-opacity:1"
         d="m 16.991666,59.324974 h 6.233333 v 6.233352 h -6.233333 z" />
      <path
         id="path1739-0"
         style="font-variation-settings:normal;opacity:1;vector-effect:none;fill:#000000;fill-opacity:0.992157;stroke:none;stroke-width:0.264583;stroke-linecap:butt;stroke-linejoin:miter;stroke-miterlimit:4;stroke-dasharray:none;stroke-dashoffset:0;stroke-opacity:1;marker:none;paint-order:fill markers stroke;stop-color:#000000;stop-opacity:1"
         d="m 20.095414,60.589583 a 0.52916663,0.52916663 0 0 0 -0.516248,0.529166 0.52916663,0.52916663 0 0 0 0.529167,0.529167 0.52916663,0.52916663 0 0 0 0.529167,-0.529167 0.52916663,0.52916663 0 0 0 -0.529167,-0.529166 0.52916663,0.52916663 0 0 0 -0.01292,0 z m -1.058333,2.116666 A 0.52916663,0.52916663 0 0 0 18.520833,63.235416 0.52916663,0.52916663 0 0 0 19.05,63.764583 0.52916663,0.52916663 0 0 0 19.579166,63.235416 0.52916663,0.52916663 0 0 0 19.05,62.706249 a 0.52916663,0.52916663 0 0 0 -0.01292,0 z m 2.116666,0 a 0.52916663,0.52916663 0 0 0 -0.516247,0.529167 0.52916663,0.52916663 0 0 0 0.529166,0.529167 0.52916663,0.52916663 0 0 0 0.529167,-0.529167 0.52916663,0.52916663 0 0 0 -0.529167,-0.529167 0.52916663,0.52916663 0 0 0 -0.01292,0 z" />
    </mask>
    <filter
       id="mask-powermask-path-effect1741_inverse"
       style="color-interpolation-filters:sRGB"
       height="100"
       width="100"
       x="-50"
       y="-50">
      <feColorMatrix
         id="mask-powermask-path-effect1741_primitive1"
         values="1"
         type="saturate"
         result="fbSourceGraphic" />
      <feColorMatrix
         id="mask-powermask-path-effect1741_primitive2"
         values="-1 0 0 0 1 0 -1 0 0 1 0 0 -1 0 1 0 0 0 1 0 "
         in="fbSourceGraphic" />
    </filter>
    <mask
       maskUnits="userSpaceOnUse"
       id="mask-powermask-path-effect1741-7">
      <path
         id="mask-powermask-path-effect1741-7_box"
         style="fill:#ffffff;fill-opacity:1"
         d="m 16.991666,59.324974 h 6.233333 v 6.233352 h -6.233333 z" />
      <path
         id="path1"
         style="fill:#ffffff;fill-opacity:1"
         d="m 16.991666,59.324974 h 6.233333 v 6.233352 h -6.233333 z" />
      <path
         id="path2"
         style="font-variation-settings:normal;opacity:1;vector-effect:none;fill:#000000;fill-opacity:0.992157;stroke:none;stroke-width:0.264583;stroke-linecap:butt;stroke-linejoin:miter;stroke-miterlimit:4;stroke-dasharray:none;stroke-dashoffset:0;stroke-opacity:1;marker:none;paint-order:fill markers stroke;stop-color:#000000;stop-opacity:1"
         d="m 20.095414,60.589583 a 0.52916663,0.52916663 0 0 0 -0.516248,0.529166 0.52916663,0.52916663 0 0 0 0.529167,0.529167 0.52916663,0.52916663 0 0 0 0.529167,-0.529167 0.52916663,0.52916663 0 0 0 -0.529167,-0.529166 0.52916663,0.52916663 0 0 0 -0.01292,0 z m -1.058333,2.116666 A 0.52916663,0.52916663 0 0 0 18.520833,63.235416 0.52916663,0.52916663 0 0 0 19.05,63.764583 0.52916663,0.52916663 0 0 0 19.579166,63.235416 0.52916663,0.52916663 0 0 0 19.05,62.706249 a 0.52916663,0.52916663 0 0 0 -0.01292,0 z m 2.116666,0 a 0.52916663,0.52916663 0 0 0 -0.516247,0.529167 0.52916663,0.52916663 0 0 0 0.529166,0.529167 0.52916663,0.52916663 0 0 0 0.529167,-0.529167 0.52916663,0.52916663 0 0 0 -0.529167,-0.529167 0.52916663,0.52916663 0 0 0 -0.01292,0 z" />
    </mask>
    <filter
       id="mask-powermask-path-effect1741-7_inverse"
       style="color-interpolation-filters:sRGB"
       height="100"
       width="100"
       x="-50"
       y="-50">
      <feColorMatrix
         id="mask-powermask-path-effect1741-7_primitive1"
         values="1"
         type="saturate"
         result="fbSourceGraphic" />
      <feColorMatrix
         id="mask-powermask-path-effect1741-7_primitive2"
         values="-1 0 0 0 1 0 -1 0 0 1 0 0 -1 0 1 0 0 0 1 0 "
         in="fbSourceGraphic" />
    </filter>
    <linearGradient
       xlink:href="#Main-6"
       id="linearGradient2"
       gradientUnits="userSpaceOnUse"
       x1="17.991667"
       y1="62.44165"
       x2="22.224998"
       y2="62.44165" />
    <linearGradient
       xlink:href="#Main-6"
       id="linearGradient3"
       gradientUnits="userSpaceOnUse"
       x1="17.991667"
       y1="62.44165"
       x2="22.224998"
       y2="62.44165" />
    <linearGradient
       xlink:href="#Main-6"
       id="linearGradient4"
       gradientUnits="userSpaceOnUse"
       x1="17.991667"
       y1="62.44165"
       x2="22.224998"
       y2="62.44165" />
  </defs>
  <g
     id="class"
     transform="matrix(3.7795269,0,0,3.7795061,-67.999981,-147.99907)"
     style="display:inline">
    <g
       id="g1724"
       mask="url(#mask-powermask-path-effect1741-7)"
       transform="translate(0,-21.166665)"
       style="font-variation-settings:normal;opacity:1;vector-effect:none;fill:url(#linearGradient2220);fill-opacity:1;stroke:none;stroke-width:0.264583px;stroke-linecap:butt;stroke-linejoin:miter;stroke-miterlimit:4;stroke-dasharray:none;stroke-dashoffset:0;stroke-opacity:1;stop-color:#000000;stop-opacity:1">
      <path
         id="path843"
         style="font-variation-settings:normal;opacity:1;vector-effect:none;fill:url(#linearGradient2);fill-opacity:1;stroke:none;stroke-width:0.264583px;stroke-linecap:butt;stroke-linejoin:miter;stroke-miterlimit:4;stroke-dasharray:none;stroke-dashoffset:0;stroke-opacity:1;stop-color:#000000;stop-opacity:1"
         d="m 20.108333,60.324994 a 2.1166666,2.1166666 0 0 0 -2.116667,2.116667 2.1166666,2.1166666 0 0 0 2.116667,2.116665 2.1166666,2.1166666 0 0 0 2.116666,-2.116665 2.1166666,2.1166666 0 0 0 -2.116666,-2.116667 z m -0.02479,0.264583 a 1.8520806,1.8520806 0 0 1 0.02479,0 1.8520806,1.8520806 0 0 1 1.852082,1.852084 1.8520806,1.8520806 0 0 1 -1.852082,1.852083 1.8520806,1.8520806 0 0 1 -1.852084,-1.852083 1.8520806,1.8520806 0 0 1 1.827279,-1.852084 z" />
      <path
         id="path850"
         style="font-variation-settings:normal;opacity:1;vector-effect:none;fill:url(#Main-6);fill-opacity:1;stroke:none;stroke-width:0.264583px;stroke-linecap:butt;stroke-linejoin:miter;stroke-miterlimit:4;stroke-dasharray:none;stroke-dashoffset:0;stroke-opacity:1;stop-color:#000000;stop-opacity:1"
         d="m 20.108333,60.854161 a 1.5875,1.5875 0 0 0 -1.5875,1.5875 1.5875,1.5875 0 0 0 1.5875,1.587499 1.5875,1.5875 0 0 0 1.587499,-1.587499 1.5875,1.5875 0 0 0 -1.587499,-1.5875 z m 5.29e-4,0.264583 a 1.3235013,1.3229139 0 0 1 1.323435,1.322917 1.3235013,1.3229139 0 0 1 -1.323435,1.322916 1.3235013,1.3229139 0 0 1 -1.323433,-1.322916 1.3235013,1.3229139 0 0 1 1.323433,-1.322917 z" />
      <path
         id="path860"
         style="font-variation-settings:normal;opacity:1;vector-effect:none;fill:url(#linearGradient3);fill-opacity:1;stroke:none;stroke-width:0.264583px;stroke-linecap:butt;stroke-linejoin:miter;stroke-miterlimit:4;stroke-dasharray:none;stroke-dashoffset:0;stroke-opacity:1;stop-color:#000000;stop-opacity:1"
         d="m 20.094895,60.325002 a 0.79375,0.79375 0 0 0 -0.780315,0.79375 0.79375,0.79375 0 0 0 0.79375,0.79375 0.79375,0.79375 0 0 0 0.793749,-0.79375 0.79375,0.79375 0 0 0 -0.793749,-0.79375 0.79375,0.79375 0 0 0 -0.01344,0 z m 5.29e-4,0.264584 a 0.52916664,0.52916664 0 0 1 0.01291,0 0.52916664,0.52916664 0 0 1 0.529166,0.529166 0.52916664,0.52916664 0 0 1 -0.529166,0.529167 0.52916664,0.52916664 0 0 1 -0.529167,-0.529167 0.52916664,0.52916664 0 0 1 0.516247,-0.529166 z"
         mask="none" />
      <path
         id="path867"
         style="font-variation-settings:normal;opacity:1;vector-effect:none;fill:url(#Main-6);fill-opacity:1;stroke:none;stroke-width:0.264583px;stroke-linecap:butt;stroke-linejoin:miter;stroke-miterlimit:4;stroke-dasharray:none;stroke-dashoffset:0;stroke-opacity:1;stop-color:#000000;stop-opacity:1"
         d="m 19.036561,62.441668 a 0.79375,0.79375 0 0 0 -0.780315,0.793749 0.79375,0.79375 0 0 0 0.79375,0.79375 0.79375,0.79375 0 0 0 0.79375,-0.79375 0.79375,0.79375 0 0 0 -0.79375,-0.793749 0.79375,0.79375 0 0 0 -0.01344,0 z m 5.29e-4,0.264584 a 0.52916664,0.52916664 0 0 1 0.01291,0 0.52916664,0.52916664 0 0 1 0.529166,0.529165 A 0.52916664,0.52916664 0 0 1 19.05,63.764584 0.52916664,0.52916664 0 0 1 18.520833,63.235417 0.52916664,0.52916664 0 0 1 19.03708,62.706252 Z" />
      <path
         id="path869"
         style="font-variation-settings:normal;opacity:1;vector-effect:none;fill:url(#linearGradient4);fill-opacity:1;stroke:none;stroke-width:0.264583px;stroke-linecap:butt;stroke-linejoin:miter;stroke-miterlimit:4;stroke-dasharray:none;stroke-dashoffset:0;stroke-opacity:1;stop-color:#000000;stop-opacity:1"
         d="m 21.153232,62.441668 a 0.79375,0.79375 0 0 0 -0.780314,0.793749 0.79375,0.79375 0 0 0 0.793749,0.79375 0.79375,0.79375 0 0 0 0.79375,-0.79375 0.79375,0.79375 0 0 0 -0.79375,-0.793749 0.79375,0.79375 0 0 0 -0.01344,0 z m 5.3e-4,0.264584 a 0.52916664,0.52916664 0 0 1 0.01291,0 0.52916664,0.52916664 0 0 1 0.529166,0.529165 0.52916664,0.52916664 0 0 1 -0.529166,0.529167 0.52916664,0.52916664 0 0 1 -0.529167,-0.529167 0.52916664,0.52916664 0 0 1 0.516247,-0.529165 z" />
    </g>
  </g>
</svg>
