<?xml version="1.0" encoding="UTF-8" standalone="no"?>
<svg
   version="1.0"
   width="16.000000pt"
   height="16.000000pt"
   viewBox="0 0 16.000000 16.000000"
   preserveAspectRatio="xMidYMid meet"
   id="svg2"
   xmlns:xlink="http://www.w3.org/1999/xlink"
   xmlns="http://www.w3.org/2000/svg"
   xmlns:svg="http://www.w3.org/2000/svg">
  <defs
     id="defs2">
    <linearGradient
       id="Main">
      <stop
         style="stop-color:#000000;stop-opacity:1;"
         offset="0"
         id="stop2082" />
    </linearGradient>
    <linearGradient
       id="Red">
      <stop
         style="stop-color:#ff664d;stop-opacity:1;"
         offset="0"
         id="stop2533" />
    </linearGradient>
    <mask
       maskUnits="userSpaceOnUse"
       id="mask-powermask-path-effect3119">
      <path
         id="path3117"
         style="opacity:1;fill:#000000;stroke:none;stroke-width:0.264583px;stroke-linecap:butt;stroke-linejoin:miter;stroke-opacity:1"
         d="m 10.250537,66.995394 -0.0047,0.0047 c -0.02767,-0.0066 -0.211799,-0.04039 -0.4563028,0.204116 C 9.6572915,67.468749 9.6572915,67.468749 9.5249999,67.49562 9.3927082,67.468749 9.3927082,67.468749 9.2604165,67.204166 9.061979,67.005731 8.8982935,66.990872 8.8289184,66.99591 c -0.023124,0.0016 -0.035657,0.0057 -0.035657,0.0057 0,0 -0.062009,0.20257 0.2025716,0.467154 0.2645833,0.132291 0.2645841,0.132291 0.291455,0.264583 -0.026871,0.132292 -0.026872,0.132292 -0.291455,0.264583 -0.2445017,0.244505 -0.2107512,0.428639 -0.2041218,0.456304 l -0.00465,0.0047 c 0,0 0.00465,2.65e-4 0.00517,5.29e-4 1.736e-4,5.3e-4 0.00103,0.0057 0.00103,0.0057 l 0.00465,-0.0047 c 0.027721,0.0066 0.2118445,0.04033 0.4563028,-0.204123 0.1322919,-0.264584 0.1322919,-0.264584 0.2645833,-0.291455 0.1322919,0.02687 0.1322917,0.02687 0.2645833,0.291455 0.1984378,0.198435 0.3621234,0.213294 0.4314984,0.208256 0.02312,-0.0016 0.03566,-0.0057 0.03566,-0.0057 0,0 0.06201,-0.20257 -0.202572,-0.467156 -0.2645836,-0.132289 -0.2645839,-0.132291 -0.291455,-0.264583 0.026871,-0.132279 0.026873,-0.132292 0.291455,-0.264583 0.244502,-0.244505 0.210752,-0.428639 0.204122,-0.456304 l 0.0047,-0.0047 c 0,0 -0.0046,-7.94e-4 -0.0052,-0.0011 -1.47e-4,-5.29e-4 -10e-4,-0.0052 -10e-4,-0.0052 z" />
    </mask>
    <linearGradient
       id="Main-6">
      <stop
         style="stop-color:#4d4d4d;stop-opacity:1;"
         offset="0"
         id="stop2082-3" />
    </linearGradient>
    <linearGradient
       id="Green"
       gradientTransform="scale(3.7795276)">
      <stop
         style="stop-color:#66ff7a;stop-opacity:1;"
         offset="0"
         id="stop2506" />
    </linearGradient>
    <mask
       maskUnits="userSpaceOnUse"
       id="mask-powermask-path-effect1741">
      <path
         id="path1739"
         style="font-variation-settings:normal;opacity:1;vector-effect:none;fill:#000000;fill-opacity:0.992157;stroke:none;stroke-width:0.264583;stroke-linecap:butt;stroke-linejoin:miter;stroke-miterlimit:4;stroke-dasharray:none;stroke-dashoffset:0;stroke-opacity:1;marker:none;paint-order:fill markers stroke;stop-color:#000000;stop-opacity:1"
         d="m 20.095414,60.589583 a 0.52916663,0.52916663 0 0 0 -0.516248,0.529166 0.52916663,0.52916663 0 0 0 0.529167,0.529167 0.52916663,0.52916663 0 0 0 0.529167,-0.529167 0.52916663,0.52916663 0 0 0 -0.529167,-0.529166 0.52916663,0.52916663 0 0 0 -0.01292,0 z m -1.058333,2.116666 A 0.52916663,0.52916663 0 0 0 18.520833,63.235416 0.52916663,0.52916663 0 0 0 19.05,63.764583 0.52916663,0.52916663 0 0 0 19.579166,63.235416 0.52916663,0.52916663 0 0 0 19.05,62.706249 a 0.52916663,0.52916663 0 0 0 -0.01292,0 z m 2.116666,0 a 0.52916663,0.52916663 0 0 0 -0.516247,0.529167 0.52916663,0.52916663 0 0 0 0.529166,0.529167 0.52916663,0.52916663 0 0 0 0.529167,-0.529167 0.52916663,0.52916663 0 0 0 -0.529167,-0.529167 0.52916663,0.52916663 0 0 0 -0.01292,0 z" />
    </mask>
    <linearGradient
       xlink:href="#Main-6"
       id="linearGradient2366"
       x1="33.866665"
       y1="15.339633"
       x2="38.099998"
       y2="15.339633"
       gradientUnits="userSpaceOnUse" />
    <linearGradient
       xlink:href="#Main-6"
       id="linearGradient2368"
       x1="34.131252"
       y1="15.742709"
       x2="37.835419"
       y2="15.742709"
       gradientUnits="userSpaceOnUse" />
    <linearGradient
       xlink:href="#Main-6"
       id="linearGradient2370"
       x1="35.454166"
       y1="14.948958"
       x2="35.71875"
       y2="14.948958"
       gradientUnits="userSpaceOnUse" />
    <linearGradient
       xlink:href="#Main-6"
       id="linearGradient2372"
       x1="36.247917"
       y1="14.948958"
       x2="36.512501"
       y2="14.948958"
       gradientUnits="userSpaceOnUse" />
    <linearGradient
       xlink:href="#Main-6"
       id="linearGradient2374"
       x1="35.58646"
       y1="13.626042"
       x2="36.380211"
       y2="13.626042"
       gradientUnits="userSpaceOnUse" />
    <linearGradient
       xlink:href="#Main-6"
       id="linearGradient2376"
       x1="34.660416"
       y1="13.758335"
       x2="35.189579"
       y2="13.758335"
       gradientUnits="userSpaceOnUse" />
    <linearGradient
       xlink:href="#Main-6"
       id="linearGradient2378"
       x1="36.777081"
       y1="13.758334"
       x2="37.306248"
       y2="13.758334"
       gradientUnits="userSpaceOnUse" />
    <linearGradient
       xlink:href="#Main-6"
       id="linearGradient2380"
       x1="34.131248"
       y1="13.75832"
       x2="35.718746"
       y2="13.75832"
       gradientUnits="userSpaceOnUse" />
    <linearGradient
       xlink:href="#Main-6"
       id="linearGradient2382"
       x1="36.247913"
       y1="13.75832"
       x2="37.835415"
       y2="13.75832"
       gradientUnits="userSpaceOnUse" />
  </defs>
  <g
     id="creature"
     style="display:inline"
     transform="matrix(3.7795202,0,0,3.7795278,-127.99974,-48.000002)">
    <path
       id="path1055"
       style="font-variation-settings:normal;opacity:1;vector-effect:none;fill:url(#linearGradient2366);fill-opacity:1;stroke:none;stroke-width:0.264583px;stroke-linecap:butt;stroke-linejoin:miter;stroke-miterlimit:4;stroke-dasharray:none;stroke-dashoffset:0;stroke-opacity:1;stop-color:#000000;stop-opacity:1"
       d="m 34.337953,14.010515 c -0.468809,0.463228 -0.471289,1.108824 -0.471289,1.518254 0,0.612415 0.731447,1.139982 1.5875,1.139982 h 1.058333 c 0.856053,0 1.5875,-0.527567 1.5875,-1.139982 0,-0.40943 -0.0025,-1.055026 -0.471289,-1.518254 l -0.202572,0.209806 c 0.357187,0.264171 0.409277,0.911565 0.409277,1.308448 0,0.47278 -0.688493,0.875398 -1.322916,0.875398 h -1.058333 c -0.634424,0 -1.322917,-0.402618 -1.322917,-0.875398 0,-0.396883 0.05209,-1.044277 0.409277,-1.308448 z" />
    <rect
       style="font-variation-settings:normal;opacity:1;vector-effect:none;fill:url(#linearGradient2368);fill-opacity:1;stroke:none;stroke-width:0.264583px;stroke-linecap:butt;stroke-linejoin:miter;stroke-miterlimit:4;stroke-dasharray:none;stroke-dashoffset:0;stroke-opacity:1;stop-color:#000000;stop-opacity:1"
       id="rect1057"
       width="3.7041667"
       height="0.26458335"
       x="34.131252"
       y="15.610417"
       rx="3.6718346e-17" />
    <rect
       style="font-variation-settings:normal;opacity:1;vector-effect:none;fill:url(#linearGradient2370);fill-opacity:1;stroke:none;stroke-width:0.264583px;stroke-linecap:butt;stroke-linejoin:miter;stroke-miterlimit:4;stroke-dasharray:none;stroke-dashoffset:0;stroke-opacity:1;stop-color:#000000;stop-opacity:1"
       id="rect1059"
       width="0.26458335"
       height="0.26458335"
       x="35.454166"
       y="14.816667"
       rx="3.6718346e-17" />
    <rect
       style="font-variation-settings:normal;opacity:1;vector-effect:none;fill:url(#linearGradient2372);fill-opacity:1;stroke:none;stroke-width:0.264583px;stroke-linecap:butt;stroke-linejoin:miter;stroke-miterlimit:4;stroke-dasharray:none;stroke-dashoffset:0;stroke-opacity:1;stop-color:#000000;stop-opacity:1"
       id="rect1061"
       width="0.26458335"
       height="0.26458335"
       x="36.247917"
       y="14.816667"
       rx="3.6718346e-17" />
    <rect
       style="font-variation-settings:normal;opacity:1;vector-effect:none;fill:url(#linearGradient2374);fill-opacity:1;stroke:none;stroke-width:0.264583px;stroke-linecap:butt;stroke-linejoin:miter;stroke-miterlimit:4;stroke-dasharray:none;stroke-dashoffset:0;stroke-opacity:1;stop-color:#000000;stop-opacity:1"
       id="rect1063"
       width="0.79375005"
       height="0.26458335"
       x="35.58646"
       y="13.493751"
       rx="3.6718346e-17" />
    <path
       id="rect1065"
       style="font-variation-settings:normal;opacity:1;vector-effect:none;fill:url(#linearGradient2376);fill-opacity:1;stroke:none;stroke-width:0.264583px;stroke-linecap:butt;stroke-linejoin:miter;stroke-miterlimit:4;stroke-dasharray:none;stroke-dashoffset:0;stroke-opacity:1;stop-color:#000000;stop-opacity:1"
       d="m 34.924997,13.493752 h 0.264583 v 0 0.529166 0 h -0.529166 v 0 0 -0.264584 c 0,-0.264583 0.264583,-0.264582 0.264583,-0.264582 z" />
    <path
       id="path1068"
       style="font-variation-settings:normal;opacity:1;vector-effect:none;fill:url(#linearGradient2378);fill-opacity:1;stroke:none;stroke-width:0.264583px;stroke-linecap:butt;stroke-linejoin:miter;stroke-miterlimit:4;stroke-dasharray:none;stroke-dashoffset:0;stroke-opacity:1;stop-color:#000000;stop-opacity:1"
       d="m 37.041663,13.493751 h 0.264584 v 0 0.529166 0 H 36.77708 v 0 0 -0.264584 c 0,-0.264583 0.264583,-0.264582 0.264583,-0.264582 z" />
    <path
       id="path1070"
       style="font-variation-settings:normal;opacity:1;vector-effect:none;fill:url(#linearGradient2380);fill-opacity:1;stroke:none;stroke-width:0.264583px;stroke-linecap:butt;stroke-linejoin:miter;stroke-miterlimit:4;stroke-dasharray:none;stroke-dashoffset:0;stroke-opacity:1;stop-color:#000000;stop-opacity:1"
       d="m 34.911561,12.964584 a 0.79375005,0.79375005 0 0 0 -0.780314,0.79375 0.79375005,0.79375005 0 0 0 0.79375,0.79375 0.79375005,0.79375005 0 0 0 0.79375,-0.79375 0.79375005,0.79375005 0 0 0 -0.79375,-0.79375 0.79375005,0.79375005 0 0 0 -0.01344,0 z m 5.16e-4,0.264583 a 0.52916671,0.52916671 0 0 1 0.01292,0 0.52916671,0.52916671 0 0 1 0.529167,0.529167 0.52916671,0.52916671 0 0 1 -0.529167,0.529167 0.52916671,0.52916671 0 0 1 -0.529167,-0.529167 0.52916671,0.52916671 0 0 1 0.516247,-0.529167 z" />
    <path
       id="path1077"
       style="font-variation-settings:normal;opacity:1;vector-effect:none;fill:url(#linearGradient2382);fill-opacity:1;stroke:none;stroke-width:0.264583px;stroke-linecap:butt;stroke-linejoin:miter;stroke-miterlimit:4;stroke-dasharray:none;stroke-dashoffset:0;stroke-opacity:1;stop-color:#000000;stop-opacity:1"
       d="m 37.028227,12.964584 a 0.79375005,0.79375005 0 0 0 -0.780313,0.79375 0.79375005,0.79375005 0 0 0 0.793749,0.79375 0.79375005,0.79375005 0 0 0 0.79375,-0.79375 0.79375005,0.79375005 0 0 0 -0.79375,-0.79375 0.79375005,0.79375005 0 0 0 -0.01344,0 z m 5.16e-4,0.264584 a 0.52916671,0.52916671 0 0 1 0.01292,0 0.52916671,0.52916671 0 0 1 0.529167,0.529166 0.52916671,0.52916671 0 0 1 -0.529167,0.529167 0.52916671,0.52916671 0 0 1 -0.529166,-0.529167 0.52916671,0.52916671 0 0 1 0.516246,-0.529166 z" />
  </g>
</svg>
