<?xml version="1.0" encoding="UTF-8" standalone="no"?>
<svg
   version="1.0"
   width="16.000000pt"
   height="16.000000pt"
   viewBox="0 0 16.000000 16.000000"
   preserveAspectRatio="xMidYMid meet"
   id="svg2"
   xmlns:xlink="http://www.w3.org/1999/xlink"
   xmlns="http://www.w3.org/2000/svg"
   xmlns:svg="http://www.w3.org/2000/svg">
  <defs
     id="defs2">
    <linearGradient
       id="Main">
      <stop
         style="stop-color:#000000;stop-opacity:1;"
         offset="0"
         id="stop2082" />
    </linearGradient>
    <linearGradient
       id="Red">
      <stop
         style="stop-color:#ff664d;stop-opacity:1;"
         offset="0"
         id="stop2533" />
    </linearGradient>
    <mask
       maskUnits="userSpaceOnUse"
       id="mask-powermask-path-effect3119">
      <path
         id="path3117"
         style="opacity:1;fill:#000000;stroke:none;stroke-width:0.264583px;stroke-linecap:butt;stroke-linejoin:miter;stroke-opacity:1"
         d="m 10.250537,66.995394 -0.0047,0.0047 c -0.02767,-0.0066 -0.211799,-0.04039 -0.4563028,0.204116 C 9.6572915,67.468749 9.6572915,67.468749 9.5249999,67.49562 9.3927082,67.468749 9.3927082,67.468749 9.2604165,67.204166 9.061979,67.005731 8.8982935,66.990872 8.8289184,66.99591 c -0.023124,0.0016 -0.035657,0.0057 -0.035657,0.0057 0,0 -0.062009,0.20257 0.2025716,0.467154 0.2645833,0.132291 0.2645841,0.132291 0.291455,0.264583 -0.026871,0.132292 -0.026872,0.132292 -0.291455,0.264583 -0.2445017,0.244505 -0.2107512,0.428639 -0.2041218,0.456304 l -0.00465,0.0047 c 0,0 0.00465,2.65e-4 0.00517,5.29e-4 1.736e-4,5.3e-4 0.00103,0.0057 0.00103,0.0057 l 0.00465,-0.0047 c 0.027721,0.0066 0.2118445,0.04033 0.4563028,-0.204123 0.1322919,-0.264584 0.1322919,-0.264584 0.2645833,-0.291455 0.1322919,0.02687 0.1322917,0.02687 0.2645833,0.291455 0.1984378,0.198435 0.3621234,0.213294 0.4314984,0.208256 0.02312,-0.0016 0.03566,-0.0057 0.03566,-0.0057 0,0 0.06201,-0.20257 -0.202572,-0.467156 -0.2645836,-0.132289 -0.2645839,-0.132291 -0.291455,-0.264583 0.026871,-0.132279 0.026873,-0.132292 0.291455,-0.264583 0.244502,-0.244505 0.210752,-0.428639 0.204122,-0.456304 l 0.0047,-0.0047 c 0,0 -0.0046,-7.94e-4 -0.0052,-0.0011 -1.47e-4,-5.29e-4 -10e-4,-0.0052 -10e-4,-0.0052 z" />
    </mask>
    <linearGradient
       id="Main-6">
      <stop
         style="stop-color:#4d4d4d;stop-opacity:1;"
         offset="0"
         id="stop2082-3" />
    </linearGradient>
    <linearGradient
       id="Green"
       gradientTransform="scale(3.7795276)">
      <stop
         style="stop-color:#66ff7a;stop-opacity:1;"
         offset="0"
         id="stop2506" />
    </linearGradient>
    <mask
       maskUnits="userSpaceOnUse"
       id="mask-powermask-path-effect1741">
      <path
         id="path1739"
         style="font-variation-settings:normal;opacity:1;vector-effect:none;fill:#000000;fill-opacity:0.992157;stroke:none;stroke-width:0.264583;stroke-linecap:butt;stroke-linejoin:miter;stroke-miterlimit:4;stroke-dasharray:none;stroke-dashoffset:0;stroke-opacity:1;marker:none;paint-order:fill markers stroke;stop-color:#000000;stop-opacity:1"
         d="m 20.095414,60.589583 a 0.52916663,0.52916663 0 0 0 -0.516248,0.529166 0.52916663,0.52916663 0 0 0 0.529167,0.529167 0.52916663,0.52916663 0 0 0 0.529167,-0.529167 0.52916663,0.52916663 0 0 0 -0.529167,-0.529166 0.52916663,0.52916663 0 0 0 -0.01292,0 z m -1.058333,2.116666 A 0.52916663,0.52916663 0 0 0 18.520833,63.235416 0.52916663,0.52916663 0 0 0 19.05,63.764583 0.52916663,0.52916663 0 0 0 19.579166,63.235416 0.52916663,0.52916663 0 0 0 19.05,62.706249 a 0.52916663,0.52916663 0 0 0 -0.01292,0 z m 2.116666,0 a 0.52916663,0.52916663 0 0 0 -0.516247,0.529167 0.52916663,0.52916663 0 0 0 0.529166,0.529167 0.52916663,0.52916663 0 0 0 0.529167,-0.529167 0.52916663,0.52916663 0 0 0 -0.529167,-0.529167 0.52916663,0.52916663 0 0 0 -0.01292,0 z" />
    </mask>
    <linearGradient
       xlink:href="#Main-6"
       id="linearGradient5"
       gradientUnits="userSpaceOnUse"
       x1="2.116667"
       y1="-3.7041662"
       x2="6.3499999"
       y2="-3.7041662" />
    <linearGradient
       xlink:href="#Main-6"
       id="linearGradient1"
       gradientUnits="userSpaceOnUse"
       x1="2.116667"
       y1="-3.7041662"
       x2="6.3499999"
       y2="-3.7041662" />
    <linearGradient
       xlink:href="#Main-6"
       id="linearGradient2"
       gradientUnits="userSpaceOnUse"
       x1="2.116667"
       y1="-3.7041662"
       x2="6.3499999"
       y2="-3.7041662" />
    <linearGradient
       xlink:href="#Main-6"
       id="linearGradient3"
       gradientUnits="userSpaceOnUse"
       x1="2.116667"
       y1="-3.7041662"
       x2="6.3499999"
       y2="-3.7041662" />
  </defs>
  <g
     id="debug-profile"
     transform="matrix(3.7795278,0,0,3.7794065,-207.99997,-207.99282)"
     style="display:inline">
    <path
       id="path1761"
       style="font-variation-settings:normal;opacity:1;vector-effect:none;fill:url(#linearGradient1);fill-opacity:1;stroke:none;stroke-width:0.999999px;stroke-linecap:butt;stroke-linejoin:miter;stroke-miterlimit:4;stroke-dasharray:none;stroke-dashoffset:0;stroke-opacity:1;marker:none;paint-order:fill markers stroke;stop-color:#000000;stop-opacity:1"
       d="m 209,202 a 2.9999865,1.9999999 0 0 0 -3,2 2.9999865,1.9999999 0 0 0 0.40234,1 H 209 a 1.9999864,0.99999996 0 0 1 -2,-1 1.9999864,0.99999996 0 0 1 1.93555,-1 1.9999864,0.99999996 0 0 1 0.0644,0 1.9999864,0.99999996 0 0 1 2,1 1.9999864,0.99999996 0 0 1 -1.93555,1 h 2.53321 A 2.9999865,1.9999999 0 0 0 212,204 a 2.9999865,1.9999999 0 0 0 -3,-2 z"
       transform="matrix(0.26458333,0,0,0.26458333,1.8520833,1.8520833)" />
    <path
       id="path1879"
       style="color:#000000;font-style:normal;font-variant:normal;font-weight:normal;font-stretch:normal;font-size:medium;line-height:normal;font-family:sans-serif;font-variant-ligatures:normal;font-variant-position:normal;font-variant-caps:normal;font-variant-numeric:normal;font-variant-alternates:normal;font-variant-east-asian:normal;font-feature-settings:normal;font-variation-settings:normal;text-indent:0;text-align:start;text-decoration:none;text-decoration-line:none;text-decoration-style:solid;text-decoration-color:#000000;letter-spacing:normal;word-spacing:normal;text-transform:none;writing-mode:lr-tb;direction:ltr;text-orientation:mixed;dominant-baseline:auto;baseline-shift:baseline;text-anchor:start;white-space:normal;shape-padding:0;shape-margin:0;inline-size:0;clip-rule:nonzero;overflow:visible;visibility:visible;opacity:1;isolation:auto;mix-blend-mode:normal;color-interpolation:sRGB;color-interpolation-filters:linearRGB;solid-color:#000000;solid-opacity:1;vector-effect:none;fill:url(#linearGradient2);fill-opacity:1;fill-rule:nonzero;stroke:none;stroke-width:0.999999px;stroke-linecap:butt;stroke-linejoin:miter;stroke-miterlimit:4;stroke-dasharray:none;stroke-dashoffset:0;stroke-opacity:1;paint-order:fill markers stroke;color-rendering:auto;image-rendering:auto;shape-rendering:auto;text-rendering:auto;enable-background:accumulate;stop-color:#000000;stop-opacity:1"
       d="m 202.49805,201.50195 a 0.49999938,0.49999938 0 0 0 -0.49414,0.50196 v 1.99218 l 0.0801,0.28125 1.99024,2.97657 C 204.0283,207.50738 204,207.758 204,208 v 0.17383 l -1.70117,0.76172 -0.27344,0.29492 -0.99609,3.00391 a 0.49999938,0.49999938 0 0 0 0.31054,0.62695 0.49999938,0.49999938 0 0 0 0.63477,-0.3086 L 202.9043,209.75391 204,209.26953 V 209.5 c 0,0.81387 0.17708,1.73329 0.46094,2.64844 l -1.24024,0.82422 -0.2207,0.42187 v 2.99609 a 0.49999938,0.49999938 0 0 0 0.50195,0.50196 0.49999938,0.49999938 0 0 0 0.49414,-0.50196 v -2.73046 l 0.80274,-0.53516 c 0.15327,0.37806 0.32336,0.7488 0.50976,1.10156 0.39322,0.74413 0.85277,1.40937 1.37696,1.91211 C 207.20974,216.64142 207.81856,217 208.5,217 h 1 c 0.68144,0 1.29026,-0.35858 1.81445,-0.86133 0.52419,-0.50274 0.98374,-1.16798 1.37696,-1.91211 0.1864,-0.35276 0.35649,-0.7235 0.50976,-1.10156 l 0.79688,0.53516 v 2.73046 a 0.49999938,0.49999938 0 0 0 0.50195,0.50196 0.49999938,0.49999938 0 0 0 0.50391,-0.50196 v -2.99609 l -0.23047,-0.42187 -1.23633,-0.82227 C 213.82142,211.23447 214,210.31456 214,209.5 v -0.23242 l 1.09961,0.48633 0.92969,2.79882 a 0.49999938,0.49999938 0 0 0 0.62695,0.3086 0.49999938,0.49999938 0 0 0 0.31836,-0.62695 l -0.99805,-3.00391 -0.27148,-0.29492 L 214,208.17383 V 208 c 0,-0.24011 -0.0271,-0.48879 -0.0723,-0.74023 l 1.99024,-2.98243 0.082,-0.28125 v -1.99218 a 0.49999938,0.49999938 0 0 0 -0.50195,-0.50196 0.49999938,0.49999938 0 0 0 -0.49414,0.50196 v 1.8457 l -1.48047,2.21484 c -0.12453,-0.24081 -0.26999,-0.47429 -0.44922,-0.69336 C 212.42603,204.57887 211.38333,204 210,204 h -2 c -1.38333,0 -2.42603,0.57887 -3.07422,1.37109 -0.17826,0.21788 -0.32313,0.45004 -0.44726,0.68946 L 203,203.84961 v -1.8457 a 0.49999938,0.49999938 0 0 0 -0.50195,-0.50196 z M 208,205 h 2 c 1.11667,0 1.82397,0.42113 2.30078,1.00391 C 212.7776,206.58668 213,207.36111 213,208 v 1.5 c 0,1.19673 -0.47784,2.90744 -1.19141,4.25781 -0.35678,0.67519 -0.77223,1.26376 -1.18554,1.66016 C 210.20974,215.81437 209.81856,216 209.5,216 h -1 c -0.31856,0 -0.70974,-0.18563 -1.12305,-0.58203 -0.41331,-0.3964 -0.82876,-0.98497 -1.18554,-1.66016 C 205.47784,212.40744 205,210.69673 205,209.5 V 208 c 0,-0.63889 0.2224,-1.41332 0.69922,-1.99609 C 206.17603,205.42113 206.88333,205 208,205 Z"
       transform="matrix(0.26458333,0,0,0.26458333,1.8520833,1.8520833)" />
    <path
       style="color:#000000;font-style:normal;font-variant:normal;font-weight:normal;font-stretch:normal;font-size:medium;line-height:normal;font-family:sans-serif;font-variant-ligatures:normal;font-variant-position:normal;font-variant-caps:normal;font-variant-numeric:normal;font-variant-alternates:normal;font-variant-east-asian:normal;font-feature-settings:normal;font-variation-settings:normal;text-indent:0;text-align:start;text-decoration:none;text-decoration-line:none;text-decoration-style:solid;text-decoration-color:#000000;letter-spacing:normal;word-spacing:normal;text-transform:none;writing-mode:lr-tb;direction:ltr;text-orientation:mixed;dominant-baseline:auto;baseline-shift:baseline;text-anchor:start;white-space:normal;shape-padding:0;shape-margin:0;inline-size:0;clip-rule:nonzero;overflow:visible;visibility:visible;opacity:1;isolation:auto;mix-blend-mode:normal;color-interpolation:sRGB;color-interpolation-filters:linearRGB;solid-color:#000000;solid-opacity:1;vector-effect:none;fill:url(#linearGradient3);fill-opacity:1;fill-rule:nonzero;stroke:none;stroke-width:0.264583px;stroke-linecap:butt;stroke-linejoin:miter;stroke-miterlimit:4;stroke-dasharray:none;stroke-dashoffset:0;stroke-opacity:1;paint-order:fill markers stroke;color-rendering:auto;image-rendering:auto;shape-rendering:auto;text-rendering:auto;enable-background:accumulate;stop-color:#000000;stop-opacity:1"
       d="m 56.488281,55.033203 a 0.1322915,0.1322915 0 0 0 -0.132812,0.132813 v 0.132812 l 0.03906,0.0918 0.265625,0.265625 a 0.1322915,0.1322915 0 0 0 0.185547,0 0.1322915,0.1322915 0 0 0 0,-0.1875 l -0.224609,-0.226562 v -0.07617 a 0.1322915,0.1322915 0 0 0 -0.132813,-0.132813 z"
       id="path1867" />
    <path
       style="color:#000000;font-style:normal;font-variant:normal;font-weight:normal;font-stretch:normal;font-size:medium;line-height:normal;font-family:sans-serif;font-variant-ligatures:normal;font-variant-position:normal;font-variant-caps:normal;font-variant-numeric:normal;font-variant-alternates:normal;font-variant-east-asian:normal;font-feature-settings:normal;font-variation-settings:normal;text-indent:0;text-align:start;text-decoration:none;text-decoration-line:none;text-decoration-style:solid;text-decoration-color:#000000;letter-spacing:normal;word-spacing:normal;text-transform:none;writing-mode:lr-tb;direction:ltr;text-orientation:mixed;dominant-baseline:auto;baseline-shift:baseline;text-anchor:start;white-space:normal;shape-padding:0;shape-margin:0;inline-size:0;clip-rule:nonzero;overflow:visible;visibility:visible;opacity:1;isolation:auto;mix-blend-mode:normal;color-interpolation:sRGB;color-interpolation-filters:linearRGB;solid-color:#000000;solid-opacity:1;vector-effect:none;fill:url(#linearGradient5);fill-opacity:1;fill-rule:nonzero;stroke:none;stroke-width:0.264583px;stroke-linecap:butt;stroke-linejoin:miter;stroke-miterlimit:4;stroke-dasharray:none;stroke-dashoffset:0;stroke-opacity:1;paint-order:fill markers stroke;color-rendering:auto;image-rendering:auto;shape-rendering:auto;text-rendering:auto;enable-background:accumulate;stop-color:#000000;stop-opacity:1"
       d="m 57.810547,55.033203 a 0.1322915,0.1322915 0 0 0 -0.130859,0.132813 v 0.07617 l -0.226563,0.226562 a 0.1322915,0.1322915 0 0 0 0,0.1875 0.1322915,0.1322915 0 0 0 0.1875,0 l 0.263672,-0.265625 0.03906,-0.0918 v -0.132812 a 0.1322915,0.1322915 0 0 0 -0.132812,-0.132813 z"
       id="path1871" />
  </g>
</svg>
