<?xml version="1.0" encoding="UTF-8" standalone="no"?>
<svg
   version="1.0"
   width="16.000000pt"
   height="16.000000pt"
   viewBox="0 0 16.000000 16.000000"
   preserveAspectRatio="xMidYMid meet"
   id="svg2"
   xmlns:xlink="http://www.w3.org/1999/xlink"
   xmlns="http://www.w3.org/2000/svg"
   xmlns:svg="http://www.w3.org/2000/svg">
  <defs
     id="defs2">
    <linearGradient
       id="Main">
      <stop
         style="stop-color:#000000;stop-opacity:1;"
         offset="0"
         id="stop2082" />
    </linearGradient>
    <linearGradient
       id="Main-1">
      <stop
         style="stop-color:#4d4d4d;stop-opacity:1;"
         offset="0"
         id="stop2082-1" />
    </linearGradient>
    <linearGradient
       id="Red">
      <stop
         style="stop-color:#ff664d;stop-opacity:1;"
         offset="0"
         id="stop2533" />
    </linearGradient>
    <linearGradient
       xlink:href="#Main-1"
       id="linearGradient2258"
       x1="55.033333"
       y1="41.275002"
       x2="59.266663"
       y2="41.275002"
       gradientUnits="userSpaceOnUse" />
    <linearGradient
       xlink:href="#Main-1"
       id="linearGradient2260"
       x1="56.356247"
       y1="41.274986"
       x2="57.943748"
       y2="41.274986"
       gradientUnits="userSpaceOnUse" />
  </defs>
  <g
     id="faction"
     transform="matrix(3.7795264,0,0,3.7795278,-207.99992,-148.00001)"
     style="display:inline">
    <rect
       style="opacity:0;fill:#a51d2d;stroke-width:0.264583px;paint-order:fill markers stroke;stop-color:#000000"
       id="rect1441"
       width="4.2333331"
       height="4.2333331"
       x="55.033329"
       y="39.158333"
       rx="1.9824198e-15" />
    <path
       id="rect1588"
       style="font-variation-settings:normal;opacity:1;vector-effect:none;fill:url(#linearGradient2258);fill-opacity:1;stroke:none;stroke-width:0.264583px;stroke-linecap:butt;stroke-linejoin:miter;stroke-miterlimit:4;stroke-dasharray:none;stroke-dashoffset:0;stroke-opacity:1;marker:none;paint-order:fill markers stroke;stop-color:#000000;stop-opacity:1"
       d="m 55.033331,39.158335 v 0.264584 h 0.79375 v 0.264583 h -0.529167 v 0.264583 h 0.264583 v 3.439584 h 0.264584 l 1.322916,-0.529167 1.322917,0.529167 h 0.264583 v -3.439584 h 0.264583 v -0.264583 h -0.529166 v -0.264583 h 0.79375 v -0.264584 z m 1.058333,0.264584 h 0.529167 v 0.264583 h -0.529167 z m 0.79375,0 h 0.529167 v 0.264583 h -0.529167 z m 0.79375,0 h 0.529166 v 0.264583 h -0.529166 z m -1.852083,0.529166 h 2.645833 v 3.175 l -1.322917,-0.529166 -1.322916,0.529166 z" />
    <path
       id="path1615"
       style="font-variation-settings:normal;opacity:1;vector-effect:none;fill:url(#linearGradient2260);fill-opacity:1;stroke:none;stroke-width:0.264583px;stroke-linecap:butt;stroke-linejoin:miter;stroke-miterlimit:4;stroke-dasharray:none;stroke-dashoffset:0;stroke-opacity:1;marker:none;paint-order:fill markers stroke;stop-color:#000000;stop-opacity:1"
       d="m 57.136562,40.481252 a 0.79374999,0.79374999 0 0 0 -0.780315,0.79375 0.79374999,0.79374999 0 0 0 0.79375,0.79375 0.79374999,0.79374999 0 0 0 0.79375,-0.79375 0.79374999,0.79374999 0 0 0 -0.79375,-0.79375 0.79374999,0.79374999 0 0 0 -0.01344,0 z m 5.29e-4,0.264583 a 0.5291661,0.52916788 0 0 1 0.01291,0 0.5291661,0.52916788 0 0 1 0.529167,0.529167 0.5291661,0.52916788 0 0 1 -0.529167,0.529167 0.5291661,0.52916788 0 0 1 -0.529166,-0.529167 0.5291661,0.52916788 0 0 1 0.516247,-0.529167 z" />
  </g>
</svg>
