<?xml version="1.0" encoding="UTF-8" standalone="no"?>
<svg
   version="1.0"
   width="16.000000pt"
   height="16.000000pt"
   viewBox="0 0 16.000000 16.000000"
   preserveAspectRatio="xMidYMid meet"
   id="svg2"
   xmlns:xlink="http://www.w3.org/1999/xlink"
   xmlns="http://www.w3.org/2000/svg"
   xmlns:svg="http://www.w3.org/2000/svg">
  <defs
     id="defs2">
    <linearGradient
       id="Main">
      <stop
         style="stop-color:#000000;stop-opacity:1;"
         offset="0"
         id="stop2082" />
    </linearGradient>
    <linearGradient
       id="Main-1">
      <stop
         style="stop-color:#4d4d4d;stop-opacity:1;"
         offset="0"
         id="stop2082-1" />
    </linearGradient>
    <linearGradient
       id="Red">
      <stop
         style="stop-color:#ff664d;stop-opacity:1;"
         offset="0"
         id="stop2533" />
    </linearGradient>
    <linearGradient
       xlink:href="#Main-1"
       id="linearGradient2154"
       x1="22"
       y1="188.5"
       x2="36"
       y2="188.5"
       gradientUnits="userSpaceOnUse" />
    <linearGradient
       xlink:href="#Main-1"
       id="linearGradient2156"
       x1="24"
       y1="185.5"
       x2="28"
       y2="185.5"
       gradientUnits="userSpaceOnUse" />
    <linearGradient
       xlink:href="#Main-1"
       id="linearGradient2158"
       x1="29"
       y1="185.5"
       x2="34"
       y2="185.5"
       gradientUnits="userSpaceOnUse" />
    <linearGradient
       xlink:href="#Main-1"
       id="linearGradient2160"
       x1="24"
       y1="191.5"
       x2="28"
       y2="191.5"
       gradientUnits="userSpaceOnUse" />
    <linearGradient
       xlink:href="#Main-1"
       id="linearGradient2162"
       x1="29"
       y1="191.5"
       x2="34"
       y2="191.5"
       gradientUnits="userSpaceOnUse" />
  </defs>
  <g
     id="gmst"
     transform="matrix(3.7795264,0,0,3.7795278,-27.999988,-187.99999)"
     style="display:inline">
    <rect
       style="opacity:0;fill:#a51d2d;stroke-width:0.264583px;paint-order:fill markers stroke;stop-color:#000000"
       id="rect1507"
       width="4.2333331"
       height="4.2333331"
       x="7.4083323"
       y="49.741661"
       rx="1.9824198e-15" />
    <path
       id="rect1797"
       style="font-variation-settings:normal;opacity:1;vector-effect:none;fill:url(#linearGradient2154);fill-opacity:1;stroke:none;stroke-width:0.999999px;stroke-linecap:butt;stroke-linejoin:miter;stroke-miterlimit:4;stroke-dasharray:none;stroke-dashoffset:0;stroke-opacity:1;marker:none;paint-order:fill markers stroke;stop-color:#000000;stop-opacity:1"
       d="m 22,181 v 15 h 14 v -15 z m 1,1 h 12 v 13 H 23 Z"
       transform="matrix(0.26458333,0,0,0.26458333,1.8520833,1.8520833)" />
    <path
       id="rect1804"
       style="font-variation-settings:normal;opacity:1;vector-effect:none;fill:url(#linearGradient2156);fill-opacity:1;stroke:none;stroke-width:0.999999px;stroke-linecap:butt;stroke-linejoin:miter;stroke-miterlimit:4;stroke-dasharray:none;stroke-dashoffset:0;stroke-opacity:1;marker:none;paint-order:fill markers stroke;stop-color:#000000;stop-opacity:1"
       d="m 24,183 v 5 h 4 v -3 h -2 v 1 h 1 v 1 h -2 v -3 h 1 2 v -1 z"
       transform="matrix(0.26458333,0,0,0.26458333,1.8520833,1.8520833)" />
    <path
       id="rect1806"
       style="font-variation-settings:normal;opacity:1;vector-effect:none;fill:url(#linearGradient2158);fill-opacity:1;stroke:none;stroke-width:0.999999px;stroke-linecap:butt;stroke-linejoin:miter;stroke-miterlimit:4;stroke-dasharray:none;stroke-dashoffset:0;stroke-opacity:1;marker:none;paint-order:fill markers stroke;stop-color:#000000;stop-opacity:1"
       d="m 29,183 v 5 h 1 v -3.5 l 1.5,2.5 1.5,-2.5 v 3.5 h 1 v -5 H 33 L 31.5,185.5 30,183 Z"
       transform="matrix(0.26458333,0,0,0.26458333,1.8520833,1.8520833)" />
    <path
       id="rect1808"
       style="font-variation-settings:normal;opacity:1;vector-effect:none;fill:url(#linearGradient2160);fill-opacity:1;stroke:none;stroke-width:0.999999px;stroke-linecap:butt;stroke-linejoin:miter;stroke-miterlimit:4;stroke-dasharray:none;stroke-dashoffset:0;stroke-opacity:1;marker:none;paint-order:fill markers stroke;stop-color:#000000;stop-opacity:1"
       d="m 24,189 v 3 h 2.75 v 1 H 24 v 1 h 4 v -3 h -3 v -1 h 3 v -1 z"
       transform="matrix(0.26458333,0,0,0.26458333,1.8520833,1.8520833)" />
    <path
       id="rect1810"
       style="font-variation-settings:normal;opacity:1;vector-effect:none;fill:url(#linearGradient2162);fill-opacity:1;stroke:none;stroke-width:0.999999px;stroke-linecap:butt;stroke-linejoin:miter;stroke-miterlimit:4;stroke-dasharray:none;stroke-dashoffset:0;stroke-opacity:1;marker:none;paint-order:fill markers stroke;stop-color:#000000;stop-opacity:1"
       d="m 29,189 v 1 h 2 v 4 h 1 v -4 h 2 v -1 z"
       transform="matrix(0.26458333,0,0,0.26458333,1.8520833,1.8520833)" />
  </g>
</svg>
