<?xml version="1.0" encoding="UTF-8" standalone="no"?>
<svg
   version="1.0"
   width="16.000000pt"
   height="16.000000pt"
   viewBox="0 0 16.000000 16.000000"
   preserveAspectRatio="xMidYMid meet"
   id="svg2"
   xmlns:xlink="http://www.w3.org/1999/xlink"
   xmlns="http://www.w3.org/2000/svg"
   xmlns:svg="http://www.w3.org/2000/svg">
  <defs
     id="defs2">
    <linearGradient
       id="Main">
      <stop
         style="stop-color:#000000;stop-opacity:1;"
         offset="0"
         id="stop2082" />
    </linearGradient>
    <linearGradient
       id="Red">
      <stop
         style="stop-color:#ff664d;stop-opacity:1;"
         offset="0"
         id="stop2533" />
    </linearGradient>
    <mask
       maskUnits="userSpaceOnUse"
       id="mask-powermask-path-effect3119">
      <path
         id="path3117"
         style="opacity:1;fill:#000000;stroke:none;stroke-width:0.264583px;stroke-linecap:butt;stroke-linejoin:miter;stroke-opacity:1"
         d="m 10.250537,66.995394 -0.0047,0.0047 c -0.02767,-0.0066 -0.211799,-0.04039 -0.4563028,0.204116 C 9.6572915,67.468749 9.6572915,67.468749 9.5249999,67.49562 9.3927082,67.468749 9.3927082,67.468749 9.2604165,67.204166 9.061979,67.005731 8.8982935,66.990872 8.8289184,66.99591 c -0.023124,0.0016 -0.035657,0.0057 -0.035657,0.0057 0,0 -0.062009,0.20257 0.2025716,0.467154 0.2645833,0.132291 0.2645841,0.132291 0.291455,0.264583 -0.026871,0.132292 -0.026872,0.132292 -0.291455,0.264583 -0.2445017,0.244505 -0.2107512,0.428639 -0.2041218,0.456304 l -0.00465,0.0047 c 0,0 0.00465,2.65e-4 0.00517,5.29e-4 1.736e-4,5.3e-4 0.00103,0.0057 0.00103,0.0057 l 0.00465,-0.0047 c 0.027721,0.0066 0.2118445,0.04033 0.4563028,-0.204123 0.1322919,-0.264584 0.1322919,-0.264584 0.2645833,-0.291455 0.1322919,0.02687 0.1322917,0.02687 0.2645833,0.291455 0.1984378,0.198435 0.3621234,0.213294 0.4314984,0.208256 0.02312,-0.0016 0.03566,-0.0057 0.03566,-0.0057 0,0 0.06201,-0.20257 -0.202572,-0.467156 -0.2645836,-0.132289 -0.2645839,-0.132291 -0.291455,-0.264583 0.026871,-0.132279 0.026873,-0.132292 0.291455,-0.264583 0.244502,-0.244505 0.210752,-0.428639 0.204122,-0.456304 l 0.0047,-0.0047 c 0,0 -0.0046,-7.94e-4 -0.0052,-0.0011 -1.47e-4,-5.29e-4 -10e-4,-0.0052 -10e-4,-0.0052 z" />
    </mask>
    <linearGradient
       id="Main-6">
      <stop
         style="stop-color:#4d4d4d;stop-opacity:1;"
         offset="0"
         id="stop2082-3" />
    </linearGradient>
    <linearGradient
       id="Green"
       gradientTransform="scale(3.7795276)">
      <stop
         style="stop-color:#66ff7a;stop-opacity:1;"
         offset="0"
         id="stop2506" />
    </linearGradient>
    <mask
       maskUnits="userSpaceOnUse"
       id="mask-powermask-path-effect1741">
      <path
         id="path1739"
         style="font-variation-settings:normal;opacity:1;vector-effect:none;fill:#000000;fill-opacity:0.992157;stroke:none;stroke-width:0.264583;stroke-linecap:butt;stroke-linejoin:miter;stroke-miterlimit:4;stroke-dasharray:none;stroke-dashoffset:0;stroke-opacity:1;marker:none;paint-order:fill markers stroke;stop-color:#000000;stop-opacity:1"
         d="m 20.095414,60.589583 a 0.52916663,0.52916663 0 0 0 -0.516248,0.529166 0.52916663,0.52916663 0 0 0 0.529167,0.529167 0.52916663,0.52916663 0 0 0 0.529167,-0.529167 0.52916663,0.52916663 0 0 0 -0.529167,-0.529166 0.52916663,0.52916663 0 0 0 -0.01292,0 z m -1.058333,2.116666 A 0.52916663,0.52916663 0 0 0 18.520833,63.235416 0.52916663,0.52916663 0 0 0 19.05,63.764583 0.52916663,0.52916663 0 0 0 19.579166,63.235416 0.52916663,0.52916663 0 0 0 19.05,62.706249 a 0.52916663,0.52916663 0 0 0 -0.01292,0 z m 2.116666,0 a 0.52916663,0.52916663 0 0 0 -0.516247,0.529167 0.52916663,0.52916663 0 0 0 0.529166,0.529167 0.52916663,0.52916663 0 0 0 0.529167,-0.529167 0.52916663,0.52916663 0 0 0 -0.529167,-0.529167 0.52916663,0.52916663 0 0 0 -0.01292,0 z" />
    </mask>
    <linearGradient
       xlink:href="#Main-6"
       id="linearGradient2298"
       x1="44.692448"
       y1="14.850656"
       x2="48.418747"
       y2="14.850656"
       gradientUnits="userSpaceOnUse" />
    <linearGradient
       xlink:href="#Main-6"
       id="linearGradient2302"
       x1="44.726234"
       y1="15.44105"
       x2="47.230007"
       y2="15.44105"
       gradientUnits="userSpaceOnUse" />
  </defs>
  <g
     id="ingredient"
     style="display:inline"
     transform="matrix(3.7795278,0,0,3.7795278,-168.00001,-48.000002)">
    <rect
       style="opacity:0;fill:#a51d2d;stroke-width:0.264583px;paint-order:fill markers stroke;stop-color:#000000"
       id="rect1372"
       width="4.2333331"
       height="4.2333331"
       x="44.450001"
       y="12.7"
       rx="1.9824198e-15" />
    <path
       id="path1112"
       style="font-variation-settings:normal;opacity:1;vector-effect:none;fill:url(#linearGradient2298);fill-opacity:1;stroke:none;stroke-width:0.264583px;stroke-linecap:butt;stroke-linejoin:miter;stroke-miterlimit:4;stroke-dasharray:none;stroke-dashoffset:0;stroke-opacity:1;stop-color:#000000;stop-opacity:1"
       d="m 48.418746,12.964584 c -1.243361,0 -3.934467,0.829085 -3.713469,3.444234 0,0 0.0093,0.206234 0.0093,0.259933 1.746944,0.368331 3.70417,-0.757662 3.70417,-3.439584 z m -0.264584,0.301274 v 0.227893 c -0.08419,1.366455 -0.965018,3.114878 -3.117122,2.89388 -0.0056,-0.0537 -0.02274,-0.24753 -0.02274,-0.24753 -0.09471,-1.767988 1.8965,-2.874243 3.13986,-2.874243 z" />
    <path
       style="font-variation-settings:normal;opacity:1;vector-effect:none;fill:url(#linearGradient2302);fill-opacity:1;stroke:none;stroke-width:0.264583px;stroke-linecap:butt;stroke-linejoin:miter;stroke-miterlimit:4;stroke-dasharray:none;stroke-dashoffset:0;stroke-opacity:1;stop-color:#000000;stop-opacity:1"
       d="m 44.735297,16.384216 c -0.05833,0.02461 0.182844,0.256314 0.213106,0.242046 0.297543,-0.140285 0.537168,-0.305529 0.823482,-0.678781 0.554949,-0.723455 0.71781,-1.153972 1.458122,-1.692275 -0.606594,0.103773 -1.03702,0.826593 -1.654857,1.499632 -0.31705,0.345377 -0.67329,0.559102 -0.839853,0.629378 z"
       id="path1110" />
  </g>
</svg>
