<?xml version="1.0" encoding="UTF-8" standalone="no"?>
<svg
   version="1.0"
   width="16.000000pt"
   height="16.000000pt"
   viewBox="0 0 16.000000 16.000000"
   preserveAspectRatio="xMidYMid meet"
   id="svg2"
   xmlns:xlink="http://www.w3.org/1999/xlink"
   xmlns="http://www.w3.org/2000/svg"
   xmlns:svg="http://www.w3.org/2000/svg">
  <defs
     id="defs2">
    <linearGradient
       id="Main">
      <stop
         style="stop-color:#000000;stop-opacity:1;"
         offset="0"
         id="stop2082" />
    </linearGradient>
    <linearGradient
       id="Red">
      <stop
         style="stop-color:#ff664d;stop-opacity:1;"
         offset="0"
         id="stop2533" />
    </linearGradient>
    <mask
       maskUnits="userSpaceOnUse"
       id="mask-powermask-path-effect3119">
      <path
         id="path3117"
         style="opacity:1;fill:#000000;stroke:none;stroke-width:0.264583px;stroke-linecap:butt;stroke-linejoin:miter;stroke-opacity:1"
         d="m 10.250537,66.995394 -0.0047,0.0047 c -0.02767,-0.0066 -0.211799,-0.04039 -0.4563028,0.204116 C 9.6572915,67.468749 9.6572915,67.468749 9.5249999,67.49562 9.3927082,67.468749 9.3927082,67.468749 9.2604165,67.204166 9.061979,67.005731 8.8982935,66.990872 8.8289184,66.99591 c -0.023124,0.0016 -0.035657,0.0057 -0.035657,0.0057 0,0 -0.062009,0.20257 0.2025716,0.467154 0.2645833,0.132291 0.2645841,0.132291 0.291455,0.264583 -0.026871,0.132292 -0.026872,0.132292 -0.291455,0.264583 -0.2445017,0.244505 -0.2107512,0.428639 -0.2041218,0.456304 l -0.00465,0.0047 c 0,0 0.00465,2.65e-4 0.00517,5.29e-4 1.736e-4,5.3e-4 0.00103,0.0057 0.00103,0.0057 l 0.00465,-0.0047 c 0.027721,0.0066 0.2118445,0.04033 0.4563028,-0.204123 0.1322919,-0.264584 0.1322919,-0.264584 0.2645833,-0.291455 0.1322919,0.02687 0.1322917,0.02687 0.2645833,0.291455 0.1984378,0.198435 0.3621234,0.213294 0.4314984,0.208256 0.02312,-0.0016 0.03566,-0.0057 0.03566,-0.0057 0,0 0.06201,-0.20257 -0.202572,-0.467156 -0.2645836,-0.132289 -0.2645839,-0.132291 -0.291455,-0.264583 0.026871,-0.132279 0.026873,-0.132292 0.291455,-0.264583 0.244502,-0.244505 0.210752,-0.428639 0.204122,-0.456304 l 0.0047,-0.0047 c 0,0 -0.0046,-7.94e-4 -0.0052,-0.0011 -1.47e-4,-5.29e-4 -10e-4,-0.0052 -10e-4,-0.0052 z" />
    </mask>
    <linearGradient
       id="Main-6">
      <stop
         style="stop-color:#4d4d4d;stop-opacity:1;"
         offset="0"
         id="stop2082-3" />
    </linearGradient>
    <linearGradient
       id="Green"
       gradientTransform="scale(3.7795276)">
      <stop
         style="stop-color:#66ff7a;stop-opacity:1;"
         offset="0"
         id="stop2506" />
    </linearGradient>
    <mask
       maskUnits="userSpaceOnUse"
       id="mask-powermask-path-effect1741">
      <path
         id="path1739"
         style="font-variation-settings:normal;opacity:1;vector-effect:none;fill:#000000;fill-opacity:0.992157;stroke:none;stroke-width:0.264583;stroke-linecap:butt;stroke-linejoin:miter;stroke-miterlimit:4;stroke-dasharray:none;stroke-dashoffset:0;stroke-opacity:1;marker:none;paint-order:fill markers stroke;stop-color:#000000;stop-opacity:1"
         d="m 20.095414,60.589583 a 0.52916663,0.52916663 0 0 0 -0.516248,0.529166 0.52916663,0.52916663 0 0 0 0.529167,0.529167 0.52916663,0.52916663 0 0 0 0.529167,-0.529167 0.52916663,0.52916663 0 0 0 -0.529167,-0.529166 0.52916663,0.52916663 0 0 0 -0.01292,0 z m -1.058333,2.116666 A 0.52916663,0.52916663 0 0 0 18.520833,63.235416 0.52916663,0.52916663 0 0 0 19.05,63.764583 0.52916663,0.52916663 0 0 0 19.579166,63.235416 0.52916663,0.52916663 0 0 0 19.05,62.706249 a 0.52916663,0.52916663 0 0 0 -0.01292,0 z m 2.116666,0 a 0.52916663,0.52916663 0 0 0 -0.516247,0.529167 0.52916663,0.52916663 0 0 0 0.529166,0.529167 0.52916663,0.52916663 0 0 0 0.529167,-0.529167 0.52916663,0.52916663 0 0 0 -0.529167,-0.529167 0.52916663,0.52916663 0 0 0 -0.01292,0 z" />
    </mask>
    <linearGradient
       xlink:href="#Main-6"
       id="linearGradient2252"
       x1="44.449993"
       y1="41.142712"
       x2="48.418743"
       y2="41.142712"
       gradientUnits="userSpaceOnUse" />
    <linearGradient
       xlink:href="#Main-6"
       id="linearGradient2254"
       x1="46.037495"
       y1="41.010418"
       x2="47.095829"
       y2="41.010418"
       gradientUnits="userSpaceOnUse" />
  </defs>
  <g
     id="journal-topic-infos"
     transform="matrix(3.7795217,0,0,3.7795278,-167.99972,-148.00001)"
     style="display:inline">
    <rect
       style="opacity:0;fill:#a51d2d;stroke-width:0.264583px;paint-order:fill markers stroke;stop-color:#000000"
       id="rect1445"
       width="4.2333331"
       height="4.2333331"
       x="44.450001"
       y="39.158333"
       rx="1.9824198e-15" />
    <path
       id="path1236"
       style="font-variation-settings:normal;opacity:1;vector-effect:none;fill:url(#linearGradient2252);fill-opacity:1;stroke:none;stroke-width:0.264583px;stroke-linecap:butt;stroke-linejoin:miter;stroke-miterlimit:4;stroke-dasharray:none;stroke-dashoffset:0;stroke-opacity:1;marker:none;paint-order:fill markers stroke;stop-color:#000000;stop-opacity:1"
       d="m 44.714577,39.158335 v 0.529167 h -0.264583 v 0.264583 h 0.264583 v 0.264584 h -0.264583 v 0.264583 h 0.264583 v 0.264583 h -0.264583 v 0.264584 h 0.264583 v 0.264583 h -0.264583 v 0.264583 h 0.264583 v 0.264584 h -0.264583 v 0.264583 h 0.264583 v 0.264583 h -0.264583 v 0.264584 h 0.264583 v 0.529166 h 3.704167 v -3.96875 z m 0.264583,0.264584 h 2.645834 v 3.439583 H 44.97916 v -0.264583 h 0.264584 V 42.333335 H 44.97916 v -0.264583 h 0.264584 V 41.804169 H 44.97916 v -0.264584 h 0.264584 V 41.275002 H 44.97916 v -0.264583 h 0.264584 V 40.745835 H 44.97916 v -0.264583 h 0.264584 V 40.216669 H 44.97916 v -0.264584 h 0.264584 V 39.687502 H 44.97916 Z m 2.910417,0 h 0.264583 v 3.439583 h -0.264583 z" />
    <path
       id="path1238"
       style="font-variation-settings:normal;opacity:1;vector-effect:none;fill:url(#linearGradient2254);fill-opacity:1;stroke:none;stroke-width:0.264583px;stroke-linecap:butt;stroke-linejoin:miter;stroke-miterlimit:4;stroke-dasharray:none;stroke-dashoffset:0;stroke-opacity:1;marker:none;paint-order:fill markers stroke;stop-color:#000000;stop-opacity:1"
       d="m 46.434371,39.952085 c -0.07329,0 -0.132292,0.059 -0.132292,0.132292 v 0.264583 c 0,0.07329 0.059,0.132292 0.132292,0.132292 h 0.264583 c 0.07329,0 0.132292,-0.059 0.132292,-0.132292 v -0.264583 c 0,-0.07329 -0.059,-0.132292 -0.132292,-0.132292 z m -0.264583,0.79375 c -0.07329,0 -0.132292,0.059 -0.132292,0.132292 0,0.07329 0.059,0.132291 0.132292,0.132291 h 0.132291 v 0.79375 h -0.132291 c -0.07329,0 -0.132292,0.059 -0.132292,0.132292 0,0.07329 0.059,0.132292 0.132292,0.132292 h 0.264583 0.264583 0.264584 c 0.07329,0 0.132291,-0.059 0.132291,-0.132292 0,-0.07329 -0.059,-0.132292 -0.132291,-0.132292 h -0.132292 v -0.926041 c 0,-0.07329 -0.059,-0.132292 -0.132292,-0.132292 z" />
  </g>
</svg>
