<?xml version="1.0" encoding="UTF-8" standalone="no"?>
<svg
   version="1.0"
   width="16.000000pt"
   height="16.000000pt"
   viewBox="0 0 16.000000 16.000000"
   preserveAspectRatio="xMidYMid meet"
   id="svg2"
   xmlns:xlink="http://www.w3.org/1999/xlink"
   xmlns="http://www.w3.org/2000/svg"
   xmlns:svg="http://www.w3.org/2000/svg">
  <defs
     id="defs2">
    <linearGradient
       id="Main">
      <stop
         style="stop-color:#000000;stop-opacity:1;"
         offset="0"
         id="stop2082" />
    </linearGradient>
    <linearGradient
       id="Main-1">
      <stop
         style="stop-color:#4d4d4d;stop-opacity:1;"
         offset="0"
         id="stop2082-1" />
    </linearGradient>
    <linearGradient
       id="Red">
      <stop
         style="stop-color:#ff664d;stop-opacity:1;"
         offset="0"
         id="stop2533" />
    </linearGradient>
    <linearGradient
       xlink:href="#Main-1"
       id="linearGradient2248"
       x1="39.158333"
       y1="41.142712"
       x2="43.127083"
       y2="41.142712"
       gradientUnits="userSpaceOnUse" />
    <linearGradient
       xlink:href="#Main-1"
       id="linearGradient2250"
       x1="40.216663"
       y1="40.348961"
       x2="42.068748"
       y2="40.348961"
       gradientUnits="userSpaceOnUse" />
  </defs>
  <g
     id="journal-topics"
     transform="matrix(3.7795264,0,0,3.7795278,-147.99995,-148.00001)"
     style="display:inline">
    <rect
       style="opacity:0;fill:#a51d2d;stroke-width:0.264583px;paint-order:fill markers stroke;stop-color:#000000"
       id="rect1447"
       width="4.2333331"
       height="4.2333331"
       x="39.158333"
       y="39.158333"
       rx="1.9824198e-15" />
    <path
       id="rect1204"
       style="font-variation-settings:normal;opacity:1;vector-effect:none;fill:url(#linearGradient2248);fill-opacity:1;stroke:none;stroke-width:0.264583px;stroke-linecap:butt;stroke-linejoin:miter;stroke-miterlimit:4;stroke-dasharray:none;stroke-dashoffset:0;stroke-opacity:1;marker:none;paint-order:fill markers stroke;stop-color:#000000;stop-opacity:1"
       d="m 39.422914,39.158335 v 0.529167 h -0.264583 v 0.264583 h 0.264583 v 0.264584 h -0.264583 v 0.264583 h 0.264583 v 0.264583 h -0.264583 v 0.264584 h 0.264583 v 0.264583 h -0.264583 v 0.264583 h 0.264583 v 0.264584 h -0.264583 v 0.264583 h 0.264583 v 0.264583 h -0.264583 v 0.264584 h 0.264583 v 0.529166 h 3.704167 v -3.96875 z m 0.264583,0.264584 h 2.645834 v 3.439583 h -2.645834 v -0.264583 h 0.264584 v -0.264584 h -0.264584 v -0.264583 h 0.264584 v -0.264583 h -0.264584 v -0.264584 h 0.264584 v -0.264583 h -0.264584 v -0.264583 h 0.264584 v -0.264584 h -0.264584 v -0.264583 h 0.264584 v -0.264583 h -0.264584 v -0.264584 h 0.264584 v -0.264583 h -0.264584 z m 2.910417,0 h 0.264583 v 3.439583 h -0.264583 z" />
    <path
       id="path1234"
       style="font-variation-settings:normal;opacity:1;vector-effect:none;fill:url(#linearGradient2250);fill-opacity:1;stroke:none;stroke-width:0.264583px;stroke-linecap:butt;stroke-linejoin:miter;stroke-miterlimit:4;stroke-dasharray:none;stroke-dashoffset:0;stroke-opacity:1;marker:none;paint-order:fill markers stroke;stop-color:#000000;stop-opacity:1"
       d="m 40.348956,39.952087 c -0.07329,0 -0.132292,0.059 -0.132292,0.132292 v 0.529167 c 0,0.07329 0.059,0.132291 0.132292,0.132291 h 1.5875 c 0.07329,0 0.132292,-0.059 0.132292,-0.132291 v -0.529167 c 0,-0.07329 -0.059,-0.132292 -0.132292,-0.132292 z m 0.132292,0.264584 h 1.322916 v 0.264583 h -1.322916 z" />
  </g>
</svg>
