<?xml version="1.0" encoding="UTF-8" standalone="no"?>
<svg
   version="1.0"
   width="16.000000pt"
   height="16.000000pt"
   viewBox="0 0 16.000000 16.000000"
   preserveAspectRatio="xMidYMid meet"
   id="svg2"
   xmlns:xlink="http://www.w3.org/1999/xlink"
   xmlns="http://www.w3.org/2000/svg"
   xmlns:svg="http://www.w3.org/2000/svg">
  <defs
     id="defs2">
    <linearGradient
       id="Main">
      <stop
         style="stop-color:#000000;stop-opacity:1;"
         offset="0"
         id="stop2082" />
    </linearGradient>
    <linearGradient
       id="Red">
      <stop
         style="stop-color:#ff664d;stop-opacity:1;"
         offset="0"
         id="stop2533" />
    </linearGradient>
    <mask
       maskUnits="userSpaceOnUse"
       id="mask-powermask-path-effect3119">
      <path
         id="path3117"
         style="opacity:1;fill:#000000;stroke:none;stroke-width:0.264583px;stroke-linecap:butt;stroke-linejoin:miter;stroke-opacity:1"
         d="m 10.250537,66.995394 -0.0047,0.0047 c -0.02767,-0.0066 -0.211799,-0.04039 -0.4563028,0.204116 C 9.6572915,67.468749 9.6572915,67.468749 9.5249999,67.49562 9.3927082,67.468749 9.3927082,67.468749 9.2604165,67.204166 9.061979,67.005731 8.8982935,66.990872 8.8289184,66.99591 c -0.023124,0.0016 -0.035657,0.0057 -0.035657,0.0057 0,0 -0.062009,0.20257 0.2025716,0.467154 0.2645833,0.132291 0.2645841,0.132291 0.291455,0.264583 -0.026871,0.132292 -0.026872,0.132292 -0.291455,0.264583 -0.2445017,0.244505 -0.2107512,0.428639 -0.2041218,0.456304 l -0.00465,0.0047 c 0,0 0.00465,2.65e-4 0.00517,5.29e-4 1.736e-4,5.3e-4 0.00103,0.0057 0.00103,0.0057 l 0.00465,-0.0047 c 0.027721,0.0066 0.2118445,0.04033 0.4563028,-0.204123 0.1322919,-0.264584 0.1322919,-0.264584 0.2645833,-0.291455 0.1322919,0.02687 0.1322917,0.02687 0.2645833,0.291455 0.1984378,0.198435 0.3621234,0.213294 0.4314984,0.208256 0.02312,-0.0016 0.03566,-0.0057 0.03566,-0.0057 0,0 0.06201,-0.20257 -0.202572,-0.467156 -0.2645836,-0.132289 -0.2645839,-0.132291 -0.291455,-0.264583 0.026871,-0.132279 0.026873,-0.132292 0.291455,-0.264583 0.244502,-0.244505 0.210752,-0.428639 0.204122,-0.456304 l 0.0047,-0.0047 c 0,0 -0.0046,-7.94e-4 -0.0052,-0.0011 -1.47e-4,-5.29e-4 -10e-4,-0.0052 -10e-4,-0.0052 z" />
    </mask>
    <linearGradient
       id="Main-6">
      <stop
         style="stop-color:#4d4d4d;stop-opacity:1;"
         offset="0"
         id="stop2082-3" />
    </linearGradient>
    <linearGradient
       id="Green"
       gradientTransform="scale(3.7795276)">
      <stop
         style="stop-color:#66ff7a;stop-opacity:1;"
         offset="0"
         id="stop2506" />
    </linearGradient>
    <mask
       maskUnits="userSpaceOnUse"
       id="mask-powermask-path-effect1741">
      <path
         id="path1739"
         style="font-variation-settings:normal;opacity:1;vector-effect:none;fill:#000000;fill-opacity:0.992157;stroke:none;stroke-width:0.264583;stroke-linecap:butt;stroke-linejoin:miter;stroke-miterlimit:4;stroke-dasharray:none;stroke-dashoffset:0;stroke-opacity:1;marker:none;paint-order:fill markers stroke;stop-color:#000000;stop-opacity:1"
         d="m 20.095414,60.589583 a 0.52916663,0.52916663 0 0 0 -0.516248,0.529166 0.52916663,0.52916663 0 0 0 0.529167,0.529167 0.52916663,0.52916663 0 0 0 0.529167,-0.529167 0.52916663,0.52916663 0 0 0 -0.529167,-0.529166 0.52916663,0.52916663 0 0 0 -0.01292,0 z m -1.058333,2.116666 A 0.52916663,0.52916663 0 0 0 18.520833,63.235416 0.52916663,0.52916663 0 0 0 19.05,63.764583 0.52916663,0.52916663 0 0 0 19.579166,63.235416 0.52916663,0.52916663 0 0 0 19.05,62.706249 a 0.52916663,0.52916663 0 0 0 -0.01292,0 z m 2.116666,0 a 0.52916663,0.52916663 0 0 0 -0.516247,0.529167 0.52916663,0.52916663 0 0 0 0.529166,0.529167 0.52916663,0.52916663 0 0 0 0.529167,-0.529167 0.52916663,0.52916663 0 0 0 -0.529167,-0.529167 0.52916663,0.52916663 0 0 0 -0.01292,0 z" />
    </mask>
    <mask
       maskUnits="userSpaceOnUse"
       id="mask-powermask-path-effect1389">
      <path
         id="path1387"
         style="font-variation-settings:normal;opacity:1;vector-effect:none;fill:#000000;fill-opacity:0.992157;stroke:none;stroke-width:0.264583;stroke-linecap:butt;stroke-linejoin:miter;stroke-miterlimit:4;stroke-dasharray:none;stroke-dashoffset:0;stroke-opacity:1;stop-color:#000000;stop-opacity:1"
         transform="matrix(3.7795275,0,0,3.7795275,-6.9999997,-6.9999997)" />
    </mask>
    <linearGradient
       xlink:href="#Main-6"
       id="linearGradient2396"
       x1="2.1166666"
       y1="20.6313"
       x2="6.3499999"
       y2="20.6313"
       gradientUnits="userSpaceOnUse" />
    <linearGradient
       xlink:href="#Main-6"
       id="linearGradient2398"
       x1="2.3812499"
       y1="21.034376"
       x2="6.0854168"
       y2="21.034376"
       gradientUnits="userSpaceOnUse" />
    <linearGradient
       xlink:href="#Main-6"
       id="linearGradient2400"
       x1="2"
       y1="84.999947"
       x2="16"
       y2="84.999947"
       gradientUnits="userSpaceOnUse" />
    <mask
       maskUnits="userSpaceOnUse"
       id="mask-powermask-path-effect1389-5">
      <path
         id="mask-powermask-path-effect1389-5_box"
         style="fill:#ffffff;fill-opacity:1"
         d="M 0.99999997,80.999893 H 17 V 89 H 0.99999997 Z" />
      <path
         id="mask-powermask-path-effect1389_box"
         style="fill:#ffffff;fill-opacity:1"
         d="M 0.99999997,80.999893 H 17 V 89 H 0.99999997 Z" />
      <path
         id="path1387-6"
         style="font-variation-settings:normal;opacity:1;vector-effect:none;fill:#000000;fill-opacity:0.992157;stroke:none;stroke-width:0.264583;stroke-linecap:butt;stroke-linejoin:miter;stroke-miterlimit:4;stroke-dasharray:none;stroke-dashoffset:0;stroke-opacity:1;stop-color:#000000;stop-opacity:1"
         d="m 4.2207031,24.023437 c -0.1753477,0 -0.3947923,0.03618 -0.6035156,0.166016 -0.2087233,0.129841 -0.3925439,0.377906 -0.4238281,0.703125 a 0.28666925,0.28666925 0 0 0 0.2460937,0.310547 l 0.3691407,0.05078 A 0.28666925,0.28666925 0 0 0 4.125,25.033203 c -0.1437029,0.106531 -0.2727825,0.217419 -0.3457031,0.369141 -0.080497,0.167484 -0.092876,0.34636 -0.083984,0.537109 a 0.28666925,0.28666925 0 0 0 0.2871094,0.273438 h 0.3535156 a 0.28666925,0.28666925 0 0 0 0.2851562,-0.267579 c 0.010216,-0.146016 0.029974,-0.167735 0.027344,-0.164062 -0.00263,0.0037 0.029361,-0.01743 0.1171875,-0.09766 -0.025712,0.02349 -0.00947,0.008 0.00391,-0.002 0.01338,-0.0099 0.033862,-0.02316 0.056641,-0.04102 0.045556,-0.03572 0.1034486,-0.08545 0.1640625,-0.148438 0.1212278,-0.125967 0.2675781,-0.317186 0.2675781,-0.583984 0,-0.262483 -0.1335657,-0.499873 -0.3261719,-0.652344 -0.1926061,-0.15247 -0.441767,-0.232421 -0.7109375,-0.232422 z m 0.015625,0.873047 c 0.023977,0 0.024427,0.0042 0.037109,0.0078 -0.028312,0.02874 -0.070644,0.05991 -0.1132813,0.08984 -0.00937,0.0066 -0.012316,0.01679 -0.021484,0.02344 0.024909,-0.102384 0.043275,-0.121094 0.097656,-0.121094 z"
         transform="matrix(3.7795275,0,0,3.7795275,-6.9999997,-6.9999997)" />
    </mask>
    <linearGradient
       xlink:href="#Main-6"
       id="linearGradient2402"
       x1="3.96875"
       y1="21.166668"
       x2="4.4979157"
       y2="21.166668"
       gradientUnits="userSpaceOnUse" />
    <linearGradient
       xlink:href="#Main-6"
       id="linearGradient2404"
       x1="3.4788599"
       y1="19.827215"
       x2="4.9710684"
       y2="19.827215"
       gradientUnits="userSpaceOnUse" />
    <filter
       id="mask-powermask-path-effect1389_inverse"
       style="color-interpolation-filters:sRGB"
       height="100"
       width="100"
       x="-50"
       y="-50">
      <feColorMatrix
         id="mask-powermask-path-effect1389_primitive1"
         values="1"
         type="saturate"
         result="fbSourceGraphic" />
      <feColorMatrix
         id="mask-powermask-path-effect1389_primitive2"
         values="-1 0 0 0 1 0 -1 0 0 1 0 0 -1 0 1 0 0 0 1 0 "
         in="fbSourceGraphic" />
    </filter>
    <filter
       id="mask-powermask-path-effect1389-5_inverse"
       style="color-interpolation-filters:sRGB"
       height="100"
       width="100"
       x="-50"
       y="-50">
      <feColorMatrix
         id="mask-powermask-path-effect1389-5_primitive1"
         values="1"
         type="saturate"
         result="fbSourceGraphic" />
      <feColorMatrix
         id="mask-powermask-path-effect1389-5_primitive2"
         values="-1 0 0 0 1 0 -1 0 0 1 0 0 -1 0 1 0 0 0 1 0 "
         in="fbSourceGraphic" />
    </filter>
  </defs>
  <g
     id="levelled-creature"
     style="display:inline"
     transform="matrix(3.7795278,0,0,3.7795278,-8.0000003,-68.000005)">
    <rect
       style="opacity:0;fill:#a51d2d;stroke-width:0.264583px;paint-order:fill markers stroke;stop-color:#000000"
       id="rect1412"
       width="4.2333331"
       height="4.2333331"
       x="2.1166692"
       y="17.991667"
       rx="1.9824198e-15" />
    <path
       id="path1335"
       style="font-variation-settings:normal;opacity:1;vector-effect:none;fill:url(#linearGradient2396);fill-opacity:1;stroke:none;stroke-width:0.264583px;stroke-linecap:butt;stroke-linejoin:miter;stroke-miterlimit:4;stroke-dasharray:none;stroke-dashoffset:0;stroke-opacity:1;stop-color:#000000;stop-opacity:1"
       d="m 2.5879557,19.302182 c -0.4688086,0.463228 -0.4712891,1.108823 -0.4712891,1.518253 0,0.612416 0.7314471,1.139983 1.5875001,1.139983 H 4.7625 c 0.8560531,0 1.5875001,-0.527567 1.5875001,-1.139983 0,-0.40943 -0.00249,-1.055025 -0.4712891,-1.518253 l -0.2025716,0.209806 c 0.3571872,0.26417 0.4092773,0.911564 0.4092773,1.308447 0,0.47278 -0.6884932,0.875399 -1.3229167,0.875399 H 3.7041667 c -0.6344236,0 -1.3229167,-0.402619 -1.3229167,-0.875399 0,-0.396883 0.05209,-1.044277 0.4092773,-1.308447 z" />
    <path
       id="rect1337"
       style="font-variation-settings:normal;opacity:1;vector-effect:none;fill:url(#linearGradient2398);fill-opacity:1;stroke:none;stroke-width:0.264583px;stroke-linecap:butt;stroke-linejoin:miter;stroke-miterlimit:4;stroke-dasharray:none;stroke-dashoffset:0;stroke-opacity:1;stop-color:#000000;stop-opacity:1"
       d="m 2.38125,20.902084 v 0.264584 h 1.3229167 v -0.264584 z m 2.38125,0 v 0.264584 h 1.3229167 v -0.264584 z" />
    <path
       id="path1345"
       style="font-variation-settings:normal;opacity:1;vector-effect:none;fill:url(#linearGradient2400);fill-opacity:1;stroke:none;stroke-width:0.999999px;stroke-linecap:butt;stroke-linejoin:miter;stroke-miterlimit:4;stroke-dasharray:none;stroke-dashoffset:0;stroke-opacity:1;stop-color:#000000;stop-opacity:1"
       d="M 4.9492188,82 A 3.0000001,3.0000001 0 0 0 2,85 3.0000001,3.0000001 0 0 0 5,88 3.0000001,3.0000001 0 0 0 8,85 3.0000001,3.0000001 0 0 0 5,82 3.0000001,3.0000001 0 0 0 4.9492188,82 Z m 8.0000002,0 A 3.0000001,3.0000001 0 0 0 10,85 a 3.0000001,3.0000001 0 0 0 3,3 3.0000001,3.0000001 0 0 0 3,-3 3.0000001,3.0000001 0 0 0 -3,-3 3.0000001,3.0000001 0 0 0 -0.05078,0 z m -8.0000002,1 a 2.0000001,2.0000001 0 0 1 0.00195,0 A 2.0000001,2.0000001 0 0 1 5,83 2.0000001,2.0000001 0 0 1 7,85 2.0000001,2.0000001 0 0 1 5,87 2.0000001,2.0000001 0 0 1 3,85 2.0000001,2.0000001 0 0 1 4.9492188,83 Z m 8.0000002,0 a 2.0000001,2.0000001 0 0 1 0.002,0 2.0000001,2.0000001 0 0 1 0.04883,0 2.0000001,2.0000001 0 0 1 2,2 2.0000001,2.0000001 0 0 1 -2,2 2.0000001,2.0000001 0 0 1 -2,-2 2.0000001,2.0000001 0 0 1 1.949219,-2 z M 5,84 c 0,0 -1,10e-7 -1,1 v 1 h 2 v -2 z m 8,0 c 0,0 -1,10e-7 -1,1 v 1 h 2 v -2 z"
       transform="matrix(0.26458334,0,0,0.26458334,1.8520833,-3.4395833)"
       mask="url(#mask-powermask-path-effect1389-5)" />
    <rect
       style="font-variation-settings:normal;opacity:1;vector-effect:none;fill:url(#linearGradient2402);fill-opacity:1;stroke:none;stroke-width:0.264583px;stroke-linecap:butt;stroke-linejoin:miter;stroke-miterlimit:4;stroke-dasharray:none;stroke-dashoffset:0;stroke-opacity:1;stop-color:#000000;stop-opacity:1"
       id="rect1353"
       width="0.52916592"
       height="0.52916592"
       x="3.96875"
       y="20.902084"
       rx="3.6718346e-17" />
    <path
       style="font-variation-settings:normal;opacity:1;vector-effect:none;fill:url(#linearGradient2404);fill-opacity:1;stroke:none;stroke-width:0.264583px;stroke-linecap:butt;stroke-linejoin:miter;stroke-miterlimit:4;stroke-dasharray:none;stroke-dashoffset:0;stroke-opacity:1;stop-color:#000000;stop-opacity:1"
       d="m 3.4788598,19.628363 c 0.04683,-0.486828 0.48153,-0.608541 0.742487,-0.608541 0.423486,0 0.7497214,0.25405 0.7497214,0.597173 0,0.305097 -0.3651434,0.532309 -0.3987644,0.563022 -0.125992,0.115091 -0.211803,0.11424 -0.235615,0.45459 h -0.354914 c -0.01585,-0.340026 0.05156,-0.493476 0.342308,-0.697632 0.07527,-0.05285 0.259652,-0.174733 0.259652,-0.338584 0,-0.186634 -0.156674,-0.280913 -0.347088,-0.280913 -0.190414,0 -0.340407,0.129816 -0.388814,0.360908 z"
       id="path1355" />
  </g>
</svg>
