<?xml version="1.0" encoding="UTF-8" standalone="no"?>
<svg
   version="1.0"
   width="16.000000pt"
   height="16.000000pt"
   viewBox="0 0 16.000000 16.000000"
   preserveAspectRatio="xMidYMid meet"
   id="svg2"
   xmlns:xlink="http://www.w3.org/1999/xlink"
   xmlns="http://www.w3.org/2000/svg"
   xmlns:svg="http://www.w3.org/2000/svg">
  <defs
     id="defs2">
    <linearGradient
       id="Main">
      <stop
         style="stop-color:#000000;stop-opacity:1;"
         offset="0"
         id="stop2082" />
    </linearGradient>
    <linearGradient
       id="Red">
      <stop
         style="stop-color:#ff664d;stop-opacity:1;"
         offset="0"
         id="stop2533" />
    </linearGradient>
    <mask
       maskUnits="userSpaceOnUse"
       id="mask-powermask-path-effect3119">
      <path
         id="path3117"
         style="opacity:1;fill:#000000;stroke:none;stroke-width:0.264583px;stroke-linecap:butt;stroke-linejoin:miter;stroke-opacity:1"
         d="m 10.250537,66.995394 -0.0047,0.0047 c -0.02767,-0.0066 -0.211799,-0.04039 -0.4563028,0.204116 C 9.6572915,67.468749 9.6572915,67.468749 9.5249999,67.49562 9.3927082,67.468749 9.3927082,67.468749 9.2604165,67.204166 9.061979,67.005731 8.8982935,66.990872 8.8289184,66.99591 c -0.023124,0.0016 -0.035657,0.0057 -0.035657,0.0057 0,0 -0.062009,0.20257 0.2025716,0.467154 0.2645833,0.132291 0.2645841,0.132291 0.291455,0.264583 -0.026871,0.132292 -0.026872,0.132292 -0.291455,0.264583 -0.2445017,0.244505 -0.2107512,0.428639 -0.2041218,0.456304 l -0.00465,0.0047 c 0,0 0.00465,2.65e-4 0.00517,5.29e-4 1.736e-4,5.3e-4 0.00103,0.0057 0.00103,0.0057 l 0.00465,-0.0047 c 0.027721,0.0066 0.2118445,0.04033 0.4563028,-0.204123 0.1322919,-0.264584 0.1322919,-0.264584 0.2645833,-0.291455 0.1322919,0.02687 0.1322917,0.02687 0.2645833,0.291455 0.1984378,0.198435 0.3621234,0.213294 0.4314984,0.208256 0.02312,-0.0016 0.03566,-0.0057 0.03566,-0.0057 0,0 0.06201,-0.20257 -0.202572,-0.467156 -0.2645836,-0.132289 -0.2645839,-0.132291 -0.291455,-0.264583 0.026871,-0.132279 0.026873,-0.132292 0.291455,-0.264583 0.244502,-0.244505 0.210752,-0.428639 0.204122,-0.456304 l 0.0047,-0.0047 c 0,0 -0.0046,-7.94e-4 -0.0052,-0.0011 -1.47e-4,-5.29e-4 -10e-4,-0.0052 -10e-4,-0.0052 z" />
    </mask>
    <linearGradient
       id="Main-6">
      <stop
         style="stop-color:#4d4d4d;stop-opacity:1;"
         offset="0"
         id="stop2082-3" />
    </linearGradient>
    <linearGradient
       id="Green"
       gradientTransform="scale(3.7795276)">
      <stop
         style="stop-color:#66ff7a;stop-opacity:1;"
         offset="0"
         id="stop2506" />
    </linearGradient>
    <mask
       maskUnits="userSpaceOnUse"
       id="mask-powermask-path-effect1741">
      <path
         id="path1739"
         style="font-variation-settings:normal;opacity:1;vector-effect:none;fill:#000000;fill-opacity:0.992157;stroke:none;stroke-width:0.264583;stroke-linecap:butt;stroke-linejoin:miter;stroke-miterlimit:4;stroke-dasharray:none;stroke-dashoffset:0;stroke-opacity:1;marker:none;paint-order:fill markers stroke;stop-color:#000000;stop-opacity:1"
         d="m 20.095414,60.589583 a 0.52916663,0.52916663 0 0 0 -0.516248,0.529166 0.52916663,0.52916663 0 0 0 0.529167,0.529167 0.52916663,0.52916663 0 0 0 0.529167,-0.529167 0.52916663,0.52916663 0 0 0 -0.529167,-0.529166 0.52916663,0.52916663 0 0 0 -0.01292,0 z m -1.058333,2.116666 A 0.52916663,0.52916663 0 0 0 18.520833,63.235416 0.52916663,0.52916663 0 0 0 19.05,63.764583 0.52916663,0.52916663 0 0 0 19.579166,63.235416 0.52916663,0.52916663 0 0 0 19.05,62.706249 a 0.52916663,0.52916663 0 0 0 -0.01292,0 z m 2.116666,0 a 0.52916663,0.52916663 0 0 0 -0.516247,0.529167 0.52916663,0.52916663 0 0 0 0.529166,0.529167 0.52916663,0.52916663 0 0 0 0.529167,-0.529167 0.52916663,0.52916663 0 0 0 -0.529167,-0.529167 0.52916663,0.52916663 0 0 0 -0.01292,0 z" />
    </mask>
    <mask
       maskUnits="userSpaceOnUse"
       id="mask-powermask-path-effect1389">
      <path
         id="path1387"
         style="font-variation-settings:normal;opacity:1;vector-effect:none;fill:#000000;fill-opacity:0.992157;stroke:none;stroke-width:0.264583;stroke-linecap:butt;stroke-linejoin:miter;stroke-miterlimit:4;stroke-dasharray:none;stroke-dashoffset:0;stroke-opacity:1;stop-color:#000000;stop-opacity:1"
         transform="matrix(3.7795275,0,0,3.7795275,-6.9999997,-6.9999997)" />
    </mask>
    <linearGradient
       xlink:href="#Main-6"
       id="linearGradient2310"
       x1="7.6729169"
       y1="20.902056"
       x2="11.641667"
       y2="20.902056"
       gradientUnits="userSpaceOnUse" />
    <linearGradient
       xlink:href="#Main-6"
       id="linearGradient2312"
       x1="8.7312498"
       y1="18.634495"
       x2="9.8087034"
       y2="18.634495"
       gradientUnits="userSpaceOnUse" />
  </defs>
  <g
     id="light"
     style="display:inline"
     transform="matrix(3.7795264,0,0,3.7465743,-27.999988,-67.267614)">
    <rect
       style="opacity:0;fill:#a51d2d;stroke-width:0.264583px;paint-order:fill markers stroke;stop-color:#000000"
       id="rect1410"
       width="4.2333331"
       height="4.2333331"
       x="7.4083323"
       y="17.991667"
       rx="1.9824198e-15" />
    <path
       id="rect1005"
       style="font-variation-settings:normal;opacity:1;vector-effect:none;fill:url(#linearGradient2310);fill-opacity:1;stroke:none;stroke-width:0.264583px;stroke-linecap:butt;stroke-linejoin:miter;stroke-miterlimit:4;stroke-dasharray:none;stroke-dashoffset:0;stroke-opacity:1;stop-color:#000000;stop-opacity:1"
       d="m 9.2604167,19.579139 -0.529167,0.529167 v 1.322916 h -1.058333 v 0.264584 c 0,0.29316 0.236007,0.529166 0.529167,0.529166 H 10.31875 c 0.29316,0 0.529167,-0.236006 0.529167,-0.529166 0.52917,0 0.79375,-0.138564 0.79375,-0.661459 0,-0.537573 -0.377708,-0.661458 -0.661458,-0.661458 -0.25713,0 -0.661459,0.06577 -0.661459,0.396875 0,0.320575 0.264587,0.396875 0.529167,0.396875 v -0.264583 c -0.160619,0 -0.245463,0 -0.245463,-0.132292 0,-0.121612 0.100252,-0.132292 0.377755,-0.132292 0.32318,0 0.396875,0.197611 0.396875,0.396875 0,0.336315 -0.264577,0.396875 -0.529167,0.396875 H 9.7895837 v -1.852083 z m 0.107487,0.264584 h 0.157096 v 1.587499 h -0.529166 v -1.215429 z m -1.430404,1.852083 h 2.6458343 c 0,0 -4e-6,0.264583 -0.264584,0.264583 H 8.2020837 c -0.264585,0 -0.264584,-0.264583 -0.264584,-0.264583 z" />
    <path
       id="path1034"
       style="font-variation-settings:normal;opacity:1;vector-effect:none;fill:url(#linearGradient2312);fill-opacity:1;stroke:none;stroke-width:0.264583px;stroke-linecap:butt;stroke-linejoin:miter;stroke-miterlimit:4;stroke-dasharray:none;stroke-dashoffset:0;stroke-opacity:1;stop-color:#000000;stop-opacity:1"
       d="m 8.9808467,17.954432 c 0.174874,0.699492 -0.249597,0.644263 -0.249597,0.971517 0,0.241483 0.0899,0.388607 0.529167,0.388607 0.36296,0 0.548287,-0.146481 0.548287,-0.404626 0,-0.499817 -0.569263,-0.944354 -0.827857,-0.955498 z m 0.280087,0.445968 c 0.12115,0.108594 0.250338,0.237265 0.290938,0.454236 0,0.06718 -0.0068,0.126624 -0.03514,0.147794 -0.02826,0.02118 -0.108928,0.05426 -0.255798,0.05426 -0.17336,-0.02599 -0.257315,0.01369 -0.256315,-0.171565 0.0403,-0.110583 0.06666,-0.07326 0.125056,-0.152446 0.05866,-0.07948 0.108059,-0.19064 0.131259,-0.332279 z" />
  </g>
</svg>
