<?xml version="1.0" encoding="UTF-8" standalone="no"?>
<!-- Created with Inkscape (http://www.inkscape.org/) -->

<svg
   width="48pt"
   height="48pt"
   viewBox="0 0 16.933333 16.933333"
   version="1.1"
   id="svg1"
   xmlns="http://www.w3.org/2000/svg"
   xmlns:svg="http://www.w3.org/2000/svg">
  <defs
     id="defs1" />
  <g
     id="lighting-lamp"
     style="display:inline"
     transform="matrix(1.3333345,0,0,1.333334,-190.85286,-127.35283)">
    <rect
       style="font-variation-settings:normal;display:inline;opacity:1;vector-effect:none;fill:#cccbc8;fill-opacity:1;stroke:none;stroke-width:0.264583;stroke-linecap:butt;stroke-linejoin:miter;stroke-miterlimit:3.4;stroke-dasharray:0.264583, 0.79375;stroke-dashoffset:0;stroke-opacity:1;paint-order:fill markers stroke;stop-color:#000000;stop-opacity:1"
       id="rect3540"
       width="12.699989"
       height="12.699994"
       x="144.99161"
       y="97.366661"
       ry="0.13229166"
       transform="translate(-1.8520833,-1.8520833)" />
    <ellipse
       style="font-variation-settings:normal;display:inline;opacity:1;vector-effect:none;fill:#ffffff;fill-opacity:1;stroke:none;stroke-width:0.264583px;stroke-linecap:butt;stroke-linejoin:miter;stroke-miterlimit:4;stroke-dasharray:none;stroke-dashoffset:0;stroke-opacity:1;paint-order:fill markers stroke;stop-color:#000000;stop-opacity:1"
       id="ellipse3462"
       cx="149.48958"
       cy="101.86462"
       rx="1.8521135"
       ry="1.8521138" />
    <path
       id="ellipse3464"
       style="font-variation-settings:normal;display:inline;opacity:1;vector-effect:none;fill:#ffffff;fill-opacity:1;stroke:none;stroke-width:0.999999px;stroke-linecap:butt;stroke-linejoin:miter;stroke-miterlimit:4;stroke-dasharray:none;stroke-dashoffset:0;stroke-opacity:1;paint-order:fill markers stroke;stop-color:#000000;stop-opacity:1"
       d="M 564.88672,370 A 15,15 0 0 0 550,385 a 15,15 0 0 0 15,15 15,15 0 0 0 15,-15 15,15 0 0 0 -15,-15 15,15 0 0 0 -0.11328,0 z M 565,371 a 14,14 0 0 1 14,14 14,14 0 0 1 -14,14 14,14 0 0 1 -14,-14 14,14 0 0 1 14,-14 z"
       transform="scale(0.26458333)" />
  </g>
</svg>
