<?xml version="1.0" encoding="UTF-8" standalone="no"?>
<svg
   version="1.0"
   width="16.000000pt"
   height="16.000000pt"
   viewBox="0 0 16.000000 16.000000"
   preserveAspectRatio="xMidYMid meet"
   id="svg2"
   xmlns:xlink="http://www.w3.org/1999/xlink"
   xmlns="http://www.w3.org/2000/svg"
   xmlns:svg="http://www.w3.org/2000/svg">
  <defs
     id="defs2">
    <linearGradient
       id="Main">
      <stop
         style="stop-color:#000000;stop-opacity:1;"
         offset="0"
         id="stop2082" />
    </linearGradient>
    <linearGradient
       id="Red">
      <stop
         style="stop-color:#ff664d;stop-opacity:1;"
         offset="0"
         id="stop2533" />
    </linearGradient>
    <mask
       maskUnits="userSpaceOnUse"
       id="mask-powermask-path-effect3119">
      <path
         id="path3117"
         style="opacity:1;fill:#000000;stroke:none;stroke-width:0.264583px;stroke-linecap:butt;stroke-linejoin:miter;stroke-opacity:1"
         d="m 10.250537,66.995394 -0.0047,0.0047 c -0.02767,-0.0066 -0.211799,-0.04039 -0.4563028,0.204116 C 9.6572915,67.468749 9.6572915,67.468749 9.5249999,67.49562 9.3927082,67.468749 9.3927082,67.468749 9.2604165,67.204166 9.061979,67.005731 8.8982935,66.990872 8.8289184,66.99591 c -0.023124,0.0016 -0.035657,0.0057 -0.035657,0.0057 0,0 -0.062009,0.20257 0.2025716,0.467154 0.2645833,0.132291 0.2645841,0.132291 0.291455,0.264583 -0.026871,0.132292 -0.026872,0.132292 -0.291455,0.264583 -0.2445017,0.244505 -0.2107512,0.428639 -0.2041218,0.456304 l -0.00465,0.0047 c 0,0 0.00465,2.65e-4 0.00517,5.29e-4 1.736e-4,5.3e-4 0.00103,0.0057 0.00103,0.0057 l 0.00465,-0.0047 c 0.027721,0.0066 0.2118445,0.04033 0.4563028,-0.204123 0.1322919,-0.264584 0.1322919,-0.264584 0.2645833,-0.291455 0.1322919,0.02687 0.1322917,0.02687 0.2645833,0.291455 0.1984378,0.198435 0.3621234,0.213294 0.4314984,0.208256 0.02312,-0.0016 0.03566,-0.0057 0.03566,-0.0057 0,0 0.06201,-0.20257 -0.202572,-0.467156 -0.2645836,-0.132289 -0.2645839,-0.132291 -0.291455,-0.264583 0.026871,-0.132279 0.026873,-0.132292 0.291455,-0.264583 0.244502,-0.244505 0.210752,-0.428639 0.204122,-0.456304 l 0.0047,-0.0047 c 0,0 -0.0046,-7.94e-4 -0.0052,-0.0011 -1.47e-4,-5.29e-4 -10e-4,-0.0052 -10e-4,-0.0052 z" />
    </mask>
    <linearGradient
       id="Main-6">
      <stop
         style="stop-color:#4d4d4d;stop-opacity:1;"
         offset="0"
         id="stop2082-3" />
    </linearGradient>
    <linearGradient
       id="Green"
       gradientTransform="scale(3.7795276)">
      <stop
         style="stop-color:#66ff7a;stop-opacity:1;"
         offset="0"
         id="stop2506" />
    </linearGradient>
    <mask
       maskUnits="userSpaceOnUse"
       id="mask-powermask-path-effect1741">
      <path
         id="path1739"
         style="font-variation-settings:normal;opacity:1;vector-effect:none;fill:#000000;fill-opacity:0.992157;stroke:none;stroke-width:0.264583;stroke-linecap:butt;stroke-linejoin:miter;stroke-miterlimit:4;stroke-dasharray:none;stroke-dashoffset:0;stroke-opacity:1;marker:none;paint-order:fill markers stroke;stop-color:#000000;stop-opacity:1"
         d="m 20.095414,60.589583 a 0.52916663,0.52916663 0 0 0 -0.516248,0.529166 0.52916663,0.52916663 0 0 0 0.529167,0.529167 0.52916663,0.52916663 0 0 0 0.529167,-0.529167 0.52916663,0.52916663 0 0 0 -0.529167,-0.529166 0.52916663,0.52916663 0 0 0 -0.01292,0 z m -1.058333,2.116666 A 0.52916663,0.52916663 0 0 0 18.520833,63.235416 0.52916663,0.52916663 0 0 0 19.05,63.764583 0.52916663,0.52916663 0 0 0 19.579166,63.235416 0.52916663,0.52916663 0 0 0 19.05,62.706249 a 0.52916663,0.52916663 0 0 0 -0.01292,0 z m 2.116666,0 a 0.52916663,0.52916663 0 0 0 -0.516247,0.529167 0.52916663,0.52916663 0 0 0 0.529166,0.529167 0.52916663,0.52916663 0 0 0 0.529167,-0.529167 0.52916663,0.52916663 0 0 0 -0.529167,-0.529167 0.52916663,0.52916663 0 0 0 -0.01292,0 z" />
    </mask>
    <mask
       maskUnits="userSpaceOnUse"
       id="mask-powermask-path-effect1389">
      <path
         id="path1387"
         style="font-variation-settings:normal;opacity:1;vector-effect:none;fill:#000000;fill-opacity:0.992157;stroke:none;stroke-width:0.264583;stroke-linecap:butt;stroke-linejoin:miter;stroke-miterlimit:4;stroke-dasharray:none;stroke-dashoffset:0;stroke-opacity:1;stop-color:#000000;stop-opacity:1"
         transform="matrix(3.7795275,0,0,3.7795275,-6.9999997,-6.9999997)" />
    </mask>
    <linearGradient
       id="Blue"
       gradientTransform="matrix(0.26458333,0,0,0.26458333,-13.80713,103.48169)">
      <stop
         style="stop-color:#55c3ff;stop-opacity:1;"
         offset="0"
         id="stop2484" />
    </linearGradient>
    <linearGradient
       id="Orange">
      <stop
         style="stop-color:#fdb433;stop-opacity:1;"
         offset="0"
         id="stop2584" />
    </linearGradient>
    <linearGradient
       xlink:href="#Main-6"
       id="linearGradient2204"
       x1="-25.818237"
       y1="39.662796"
       x2="-24.321527"
       y2="39.662796"
       gradientUnits="userSpaceOnUse" />
    <linearGradient
       xlink:href="#Main-6"
       id="linearGradient2206"
       x1="8.2020855"
       y1="45.772919"
       x2="9.2604179"
       y2="45.772919"
       gradientUnits="userSpaceOnUse" />
    <linearGradient
       xlink:href="#Main-6"
       id="linearGradient2208"
       x1="8.2020855"
       y1="47.360416"
       x2="9.2604179"
       y2="47.360416"
       gradientUnits="userSpaceOnUse" />
    <linearGradient
       xlink:href="#Main-6"
       id="linearGradient2210"
       x1="9.7895861"
       y1="47.360416"
       x2="10.847917"
       y2="47.360416"
       gradientUnits="userSpaceOnUse" />
    <linearGradient
       xlink:href="#Main-6"
       id="linearGradient2186"
       x1="27"
       y1="163"
       x2="31"
       y2="163"
       gradientUnits="userSpaceOnUse" />
    <linearGradient
       xlink:href="#Main-6"
       id="linearGradient2212"
       x1="8.9958334"
       y1="48.154167"
       x2="10.054167"
       y2="48.154167"
       gradientUnits="userSpaceOnUse" />
    <linearGradient
       xlink:href="#Main-6"
       id="linearGradient2214"
       x1="7.4083352"
       y1="46.566669"
       x2="8.4666681"
       y2="46.566669"
       gradientUnits="userSpaceOnUse" />
    <linearGradient
       xlink:href="#Main-6"
       id="linearGradient2216"
       x1="10.583335"
       y1="46.566669"
       x2="11.641668"
       y2="46.566669"
       gradientUnits="userSpaceOnUse" />
  </defs>
  <g
     id="magic-effect"
     transform="matrix(3.7795278,0,0,3.7795278,-27.999998,-168)"
     style="display:inline">
    <rect
       style="opacity:0;fill:#a51d2d;stroke-width:0.264583px;paint-order:fill markers stroke;stop-color:#000000"
       id="rect1483"
       width="4.2333331"
       height="4.2333331"
       x="7.4083323"
       y="44.449997"
       rx="1.9824198e-15" />
    <path
       id="rect1699"
       style="font-variation-settings:normal;opacity:1;vector-effect:none;fill:url(#linearGradient2204);fill-opacity:1;stroke:none;stroke-width:0.264583px;stroke-linecap:butt;stroke-linejoin:miter;stroke-miterlimit:4;stroke-dasharray:none;stroke-dashoffset:0;stroke-opacity:1;marker:none;paint-order:fill markers stroke;stop-color:#000000;stop-opacity:1"
       transform="rotate(-45)"
       d="m -25.631978,39.530506 h 1.124191 l 0.186259,0.132293 -0.186259,0.13229 h -1.124191 l -0.186259,-0.13229 z" />
    <path
       id="path1702"
       style="font-variation-settings:normal;opacity:1;vector-effect:none;fill:url(#linearGradient2206);fill-opacity:1;stroke:none;stroke-width:0.264583px;stroke-linecap:butt;stroke-linejoin:miter;stroke-miterlimit:4;stroke-dasharray:none;stroke-dashoffset:0;stroke-opacity:1;marker:none;paint-order:fill markers stroke;stop-color:#000000;stop-opacity:1"
       d="m 8.2402436,45.469002 0.7949232,0.794923 0.2252513,0.03816 -0.03816,-0.225249 -0.7949239,-0.794923 -0.2252483,-0.03816 z" />
    <path
       id="path1704"
       style="font-variation-settings:normal;opacity:1;vector-effect:none;fill:url(#linearGradient2208);fill-opacity:1;stroke:none;stroke-width:0.264583px;stroke-linecap:butt;stroke-linejoin:miter;stroke-miterlimit:4;stroke-dasharray:none;stroke-dashoffset:0;stroke-opacity:1;marker:none;paint-order:fill markers stroke;stop-color:#000000;stop-opacity:1"
       d="m 9.2222604,47.0565 -0.7949232,0.794923 -0.2252513,0.03816 0.03816,-0.225249 0.7949239,-0.794923 0.2252483,-0.03816 z" />
    <path
       id="path1706"
       style="font-variation-settings:normal;opacity:1;vector-effect:none;fill:url(#linearGradient2210);fill-opacity:1;stroke:none;stroke-width:0.264583px;stroke-linecap:butt;stroke-linejoin:miter;stroke-miterlimit:4;stroke-dasharray:none;stroke-dashoffset:0;stroke-opacity:1;marker:none;paint-order:fill markers stroke;stop-color:#000000;stop-opacity:1"
       d="m 9.8277434,47.0565 0.7949226,0.794923 0.225251,0.03816 -0.03816,-0.225249 -0.794923,-0.794923 -0.2252483,-0.03816 z" />
    <path
       id="path1708"
       style="font-variation-settings:normal;opacity:1;vector-effect:none;fill:url(#linearGradient2186);fill-opacity:1;stroke:none;stroke-width:0.999999px;stroke-linecap:butt;stroke-linejoin:miter;stroke-miterlimit:4;stroke-dasharray:none;stroke-dashoffset:0;stroke-opacity:1;marker:none;paint-order:fill markers stroke;stop-color:#000000;stop-opacity:1"
       d="m 28,161 c 1e-6,0.50001 -0.499999,1.00001 -1,1 v 2 c 0.500001,1e-5 1.000001,0.50001 1,1 h 2 c 1e-6,-0.49999 0.500001,-0.99999 1,-1 v -2 c -0.499999,1e-5 -0.999999,-0.49999 -1,-1 z m 0,1 h 2 v 2 h -2 z"
       transform="matrix(0.26458333,0,0,0.26458333,1.8520833,1.8520833)" />
    <path
       id="path1714"
       style="font-variation-settings:normal;opacity:1;vector-effect:none;fill:url(#linearGradient2212);fill-opacity:1;stroke:none;stroke-width:0.264583px;stroke-linecap:butt;stroke-linejoin:miter;stroke-miterlimit:4;stroke-dasharray:none;stroke-dashoffset:0;stroke-opacity:1;marker:none;paint-order:fill markers stroke;stop-color:#000000;stop-opacity:1"
       d="m 9.2604165,47.624999 c 3e-7,0.132294 -0.1322914,0.264586 -0.2645833,0.264583 v 0.529167 c 0.1322919,2e-6 0.2645836,0.132294 0.2645833,0.264583 h 0.5291667 c 3e-7,-0.132289 0.1322919,-0.264581 0.2645838,-0.264583 v -0.529167 c -0.1322919,3e-6 -0.2645835,-0.132289 -0.2645838,-0.264583 z m 0,0.264583 h 0.5291667 v 0.529167 H 9.2604165 Z" />
    <path
       id="path1716"
       style="font-variation-settings:normal;opacity:1;vector-effect:none;fill:url(#linearGradient2214);fill-opacity:1;stroke:none;stroke-width:0.264583px;stroke-linecap:butt;stroke-linejoin:miter;stroke-miterlimit:4;stroke-dasharray:none;stroke-dashoffset:0;stroke-opacity:1;marker:none;paint-order:fill markers stroke;stop-color:#000000;stop-opacity:1"
       d="m 7.6729184,46.037501 c 0,0.132294 -0.132292,0.264586 -0.264583,0.264583 v 0.529167 c 0.132291,2e-6 0.264583,0.132294 0.264583,0.264583 h 0.529167 c 0,-0.132289 0.132291,-0.264581 0.264583,-0.264583 v -0.529167 c -0.132292,3e-6 -0.264583,-0.132289 -0.264583,-0.264583 z m 0,0.264583 h 0.529167 v 0.529167 h -0.529167 z" />
    <path
       id="path1718"
       style="font-variation-settings:normal;opacity:1;vector-effect:none;fill:url(#linearGradient2216);fill-opacity:1;stroke:none;stroke-width:0.264583px;stroke-linecap:butt;stroke-linejoin:miter;stroke-miterlimit:4;stroke-dasharray:none;stroke-dashoffset:0;stroke-opacity:1;marker:none;paint-order:fill markers stroke;stop-color:#000000;stop-opacity:1"
       d="m 10.847918,46.037501 c 0,0.132294 -0.132292,0.264586 -0.264583,0.264583 v 0.529167 c 0.132291,2e-6 0.264583,0.132294 0.264583,0.264583 h 0.529167 c 0,-0.132289 0.132291,-0.264581 0.264583,-0.264583 v -0.529167 c -0.132292,3e-6 -0.264583,-0.132289 -0.264583,-0.264583 z m 0,0.264583 h 0.529167 v 0.529167 h -0.529167 z" />
  </g>
</svg>
