<?xml version="1.0" encoding="UTF-8" standalone="no"?>
<svg
   version="1.0"
   width="16.000000pt"
   height="16.000000pt"
   viewBox="0 0 16.000000 16.000000"
   preserveAspectRatio="xMidYMid meet"
   id="svg2"
   xmlns:xlink="http://www.w3.org/1999/xlink"
   xmlns="http://www.w3.org/2000/svg"
   xmlns:svg="http://www.w3.org/2000/svg">
  <defs
     id="defs2">
    <linearGradient
       id="Main">
      <stop
         style="stop-color:#000000;stop-opacity:1;"
         offset="0"
         id="stop2082" />
    </linearGradient>
    <linearGradient
       id="Red">
      <stop
         style="stop-color:#ff4d4d;stop-opacity:1;"
         offset="0"
         id="stop2533" />
    </linearGradient>
    <mask
       maskUnits="userSpaceOnUse"
       id="mask-powermask-path-effect3119">
      <path
         id="path3117"
         style="opacity:1;fill:#000000;stroke:none;stroke-width:0.264583px;stroke-linecap:butt;stroke-linejoin:miter;stroke-opacity:1"
         d="m 10.250537,66.995394 -0.0047,0.0047 c -0.02767,-0.0066 -0.211799,-0.04039 -0.4563028,0.204116 C 9.6572915,67.468749 9.6572915,67.468749 9.5249999,67.49562 9.3927082,67.468749 9.3927082,67.468749 9.2604165,67.204166 9.061979,67.005731 8.8982935,66.990872 8.8289184,66.99591 c -0.023124,0.0016 -0.035657,0.0057 -0.035657,0.0057 0,0 -0.062009,0.20257 0.2025716,0.467154 0.2645833,0.132291 0.2645841,0.132291 0.291455,0.264583 -0.026871,0.132292 -0.026872,0.132292 -0.291455,0.264583 -0.2445017,0.244505 -0.2107512,0.428639 -0.2041218,0.456304 l -0.00465,0.0047 c 0,0 0.00465,2.65e-4 0.00517,5.29e-4 1.736e-4,5.3e-4 0.00103,0.0057 0.00103,0.0057 l 0.00465,-0.0047 c 0.027721,0.0066 0.2118445,0.04033 0.4563028,-0.204123 0.1322919,-0.264584 0.1322919,-0.264584 0.2645833,-0.291455 0.1322919,0.02687 0.1322917,0.02687 0.2645833,0.291455 0.1984378,0.198435 0.3621234,0.213294 0.4314984,0.208256 0.02312,-0.0016 0.03566,-0.0057 0.03566,-0.0057 0,0 0.06201,-0.20257 -0.202572,-0.467156 -0.2645836,-0.132289 -0.2645839,-0.132291 -0.291455,-0.264583 0.026871,-0.132279 0.026873,-0.132292 0.291455,-0.264583 0.244502,-0.244505 0.210752,-0.428639 0.204122,-0.456304 l 0.0047,-0.0047 c 0,0 -0.0046,-7.94e-4 -0.0052,-0.0011 -1.47e-4,-5.29e-4 -10e-4,-0.0052 -10e-4,-0.0052 z" />
    </mask>
    <mask
       maskUnits="userSpaceOnUse"
       id="mask-powermask-path-effect3119-5">
      <path
         id="mask-powermask-path-effect3119_box"
         style="fill:#ffffff;fill-opacity:1"
         d="M 6.9374996,65.145837 H 12.1125 v 5.175 H 6.9374996 Z" />
      <path
         id="path3117-7"
         style="opacity:1;fill:#000000;stroke:none;stroke-width:0.264583px;stroke-linecap:butt;stroke-linejoin:miter;stroke-opacity:1"
         d="m 10.250537,66.995394 -0.0047,0.0047 c -0.02767,-0.0066 -0.211799,-0.04039 -0.4563028,0.204116 C 9.6572915,67.468749 9.6572915,67.468749 9.5249999,67.49562 9.3927082,67.468749 9.3927082,67.468749 9.2604165,67.204166 9.061979,67.005731 8.8982935,66.990872 8.8289184,66.99591 c -0.023124,0.0016 -0.035657,0.0057 -0.035657,0.0057 0,0 -0.062009,0.20257 0.2025716,0.467154 0.2645833,0.132291 0.2645841,0.132291 0.291455,0.264583 -0.026871,0.132292 -0.026872,0.132292 -0.291455,0.264583 -0.2445017,0.244505 -0.2107512,0.428639 -0.2041218,0.456304 l -0.00465,0.0047 c 0,0 0.00465,2.65e-4 0.00517,5.29e-4 1.736e-4,5.3e-4 0.00103,0.0057 0.00103,0.0057 l 0.00465,-0.0047 c 0.027721,0.0066 0.2118445,0.04033 0.4563028,-0.204123 0.1322919,-0.264584 0.1322919,-0.264584 0.2645833,-0.291455 0.1322919,0.02687 0.1322917,0.02687 0.2645833,0.291455 0.1984378,0.198435 0.3621234,0.213294 0.4314984,0.208256 0.02312,-0.0016 0.03566,-0.0057 0.03566,-0.0057 0,0 0.06201,-0.20257 -0.202572,-0.467156 -0.2645836,-0.132289 -0.2645839,-0.132291 -0.291455,-0.264583 0.026871,-0.132279 0.026873,-0.132292 0.291455,-0.264583 0.244502,-0.244505 0.210752,-0.428639 0.204122,-0.456304 l 0.0047,-0.0047 c 0,0 -0.0046,-7.94e-4 -0.0052,-0.0011 -1.47e-4,-5.29e-4 -10e-4,-0.0052 -10e-4,-0.0052 z" />
    </mask>
    <filter
       id="mask-powermask-path-effect3119_inverse"
       style="color-interpolation-filters:sRGB"
       height="100"
       width="100"
       x="-50"
       y="-50">
      <feColorMatrix
         id="mask-powermask-path-effect3119_primitive1"
         values="1"
         type="saturate"
         result="fbSourceGraphic" />
      <feColorMatrix
         id="mask-powermask-path-effect3119_primitive2"
         values="-1 0 0 0 1 0 -1 0 0 1 0 0 -1 0 1 0 0 0 1 0 "
         in="fbSourceGraphic" />
    </filter>
    <mask
       maskUnits="userSpaceOnUse"
       id="mask-powermask-path-effect3119-7" />
    <mask
       maskUnits="userSpaceOnUse"
       id="mask-powermask-path-effect3119-9">
      <path
         id="mask-powermask-path-effect3119_box-8"
         style="fill:#ffffff;fill-opacity:1"
         d="M 6.9374996,65.145837 H 12.1125 v 5.175 H 6.9374996 Z" />
      <path
         id="path3117-8"
         style="opacity:1;fill:#000000;stroke:none;stroke-width:0.264583px;stroke-linecap:butt;stroke-linejoin:miter;stroke-opacity:1"
         d="m 10.250537,66.995394 -0.0047,0.0047 c -0.02767,-0.0066 -0.211799,-0.04039 -0.4563028,0.204116 C 9.6572915,67.468749 9.6572915,67.468749 9.5249999,67.49562 9.3927082,67.468749 9.3927082,67.468749 9.2604165,67.204166 9.061979,67.005731 8.8982935,66.990872 8.8289184,66.99591 c -0.023124,0.0016 -0.035657,0.0057 -0.035657,0.0057 0,0 -0.062009,0.20257 0.2025716,0.467154 0.2645833,0.132291 0.2645841,0.132291 0.291455,0.264583 -0.026871,0.132292 -0.026872,0.132292 -0.291455,0.264583 -0.2445017,0.244505 -0.2107512,0.428639 -0.2041218,0.456304 l -0.00465,0.0047 c 0,0 0.00465,2.65e-4 0.00517,5.29e-4 1.736e-4,5.3e-4 0.00103,0.0057 0.00103,0.0057 l 0.00465,-0.0047 c 0.027721,0.0066 0.2118445,0.04033 0.4563028,-0.204123 0.1322919,-0.264584 0.1322919,-0.264584 0.2645833,-0.291455 0.1322919,0.02687 0.1322917,0.02687 0.2645833,0.291455 0.1984378,0.198435 0.3621234,0.213294 0.4314984,0.208256 0.02312,-0.0016 0.03566,-0.0057 0.03566,-0.0057 0,0 0.06201,-0.20257 -0.202572,-0.467156 -0.2645836,-0.132289 -0.2645839,-0.132291 -0.291455,-0.264583 0.026871,-0.132279 0.026873,-0.132292 0.291455,-0.264583 0.244502,-0.244505 0.210752,-0.428639 0.204122,-0.456304 l 0.0047,-0.0047 c 0,0 -0.0046,-7.94e-4 -0.0052,-0.0011 -1.47e-4,-5.29e-4 -10e-4,-0.0052 -10e-4,-0.0052 z" />
    </mask>
    <filter
       id="mask-powermask-path-effect3119_inverse-0"
       style="color-interpolation-filters:sRGB"
       height="100"
       width="100"
       x="-50"
       y="-50">
      <feColorMatrix
         id="mask-powermask-path-effect3119_primitive1-9"
         values="1"
         type="saturate"
         result="fbSourceGraphic" />
      <feColorMatrix
         id="mask-powermask-path-effect3119_primitive2-4"
         values="-1 0 0 0 1 0 -1 0 0 1 0 0 -1 0 1 0 0 0 1 0 "
         in="fbSourceGraphic" />
    </filter>
    <mask
       maskUnits="userSpaceOnUse"
       id="mask-powermask-path-effect3119-3">
      <path
         id="path3"
         style="fill:#ffffff;fill-opacity:1"
         d="M 6.9374996,65.145837 H 12.1125 v 5.175 H 6.9374996 Z" />
      <path
         id="path4"
         style="opacity:1;fill:#000000;stroke:none;stroke-width:0.264583px;stroke-linecap:butt;stroke-linejoin:miter;stroke-opacity:1"
         d="m 10.250537,66.995394 -0.0047,0.0047 c -0.02767,-0.0066 -0.211799,-0.04039 -0.4563028,0.204116 C 9.6572915,67.468749 9.6572915,67.468749 9.5249999,67.49562 9.3927082,67.468749 9.3927082,67.468749 9.2604165,67.204166 9.061979,67.005731 8.8982935,66.990872 8.8289184,66.99591 c -0.023124,0.0016 -0.035657,0.0057 -0.035657,0.0057 0,0 -0.062009,0.20257 0.2025716,0.467154 0.2645833,0.132291 0.2645841,0.132291 0.291455,0.264583 -0.026871,0.132292 -0.026872,0.132292 -0.291455,0.264583 -0.2445017,0.244505 -0.2107512,0.428639 -0.2041218,0.456304 l -0.00465,0.0047 c 0,0 0.00465,2.65e-4 0.00517,5.29e-4 1.736e-4,5.3e-4 0.00103,0.0057 0.00103,0.0057 l 0.00465,-0.0047 c 0.027721,0.0066 0.2118445,0.04033 0.4563028,-0.204123 0.1322919,-0.264584 0.1322919,-0.264584 0.2645833,-0.291455 0.1322919,0.02687 0.1322917,0.02687 0.2645833,0.291455 0.1984378,0.198435 0.3621234,0.213294 0.4314984,0.208256 0.02312,-0.0016 0.03566,-0.0057 0.03566,-0.0057 0,0 0.06201,-0.20257 -0.202572,-0.467156 -0.2645836,-0.132289 -0.2645839,-0.132291 -0.291455,-0.264583 0.026871,-0.132279 0.026873,-0.132292 0.291455,-0.264583 0.244502,-0.244505 0.210752,-0.428639 0.204122,-0.456304 l 0.0047,-0.0047 c 0,0 -0.0046,-7.94e-4 -0.0052,-0.0011 -1.47e-4,-5.29e-4 -10e-4,-0.0052 -10e-4,-0.0052 z" />
    </mask>
    <linearGradient
       xlink:href="#Red"
       id="linearGradient4031"
       gradientUnits="userSpaceOnUse"
       x1="23.283335"
       y1="-3.7041662"
       x2="27.516668"
       y2="-3.7041662" />
    <mask
       maskUnits="userSpaceOnUse"
       id="mask-powermask-path-effect3119-3-9">
      <path
         id="mask-powermask-path-effect3119-3_box"
         style="fill:#ffffff;fill-opacity:1"
         d="M 6.9374996,65.145837 H 12.1125 v 5.175 H 6.9374996 Z" />
      <path
         id="path3-2"
         style="fill:#ffffff;fill-opacity:1"
         d="M 6.9374996,65.145837 H 12.1125 v 5.175 H 6.9374996 Z" />
      <path
         id="path4-3"
         style="opacity:1;fill:#000000;stroke:none;stroke-width:0.264583px;stroke-linecap:butt;stroke-linejoin:miter;stroke-opacity:1"
         d="m 10.250537,66.995394 -0.0047,0.0047 c -0.02767,-0.0066 -0.211799,-0.04039 -0.4563028,0.204116 C 9.6572915,67.468749 9.6572915,67.468749 9.5249999,67.49562 9.3927082,67.468749 9.3927082,67.468749 9.2604165,67.204166 9.061979,67.005731 8.8982935,66.990872 8.8289184,66.99591 c -0.023124,0.0016 -0.035657,0.0057 -0.035657,0.0057 0,0 -0.062009,0.20257 0.2025716,0.467154 0.2645833,0.132291 0.2645841,0.132291 0.291455,0.264583 -0.026871,0.132292 -0.026872,0.132292 -0.291455,0.264583 -0.2445017,0.244505 -0.2107512,0.428639 -0.2041218,0.456304 l -0.00465,0.0047 c 0,0 0.00465,2.65e-4 0.00517,5.29e-4 1.736e-4,5.3e-4 0.00103,0.0057 0.00103,0.0057 l 0.00465,-0.0047 c 0.027721,0.0066 0.2118445,0.04033 0.4563028,-0.204123 0.1322919,-0.264584 0.1322919,-0.264584 0.2645833,-0.291455 0.1322919,0.02687 0.1322917,0.02687 0.2645833,0.291455 0.1984378,0.198435 0.3621234,0.213294 0.4314984,0.208256 0.02312,-0.0016 0.03566,-0.0057 0.03566,-0.0057 0,0 0.06201,-0.20257 -0.202572,-0.467156 -0.2645836,-0.132289 -0.2645839,-0.132291 -0.291455,-0.264583 0.026871,-0.132279 0.026873,-0.132292 0.291455,-0.264583 0.244502,-0.244505 0.210752,-0.428639 0.204122,-0.456304 l 0.0047,-0.0047 c 0,0 -0.0046,-7.94e-4 -0.0052,-0.0011 -1.47e-4,-5.29e-4 -10e-4,-0.0052 -10e-4,-0.0052 z" />
    </mask>
    <filter
       id="mask-powermask-path-effect3119-3_inverse"
       style="color-interpolation-filters:sRGB"
       height="100"
       width="100"
       x="-50"
       y="-50">
      <feColorMatrix
         id="mask-powermask-path-effect3119-3_primitive1"
         values="1"
         type="saturate"
         result="fbSourceGraphic" />
      <feColorMatrix
         id="mask-powermask-path-effect3119-3_primitive2"
         values="-1 0 0 0 1 0 -1 0 0 1 0 0 -1 0 1 0 0 0 1 0 "
         in="fbSourceGraphic" />
    </filter>
    <mask
       maskUnits="userSpaceOnUse"
       id="mask-powermask-path-effect3119-3-7">
      <path
         id="mask-powermask-path-effect3119-3-7_box"
         style="fill:#ffffff;fill-opacity:1"
         d="M 6.9374996,65.145837 H 12.1125 v 5.175 H 6.9374996 Z" />
      <path
         id="path1"
         style="fill:#ffffff;fill-opacity:1"
         d="M 6.9374996,65.145837 H 12.1125 v 5.175 H 6.9374996 Z" />
      <path
         id="path2"
         style="fill:#ffffff;fill-opacity:1"
         d="M 6.9374996,65.145837 H 12.1125 v 5.175 H 6.9374996 Z" />
      <path
         id="path5"
         style="opacity:1;fill:#000000;stroke:none;stroke-width:0.264583px;stroke-linecap:butt;stroke-linejoin:miter;stroke-opacity:1"
         d="m 10.250537,66.995394 -0.0047,0.0047 c -0.02767,-0.0066 -0.211799,-0.04039 -0.4563028,0.204116 C 9.6572915,67.468749 9.6572915,67.468749 9.5249999,67.49562 9.3927082,67.468749 9.3927082,67.468749 9.2604165,67.204166 9.061979,67.005731 8.8982935,66.990872 8.8289184,66.99591 c -0.023124,0.0016 -0.035657,0.0057 -0.035657,0.0057 0,0 -0.062009,0.20257 0.2025716,0.467154 0.2645833,0.132291 0.2645841,0.132291 0.291455,0.264583 -0.026871,0.132292 -0.026872,0.132292 -0.291455,0.264583 -0.2445017,0.244505 -0.2107512,0.428639 -0.2041218,0.456304 l -0.00465,0.0047 c 0,0 0.00465,2.65e-4 0.00517,5.29e-4 1.736e-4,5.3e-4 0.00103,0.0057 0.00103,0.0057 l 0.00465,-0.0047 c 0.027721,0.0066 0.2118445,0.04033 0.4563028,-0.204123 0.1322919,-0.264584 0.1322919,-0.264584 0.2645833,-0.291455 0.1322919,0.02687 0.1322917,0.02687 0.2645833,0.291455 0.1984378,0.198435 0.3621234,0.213294 0.4314984,0.208256 0.02312,-0.0016 0.03566,-0.0057 0.03566,-0.0057 0,0 0.06201,-0.20257 -0.202572,-0.467156 -0.2645836,-0.132289 -0.2645839,-0.132291 -0.291455,-0.264583 0.026871,-0.132279 0.026873,-0.132292 0.291455,-0.264583 0.244502,-0.244505 0.210752,-0.428639 0.204122,-0.456304 l 0.0047,-0.0047 c 0,0 -0.0046,-7.94e-4 -0.0052,-0.0011 -1.47e-4,-5.29e-4 -10e-4,-0.0052 -10e-4,-0.0052 z" />
    </mask>
    <filter
       id="mask-powermask-path-effect3119-3-7_inverse"
       style="color-interpolation-filters:sRGB"
       height="100"
       width="100"
       x="-50"
       y="-50">
      <feColorMatrix
         id="mask-powermask-path-effect3119-3-7_primitive1"
         values="1"
         type="saturate"
         result="fbSourceGraphic" />
      <feColorMatrix
         id="mask-powermask-path-effect3119-3-7_primitive2"
         values="-1 0 0 0 1 0 -1 0 0 1 0 0 -1 0 1 0 0 0 1 0 "
         in="fbSourceGraphic" />
    </filter>
  </defs>
  <g
     id="menu-close"
     style="display:inline"
     transform="matrix(3.7795278,0,0,3.7795278,-27.999998,-247.99997)">
    <path
       style="font-variation-settings:normal;opacity:1;vector-effect:none;fill:url(#linearGradient4031);fill-opacity:1;stroke:none;stroke-width:0.264583px;stroke-linecap:butt;stroke-linejoin:miter;stroke-miterlimit:4;stroke-dasharray:none;stroke-dashoffset:0;stroke-opacity:1;marker:none;paint-order:fill markers stroke;stop-color:#000000;stop-opacity:1"
       id="path2014"
       d="m 11.1125,67.733337 a 1.5875,1.5875 0 0 1 -1.5875004,1.5875 1.5875,1.5875 0 0 1 -1.5875,-1.5875 1.5875,1.5875 0 0 1 1.5875,-1.5875 1.5875,1.5875 0 0 1 1.5875004,1.5875 z" />
    <path
       d="m 8.7312489,66.939571 0.5681496,0.793757 -0.5667706,0.793743 h 0.4505184 l 0.3418591,-0.477482 0.3418593,0.477482 H 10.31737 L 9.7505997,67.733328 10.318749,66.939571 H 9.8661687 l -0.3411633,0.477497 -0.341176,-0.477497 z"
       style="color:#000000;font-style:normal;font-variant:normal;font-weight:normal;font-stretch:normal;font-size:medium;line-height:normal;font-family:sans-serif;font-variant-ligatures:normal;font-variant-position:normal;font-variant-caps:normal;font-variant-numeric:normal;font-variant-alternates:normal;font-variant-east-asian:normal;font-feature-settings:normal;font-variation-settings:normal;text-indent:0;text-align:start;text-decoration:none;text-decoration-line:none;text-decoration-style:solid;text-decoration-color:#000000;letter-spacing:normal;word-spacing:normal;text-transform:none;writing-mode:lr-tb;direction:ltr;text-orientation:mixed;dominant-baseline:auto;baseline-shift:baseline;text-anchor:start;white-space:normal;shape-padding:0;shape-margin:0;inline-size:0;clip-rule:nonzero;display:inline;overflow:visible;visibility:visible;isolation:auto;mix-blend-mode:normal;color-interpolation:sRGB;color-interpolation-filters:linearRGB;solid-color:#000000;solid-opacity:1;vector-effect:none;fill:#ffffff;fill-opacity:1;fill-rule:nonzero;stroke:none;stroke-width:0.374994px;stroke-linecap:butt;stroke-linejoin:miter;stroke-miterlimit:4;stroke-dasharray:none;stroke-dashoffset:0;stroke-opacity:1;color-rendering:auto;image-rendering:auto;shape-rendering:auto;text-rendering:auto;enable-background:accumulate;stop-color:#000000"
       id="path1-5" />
  </g>
</svg>
