<?xml version="1.0" encoding="UTF-8" standalone="no"?>
<svg
   version="1.0"
   width="16.000000pt"
   height="16.000000pt"
   viewBox="0 0 16.000000 16.000000"
   preserveAspectRatio="xMidYMid meet"
   id="svg2"
   xmlns:xlink="http://www.w3.org/1999/xlink"
   xmlns="http://www.w3.org/2000/svg"
   xmlns:svg="http://www.w3.org/2000/svg"
   xmlns:osb="http://www.openswatchbook.org/uri/2009/osb">
  <defs
     id="defs2">
    <linearGradient
       id="Main">
      <stop
         style="stop-color:#000000;stop-opacity:1;"
         offset="0"
         id="stop2082" />
    </linearGradient>
    <linearGradient
       id="Red">
      <stop
         style="stop-color:#ff664d;stop-opacity:1;"
         offset="0"
         id="stop2533" />
    </linearGradient>
    <mask
       maskUnits="userSpaceOnUse"
       id="mask-powermask-path-effect3119">
      <path
         id="path3117"
         style="opacity:1;fill:#000000;stroke:none;stroke-width:0.264583px;stroke-linecap:butt;stroke-linejoin:miter;stroke-opacity:1"
         d="m 10.250537,66.995394 -0.0047,0.0047 c -0.02767,-0.0066 -0.211799,-0.04039 -0.4563028,0.204116 C 9.6572915,67.468749 9.6572915,67.468749 9.5249999,67.49562 9.3927082,67.468749 9.3927082,67.468749 9.2604165,67.204166 9.061979,67.005731 8.8982935,66.990872 8.8289184,66.99591 c -0.023124,0.0016 -0.035657,0.0057 -0.035657,0.0057 0,0 -0.062009,0.20257 0.2025716,0.467154 0.2645833,0.132291 0.2645841,0.132291 0.291455,0.264583 -0.026871,0.132292 -0.026872,0.132292 -0.291455,0.264583 -0.2445017,0.244505 -0.2107512,0.428639 -0.2041218,0.456304 l -0.00465,0.0047 c 0,0 0.00465,2.65e-4 0.00517,5.29e-4 1.736e-4,5.3e-4 0.00103,0.0057 0.00103,0.0057 l 0.00465,-0.0047 c 0.027721,0.0066 0.2118445,0.04033 0.4563028,-0.204123 0.1322919,-0.264584 0.1322919,-0.264584 0.2645833,-0.291455 0.1322919,0.02687 0.1322917,0.02687 0.2645833,0.291455 0.1984378,0.198435 0.3621234,0.213294 0.4314984,0.208256 0.02312,-0.0016 0.03566,-0.0057 0.03566,-0.0057 0,0 0.06201,-0.20257 -0.202572,-0.467156 -0.2645836,-0.132289 -0.2645839,-0.132291 -0.291455,-0.264583 0.026871,-0.132279 0.026873,-0.132292 0.291455,-0.264583 0.244502,-0.244505 0.210752,-0.428639 0.204122,-0.456304 l 0.0047,-0.0047 c 0,0 -0.0046,-7.94e-4 -0.0052,-0.0011 -1.47e-4,-5.29e-4 -10e-4,-0.0052 -10e-4,-0.0052 z" />
    </mask>
    <linearGradient
       id="Main-6">
      <stop
         style="stop-color:#4d4d4d;stop-opacity:1;"
         offset="0"
         id="stop2082-3" />
    </linearGradient>
    <linearGradient
       id="Green"
       gradientTransform="scale(3.7795276)">
      <stop
         style="stop-color:#66ff7a;stop-opacity:1;"
         offset="0"
         id="stop2506" />
    </linearGradient>
    <mask
       maskUnits="userSpaceOnUse"
       id="mask-powermask-path-effect1741">
      <path
         id="path1739"
         style="font-variation-settings:normal;opacity:1;vector-effect:none;fill:#000000;fill-opacity:0.992157;stroke:none;stroke-width:0.264583;stroke-linecap:butt;stroke-linejoin:miter;stroke-miterlimit:4;stroke-dasharray:none;stroke-dashoffset:0;stroke-opacity:1;marker:none;paint-order:fill markers stroke;stop-color:#000000;stop-opacity:1"
         d="m 20.095414,60.589583 a 0.52916663,0.52916663 0 0 0 -0.516248,0.529166 0.52916663,0.52916663 0 0 0 0.529167,0.529167 0.52916663,0.52916663 0 0 0 0.529167,-0.529167 0.52916663,0.52916663 0 0 0 -0.529167,-0.529166 0.52916663,0.52916663 0 0 0 -0.01292,0 z m -1.058333,2.116666 A 0.52916663,0.52916663 0 0 0 18.520833,63.235416 0.52916663,0.52916663 0 0 0 19.05,63.764583 0.52916663,0.52916663 0 0 0 19.579166,63.235416 0.52916663,0.52916663 0 0 0 19.05,62.706249 a 0.52916663,0.52916663 0 0 0 -0.01292,0 z m 2.116666,0 a 0.52916663,0.52916663 0 0 0 -0.516247,0.529167 0.52916663,0.52916663 0 0 0 0.529166,0.529167 0.52916663,0.52916663 0 0 0 0.529167,-0.529167 0.52916663,0.52916663 0 0 0 -0.529167,-0.529167 0.52916663,0.52916663 0 0 0 -0.01292,0 z" />
    </mask>
    <mask
       maskUnits="userSpaceOnUse"
       id="mask-powermask-path-effect1389">
      <path
         id="path1387"
         style="font-variation-settings:normal;opacity:1;vector-effect:none;fill:#000000;fill-opacity:0.992157;stroke:none;stroke-width:0.264583;stroke-linecap:butt;stroke-linejoin:miter;stroke-miterlimit:4;stroke-dasharray:none;stroke-dashoffset:0;stroke-opacity:1;stop-color:#000000;stop-opacity:1"
         transform="matrix(3.7795275,0,0,3.7795275,-6.9999997,-6.9999997)" />
    </mask>
    <linearGradient
       id="Blue"
       gradientTransform="matrix(0.26458333,0,0,0.26458333,-13.80713,103.48169)">
      <stop
         style="stop-color:#55c3ff;stop-opacity:1;"
         offset="0"
         id="stop2484" />
    </linearGradient>
    <linearGradient
       id="Main-3"
       osb:paint="solid">
      <stop
         style="stop-color:#4d4d4d;stop-opacity:1;"
         offset="0"
         id="stop2082-8" />
    </linearGradient>
    <linearGradient
       xlink:href="#Main-3"
       id="linearGradient2146"
       x1="61.899818"
       y1="249"
       x2="76.100182"
       y2="249"
       gradientUnits="userSpaceOnUse" />
    <linearGradient
       id="Main-61">
      <stop
         style="stop-color:#4d4d4d;stop-opacity:1;"
         offset="0"
         id="stop2082-1" />
    </linearGradient>
    <linearGradient
       xlink:href="#Main-6"
       id="linearGradient2098"
       x1="52.082603"
       y1="61.780205"
       x2="53.181248"
       y2="61.780205"
       gradientUnits="userSpaceOnUse"
       gradientTransform="matrix(3.7795278,0,0,3.7795278,-189.44141,-219.41797)" />
    <linearGradient
       xlink:href="#Main-6"
       id="linearGradient2096"
       x1="50.281166"
       y1="62.838539"
       x2="52.926998"
       y2="62.838539"
       gradientUnits="userSpaceOnUse" />
    <linearGradient
       xlink:href="#Main-6"
       id="linearGradient2098-8"
       x1="52.082603"
       y1="61.780205"
       x2="53.181248"
       y2="61.780205"
       gradientUnits="userSpaceOnUse" />
    <linearGradient
       xlink:href="#Main-6"
       id="linearGradient2096-5"
       x1="50.286324"
       y1="62.972603"
       x2="52.024643"
       y2="62.967445"
       gradientUnits="userSpaceOnUse"
       gradientTransform="translate(-0.27492098,-0.52917219)" />
    <linearGradient
       xlink:href="#Main-6"
       id="linearGradient2098-4"
       x1="52.082603"
       y1="61.780205"
       x2="53.181248"
       y2="61.780205"
       gradientUnits="userSpaceOnUse"
       gradientTransform="translate(-1.3228271,-0.79375592)" />
    <linearGradient
       xlink:href="#Main-6"
       id="linearGradient2092"
       x1="45.243748"
       y1="62.838539"
       x2="47.88958"
       y2="62.838539"
       gradientUnits="userSpaceOnUse"
       gradientTransform="translate(-0.26458362)" />
    <linearGradient
       xlink:href="#Main-6"
       id="linearGradient2094"
       x1="44.989498"
       y1="61.780205"
       x2="46.088139"
       y2="61.780205"
       gradientUnits="userSpaceOnUse"
       gradientTransform="translate(0.79373763)" />
  </defs>
  <g
     id="menu-reload"
     transform="matrix(3.7795278,0,0,3.7795278,-187.99999,-227.99997)"
     style="display:inline">
    <path
       d="m 52.8211,61.122306 -2.004035,-0.0036 0.217103,-0.201119 c 0.158097,-0.150209 -0.07905,-0.375524 -0.237144,-0.225315 l -0.50101,0.476016 c -0.06587,0.06207 -0.06587,0.163247 0,0.225315 l 0.50101,0.476016 c 0.06533,0.06258 0.171817,0.06258 0.237144,0 0.06587,-0.06207 0.06585,-0.163246 -1.8e-5,-0.225315 L 50.817065,61.383321 H 52.8211 c 0.143894,-0.0027 0.357404,0.162378 0.360144,0.299094 v 0.391921 c 0,0.211563 0.264583,0.211563 0.264583,0 v -0.391921 c -0.0028,-0.311974 -0.296373,-0.566316 -0.624727,-0.563677 z m 0.07432,1.891352 c -0.158096,-0.149435 -0.394425,0.07511 -0.237143,0.225315 l 0.2171,0.261015 h -2.004033 c -0.143895,0.0027 -0.333193,-0.162379 -0.335933,-0.299097 v -0.39192 c -5.38e-4,-0.21105 -0.264046,-0.21105 -0.264584,0 v 0.39192 c 0.0028,0.311975 0.272162,0.56632 0.600517,0.56368 h 2.004035 l -0.217101,0.20112 c -0.06587,0.06207 -0.06587,0.163245 0,0.225314 0.06533,0.06258 0.171816,0.06258 0.237144,0 l 0.501007,-0.476016 c 0.06587,-0.06207 0.06587,-0.163245 0,-0.225314 z"
       id="path1"
       style="display:inline;overflow:hidden;fill:#4d4d4d;fill-opacity:1;stroke-width:0.00381524" />
  </g>
</svg>
