<?xml version="1.0" encoding="UTF-8" standalone="no"?>
<svg
   version="1.0"
   width="16.000000pt"
   height="16.000000pt"
   viewBox="0 0 16.000000 16.000000"
   preserveAspectRatio="xMidYMid meet"
   id="svg2"
   xmlns:xlink="http://www.w3.org/1999/xlink"
   xmlns="http://www.w3.org/2000/svg"
   xmlns:svg="http://www.w3.org/2000/svg"
   xmlns:osb="http://www.openswatchbook.org/uri/2009/osb">
  <defs
     id="defs2">
    <linearGradient
       id="linearGradient3">
      <stop
         style="stop-color:#4d4d4d;stop-opacity:1;"
         offset="0"
         id="stop3" />
    </linearGradient>
    <linearGradient
       id="linearGradient2"
       osb:paint="solid">
      <stop
         style="stop-color:#4d4d4d;stop-opacity:1;"
         offset="0"
         id="stop2" />
    </linearGradient>
    <linearGradient
       id="linearGradient1"
       osb:paint="solid">
      <stop
         style="stop-color:#4d4d4d;stop-opacity:1;"
         offset="0"
         id="stop1" />
    </linearGradient>
    <linearGradient
       id="Main">
      <stop
         style="stop-color:#000000;stop-opacity:1;"
         offset="0"
         id="stop2082" />
    </linearGradient>
    <linearGradient
       id="Red">
      <stop
         style="stop-color:#ff664d;stop-opacity:1;"
         offset="0"
         id="stop2533" />
    </linearGradient>
    <mask
       maskUnits="userSpaceOnUse"
       id="mask-powermask-path-effect3119">
      <path
         id="path3117"
         style="opacity:1;fill:#000000;stroke:none;stroke-width:0.264583px;stroke-linecap:butt;stroke-linejoin:miter;stroke-opacity:1"
         d="m 10.250537,66.995394 -0.0047,0.0047 c -0.02767,-0.0066 -0.211799,-0.04039 -0.4563028,0.204116 C 9.6572915,67.468749 9.6572915,67.468749 9.5249999,67.49562 9.3927082,67.468749 9.3927082,67.468749 9.2604165,67.204166 9.061979,67.005731 8.8982935,66.990872 8.8289184,66.99591 c -0.023124,0.0016 -0.035657,0.0057 -0.035657,0.0057 0,0 -0.062009,0.20257 0.2025716,0.467154 0.2645833,0.132291 0.2645841,0.132291 0.291455,0.264583 -0.026871,0.132292 -0.026872,0.132292 -0.291455,0.264583 -0.2445017,0.244505 -0.2107512,0.428639 -0.2041218,0.456304 l -0.00465,0.0047 c 0,0 0.00465,2.65e-4 0.00517,5.29e-4 1.736e-4,5.3e-4 0.00103,0.0057 0.00103,0.0057 l 0.00465,-0.0047 c 0.027721,0.0066 0.2118445,0.04033 0.4563028,-0.204123 0.1322919,-0.264584 0.1322919,-0.264584 0.2645833,-0.291455 0.1322919,0.02687 0.1322917,0.02687 0.2645833,0.291455 0.1984378,0.198435 0.3621234,0.213294 0.4314984,0.208256 0.02312,-0.0016 0.03566,-0.0057 0.03566,-0.0057 0,0 0.06201,-0.20257 -0.202572,-0.467156 -0.2645836,-0.132289 -0.2645839,-0.132291 -0.291455,-0.264583 0.026871,-0.132279 0.026873,-0.132292 0.291455,-0.264583 0.244502,-0.244505 0.210752,-0.428639 0.204122,-0.456304 l 0.0047,-0.0047 c 0,0 -0.0046,-7.94e-4 -0.0052,-0.0011 -1.47e-4,-5.29e-4 -10e-4,-0.0052 -10e-4,-0.0052 z" />
    </mask>
    <linearGradient
       id="Main-6">
      <stop
         style="stop-color:#4d4d4d;stop-opacity:1;"
         offset="0"
         id="stop2082-3" />
    </linearGradient>
    <linearGradient
       id="Green"
       gradientTransform="scale(3.7795276)">
      <stop
         style="stop-color:#66ff7a;stop-opacity:1;"
         offset="0"
         id="stop2506" />
    </linearGradient>
    <mask
       maskUnits="userSpaceOnUse"
       id="mask-powermask-path-effect1741">
      <path
         id="path1739"
         style="font-variation-settings:normal;opacity:1;vector-effect:none;fill:#000000;fill-opacity:0.992157;stroke:none;stroke-width:0.264583;stroke-linecap:butt;stroke-linejoin:miter;stroke-miterlimit:4;stroke-dasharray:none;stroke-dashoffset:0;stroke-opacity:1;marker:none;paint-order:fill markers stroke;stop-color:#000000;stop-opacity:1"
         d="m 20.095414,60.589583 a 0.52916663,0.52916663 0 0 0 -0.516248,0.529166 0.52916663,0.52916663 0 0 0 0.529167,0.529167 0.52916663,0.52916663 0 0 0 0.529167,-0.529167 0.52916663,0.52916663 0 0 0 -0.529167,-0.529166 0.52916663,0.52916663 0 0 0 -0.01292,0 z m -1.058333,2.116666 A 0.52916663,0.52916663 0 0 0 18.520833,63.235416 0.52916663,0.52916663 0 0 0 19.05,63.764583 0.52916663,0.52916663 0 0 0 19.579166,63.235416 0.52916663,0.52916663 0 0 0 19.05,62.706249 a 0.52916663,0.52916663 0 0 0 -0.01292,0 z m 2.116666,0 a 0.52916663,0.52916663 0 0 0 -0.516247,0.529167 0.52916663,0.52916663 0 0 0 0.529166,0.529167 0.52916663,0.52916663 0 0 0 0.529167,-0.529167 0.52916663,0.52916663 0 0 0 -0.529167,-0.529167 0.52916663,0.52916663 0 0 0 -0.01292,0 z" />
    </mask>
    <mask
       maskUnits="userSpaceOnUse"
       id="mask-powermask-path-effect1389">
      <path
         id="path1387"
         style="font-variation-settings:normal;opacity:1;vector-effect:none;fill:#000000;fill-opacity:0.992157;stroke:none;stroke-width:0.264583;stroke-linecap:butt;stroke-linejoin:miter;stroke-miterlimit:4;stroke-dasharray:none;stroke-dashoffset:0;stroke-opacity:1;stop-color:#000000;stop-opacity:1"
         transform="matrix(3.7795275,0,0,3.7795275,-6.9999997,-6.9999997)" />
    </mask>
    <linearGradient
       id="Blue"
       gradientTransform="matrix(0.26458333,0,0,0.26458333,-13.80713,103.48169)">
      <stop
         style="stop-color:#55c3ff;stop-opacity:1;"
         offset="0"
         id="stop2484" />
    </linearGradient>
    <linearGradient
       id="Main-3"
       osb:paint="solid">
      <stop
         style="stop-color:#4d4d4d;stop-opacity:1;"
         offset="0"
         id="stop2082-8" />
    </linearGradient>
    <linearGradient
       id="Orange"
       osb:paint="solid">
      <stop
         style="stop-color:#fdb433;stop-opacity:1;"
         offset="0"
         id="stop2584" />
    </linearGradient>
    <mask
       maskUnits="userSpaceOnUse"
       id="mask-powermask-path-effect1105">
      <path
         id="path1103"
         style="opacity:1;fill:#000000;stroke:none;stroke-width:0.264583px;stroke-linecap:butt;stroke-linejoin:miter;stroke-opacity:1" />
    </mask>
    <mask
       maskUnits="userSpaceOnUse"
       id="mask-powermask-path-effect1105-3">
      <path
         id="mask-powermask-path-effect1105_box"
         style="fill:#ffffff;fill-opacity:1"
         d="m 11.964583,22.283334 h 5.968751 v 6.233333 h -5.968751 z" />
      <path
         id="path1103-3"
         style="opacity:1;fill:#000000;stroke:none;stroke-width:0.264583px;stroke-linecap:butt;stroke-linejoin:miter;stroke-opacity:1"
         d="m 14.816406,23.548828 c -0.462586,0 -0.865246,0.128541 -1.142578,0.351563 -0.277331,0.223021 -0.443359,0.532159 -0.443359,0.970703 0,0.440241 0.223134,1.15023 0.460937,1.386718 0.173632,0.171974 0.240157,0.394661 0.28125,0.615235 0.02425,0.130152 0.02273,0.252283 0.0293,0.378906 h 1.34375 v -0.263672 a 0.26560995,0.26560995 0 0 1 0.265625,-0.265625 c 0.189524,0 0.294319,-0.02466 0.367188,-0.09961 0.07287,-0.07495 0.160156,-0.262719 0.160156,-0.69336 a 0.26560995,0.26560995 0 0 1 0.265625,-0.265625 h 0.263672 v -0.154296 l -0.451172,-0.451172 a 0.26560995,0.26560995 0 0 1 -0.07813,-0.1875 c 0,-0.500141 -0.215724,-0.80568 -0.496094,-1.017578 -0.280369,-0.211899 -0.642497,-0.304688 -0.826172,-0.304688 z" />
    </mask>
    <filter
       id="mask-powermask-path-effect1105_inverse"
       style="color-interpolation-filters:sRGB"
       height="100"
       width="100"
       x="-50"
       y="-50">
      <feColorMatrix
         id="mask-powermask-path-effect1105_primitive1"
         values="1"
         type="saturate"
         result="fbSourceGraphic" />
      <feColorMatrix
         id="mask-powermask-path-effect1105_primitive2"
         values="-1 0 0 0 1 0 -1 0 0 1 0 0 -1 0 1 0 0 0 1 0 "
         in="fbSourceGraphic" />
    </filter>
    <mask
       maskUnits="userSpaceOnUse"
       id="mask-powermask-path-effect1105-2">
      <path
         id="path1"
         style="fill:#ffffff;fill-opacity:1"
         d="m 11.964583,22.283334 h 5.968751 v 6.233333 h -5.968751 z" />
      <path
         id="path2"
         style="opacity:1;fill:#000000;stroke:none;stroke-width:0.264583px;stroke-linecap:butt;stroke-linejoin:miter;stroke-opacity:1" />
    </mask>
    <linearGradient
       xlink:href="#linearGradient3"
       id="linearGradient2414"
       x1="12.964583"
       y1="25.4"
       x2="16.933334"
       y2="25.4"
       gradientUnits="userSpaceOnUse" />
    <mask
       maskUnits="userSpaceOnUse"
       id="mask-powermask-path-effect1105-7">
      <path
         id="mask-powermask-path-effect1105_box-3"
         style="fill:#ffffff;fill-opacity:1"
         d="m 11.964583,22.283334 h 5.968751 v 6.233333 h -5.968751 z" />
      <path
         id="path1103-5"
         style="opacity:1;fill:#000000;stroke:none;stroke-width:0.264583px;stroke-linecap:butt;stroke-linejoin:miter;stroke-opacity:1"
         d="m 14.816406,23.548828 c -0.462586,0 -0.865246,0.128541 -1.142578,0.351563 -0.277331,0.223021 -0.443359,0.532159 -0.443359,0.970703 0,0.440241 0.223134,1.15023 0.460937,1.386718 0.173632,0.171974 0.240157,0.394661 0.28125,0.615235 0.02425,0.130152 0.02273,0.252283 0.0293,0.378906 h 1.34375 v -0.263672 a 0.26560995,0.26560995 0 0 1 0.265625,-0.265625 c 0.189524,0 0.294319,-0.02466 0.367188,-0.09961 0.07287,-0.07495 0.160156,-0.262719 0.160156,-0.69336 a 0.26560995,0.26560995 0 0 1 0.265625,-0.265625 h 0.263672 v -0.154296 l -0.451172,-0.451172 a 0.26560995,0.26560995 0 0 1 -0.07813,-0.1875 c 0,-0.500141 -0.215724,-0.80568 -0.496094,-1.017578 -0.280369,-0.211899 -0.642497,-0.304688 -0.826172,-0.304688 z" />
    </mask>
    <linearGradient
       xlink:href="#Main-6"
       id="linearGradient2416"
       x1="24.606249"
       y1="20.108334"
       x2="25.135416"
       y2="20.108334"
       gradientUnits="userSpaceOnUse" />
    <linearGradient
       xlink:href="#Main-6"
       id="linearGradient2418"
       x1="25.929167"
       y1="19.598701"
       x2="26.855207"
       y2="19.598701"
       gradientUnits="userSpaceOnUse" />
    <filter
       id="mask-powermask-path-effect1105_inverse-6"
       style="color-interpolation-filters:sRGB"
       height="100"
       width="100"
       x="-50"
       y="-50">
      <feColorMatrix
         id="mask-powermask-path-effect1105_primitive1-0"
         values="1"
         type="saturate"
         result="fbSourceGraphic" />
      <feColorMatrix
         id="mask-powermask-path-effect1105_primitive2-4"
         values="-1 0 0 0 1 0 -1 0 0 1 0 0 -1 0 1 0 0 0 1 0 "
         in="fbSourceGraphic" />
    </filter>
    <mask
       maskUnits="userSpaceOnUse"
       id="mask-powermask-path-effect1105-9">
      <path
         id="mask-powermask-path-effect1105-9_box"
         style="fill:#ffffff;fill-opacity:1"
         d="m 11.964583,22.283334 h 5.968751 v 6.233333 h -5.968751 z" />
      <path
         id="path3"
         style="fill:#ffffff;fill-opacity:1"
         d="m 11.964583,22.283334 h 5.968751 v 6.233333 h -5.968751 z" />
      <path
         id="path4"
         style="opacity:1;fill:#000000;stroke:none;stroke-width:0.264583px;stroke-linecap:butt;stroke-linejoin:miter;stroke-opacity:1"
         d="m 14.816406,23.548828 c -0.462586,0 -0.865246,0.128541 -1.142578,0.351563 -0.277331,0.223021 -0.443359,0.532159 -0.443359,0.970703 0,0.440241 0.223134,1.15023 0.460937,1.386718 0.173632,0.171974 0.240157,0.394661 0.28125,0.615235 0.02425,0.130152 0.02273,0.252283 0.0293,0.378906 h 1.34375 v -0.263672 a 0.26560995,0.26560995 0 0 1 0.265625,-0.265625 c 0.189524,0 0.294319,-0.02466 0.367188,-0.09961 0.07287,-0.07495 0.160156,-0.262719 0.160156,-0.69336 a 0.26560995,0.26560995 0 0 1 0.265625,-0.265625 h 0.263672 v -0.154296 l -0.451172,-0.451172 a 0.26560995,0.26560995 0 0 1 -0.07813,-0.1875 c 0,-0.500141 -0.215724,-0.80568 -0.496094,-1.017578 -0.280369,-0.211899 -0.642497,-0.304688 -0.826172,-0.304688 z" />
    </mask>
    <filter
       id="mask-powermask-path-effect1105-9_inverse"
       style="color-interpolation-filters:sRGB"
       height="100"
       width="100"
       x="-50"
       y="-50">
      <feColorMatrix
         id="mask-powermask-path-effect1105-9_primitive1"
         values="1"
         type="saturate"
         result="fbSourceGraphic" />
      <feColorMatrix
         id="mask-powermask-path-effect1105-9_primitive2"
         values="-1 0 0 0 1 0 -1 0 0 1 0 0 -1 0 1 0 0 0 1 0 "
         in="fbSourceGraphic" />
    </filter>
    <mask
       maskUnits="userSpaceOnUse"
       id="mask-powermask-path-effect1105-9-0">
      <path
         id="mask-powermask-path-effect1105-9_box-1"
         style="fill:#ffffff;fill-opacity:1"
         d="m 11.964583,22.283334 h 5.968751 v 6.233333 h -5.968751 z" />
      <path
         id="path3-0"
         style="fill:#ffffff;fill-opacity:1"
         d="m 11.964583,22.283334 h 5.968751 v 6.233333 h -5.968751 z" />
      <path
         id="path4-1"
         style="opacity:1;fill:#000000;stroke:none;stroke-width:0.264583px;stroke-linecap:butt;stroke-linejoin:miter;stroke-opacity:1"
         d="m 14.816406,23.548828 c -0.462586,0 -0.865246,0.128541 -1.142578,0.351563 -0.277331,0.223021 -0.443359,0.532159 -0.443359,0.970703 0,0.440241 0.223134,1.15023 0.460937,1.386718 0.173632,0.171974 0.240157,0.394661 0.28125,0.615235 0.02425,0.130152 0.02273,0.252283 0.0293,0.378906 h 1.34375 v -0.263672 a 0.26560995,0.26560995 0 0 1 0.265625,-0.265625 c 0.189524,0 0.294319,-0.02466 0.367188,-0.09961 0.07287,-0.07495 0.160156,-0.262719 0.160156,-0.69336 a 0.26560995,0.26560995 0 0 1 0.265625,-0.265625 h 0.263672 v -0.154296 l -0.451172,-0.451172 a 0.26560995,0.26560995 0 0 1 -0.07813,-0.1875 c 0,-0.500141 -0.215724,-0.80568 -0.496094,-1.017578 -0.280369,-0.211899 -0.642497,-0.304688 -0.826172,-0.304688 z" />
    </mask>
    <filter
       id="mask-powermask-path-effect1105-9_inverse-6"
       style="color-interpolation-filters:sRGB"
       height="100"
       width="100"
       x="-50"
       y="-50">
      <feColorMatrix
         id="mask-powermask-path-effect1105-9_primitive1-7"
         values="1"
         type="saturate"
         result="fbSourceGraphic" />
      <feColorMatrix
         id="mask-powermask-path-effect1105-9_primitive2-6"
         values="-1 0 0 0 1 0 -1 0 0 1 0 0 -1 0 1 0 0 0 1 0 "
         in="fbSourceGraphic" />
    </filter>
    <mask
       maskUnits="userSpaceOnUse"
       id="mask-powermask-path-effect1105-9-3">
      <path
         id="path5"
         style="fill:#ffffff;fill-opacity:1"
         d="m 11.964583,22.283334 h 5.968751 v 6.233333 h -5.968751 z" />
      <path
         id="path6"
         style="fill:#ffffff;fill-opacity:1"
         d="m 11.964583,22.283334 h 5.968751 v 6.233333 h -5.968751 z" />
      <path
         id="path7"
         style="opacity:1;fill:#000000;stroke:none;stroke-width:0.264583px;stroke-linecap:butt;stroke-linejoin:miter;stroke-opacity:1" />
    </mask>
  </defs>
  <g
     id="npc"
     style="display:inline"
     transform="matrix(3.7803973,0,0,3.5546338,-88.526434,-63.477765)">
    <path
       style="font-variation-settings:normal;opacity:1;vector-effect:none;fill:none;fill-opacity:1;stroke:#4d4d4d;stroke-width:0.264583px;stroke-linecap:butt;stroke-linejoin:miter;stroke-miterlimit:4;stroke-dasharray:none;stroke-dashoffset:0;stroke-opacity:1;stop-color:#000000;stop-opacity:1"
       d="m 14.816667,23.283334 c 0.513578,0 1.5875,0.423767 1.5875,1.5875 L 16.933334,25.4 v 0.529167 h -0.529167 c 0,0.930046 -0.361988,1.058334 -0.79375,1.058334 v 0.529166 h -1.852083 c 0,-0.372674 -0.0377,-0.857766 -0.255282,-1.071769 -0.336724,-0.334863 -0.538469,-1.063636 -0.538469,-1.574064 0,-1.020755 0.828782,-1.5875 1.852084,-1.5875 z"
       id="path1078"
       mask="url(#mask-powermask-path-effect1105-9)"
       transform="translate(10.583333,-5.2916664)" />
    <path
       style="font-variation-settings:normal;opacity:1;vector-effect:none;fill:url(#linearGradient2416);fill-opacity:1;stroke:none;stroke-width:0.264583px;stroke-linecap:butt;stroke-linejoin:miter;stroke-miterlimit:4;stroke-dasharray:none;stroke-dashoffset:0;stroke-opacity:1;stop-color:#000000;stop-opacity:1"
       d="m 24.606249,20.108334 v -0.264583 l 0.365869,-0.264583 0.163298,0.233577 -0.29559,0.163298 0.29559,0.42788 -0.163298,0.233578 z"
       id="path1080" />
    <path
       style="font-variation-settings:normal;opacity:1;vector-effect:none;fill:url(#linearGradient2418);fill-opacity:1;stroke:none;stroke-width:0.264583px;stroke-linecap:butt;stroke-linejoin:miter;stroke-miterlimit:4;stroke-dasharray:none;stroke-dashoffset:0;stroke-opacity:1;stop-color:#000000;stop-opacity:1"
       d="m 26.855207,19.314584 h -0.926041 l 0.463434,0.568234 0.187895,-0.15813 -0.258589,-0.241845 0.52834,0.100458 z"
       id="path1111" />
  </g>
</svg>
