<?xml version="1.0" encoding="UTF-8" standalone="no"?>
<svg
   version="1.0"
   width="16.000000pt"
   height="16.000000pt"
   viewBox="0 0 16.000000 16.000000"
   preserveAspectRatio="xMidYMid meet"
   id="svg2"
   xmlns:xlink="http://www.w3.org/1999/xlink"
   xmlns="http://www.w3.org/2000/svg"
   xmlns:svg="http://www.w3.org/2000/svg"
   xmlns:osb="http://www.openswatchbook.org/uri/2009/osb">
  <defs
     id="defs2">
    <linearGradient
       id="Main">
      <stop
         style="stop-color:#000000;stop-opacity:1;"
         offset="0"
         id="stop2082" />
    </linearGradient>
    <linearGradient
       id="Red">
      <stop
         style="stop-color:#ff664d;stop-opacity:1;"
         offset="0"
         id="stop2533" />
    </linearGradient>
    <mask
       maskUnits="userSpaceOnUse"
       id="mask-powermask-path-effect3119">
      <path
         id="path3117"
         style="opacity:1;fill:#000000;stroke:none;stroke-width:0.264583px;stroke-linecap:butt;stroke-linejoin:miter;stroke-opacity:1"
         d="m 10.250537,66.995394 -0.0047,0.0047 c -0.02767,-0.0066 -0.211799,-0.04039 -0.4563028,0.204116 C 9.6572915,67.468749 9.6572915,67.468749 9.5249999,67.49562 9.3927082,67.468749 9.3927082,67.468749 9.2604165,67.204166 9.061979,67.005731 8.8982935,66.990872 8.8289184,66.99591 c -0.023124,0.0016 -0.035657,0.0057 -0.035657,0.0057 0,0 -0.062009,0.20257 0.2025716,0.467154 0.2645833,0.132291 0.2645841,0.132291 0.291455,0.264583 -0.026871,0.132292 -0.026872,0.132292 -0.291455,0.264583 -0.2445017,0.244505 -0.2107512,0.428639 -0.2041218,0.456304 l -0.00465,0.0047 c 0,0 0.00465,2.65e-4 0.00517,5.29e-4 1.736e-4,5.3e-4 0.00103,0.0057 0.00103,0.0057 l 0.00465,-0.0047 c 0.027721,0.0066 0.2118445,0.04033 0.4563028,-0.204123 0.1322919,-0.264584 0.1322919,-0.264584 0.2645833,-0.291455 0.1322919,0.02687 0.1322917,0.02687 0.2645833,0.291455 0.1984378,0.198435 0.3621234,0.213294 0.4314984,0.208256 0.02312,-0.0016 0.03566,-0.0057 0.03566,-0.0057 0,0 0.06201,-0.20257 -0.202572,-0.467156 -0.2645836,-0.132289 -0.2645839,-0.132291 -0.291455,-0.264583 0.026871,-0.132279 0.026873,-0.132292 0.291455,-0.264583 0.244502,-0.244505 0.210752,-0.428639 0.204122,-0.456304 l 0.0047,-0.0047 c 0,0 -0.0046,-7.94e-4 -0.0052,-0.0011 -1.47e-4,-5.29e-4 -10e-4,-0.0052 -10e-4,-0.0052 z" />
    </mask>
    <linearGradient
       id="Main-6">
      <stop
         style="stop-color:#4d4d4d;stop-opacity:1;"
         offset="0"
         id="stop2082-3" />
    </linearGradient>
    <linearGradient
       id="Green"
       gradientTransform="scale(3.7795276)">
      <stop
         style="stop-color:#66ff7a;stop-opacity:1;"
         offset="0"
         id="stop2506" />
    </linearGradient>
    <mask
       maskUnits="userSpaceOnUse"
       id="mask-powermask-path-effect1741">
      <path
         id="path1739"
         style="font-variation-settings:normal;opacity:1;vector-effect:none;fill:#000000;fill-opacity:0.992157;stroke:none;stroke-width:0.264583;stroke-linecap:butt;stroke-linejoin:miter;stroke-miterlimit:4;stroke-dasharray:none;stroke-dashoffset:0;stroke-opacity:1;marker:none;paint-order:fill markers stroke;stop-color:#000000;stop-opacity:1"
         d="m 20.095414,60.589583 a 0.52916663,0.52916663 0 0 0 -0.516248,0.529166 0.52916663,0.52916663 0 0 0 0.529167,0.529167 0.52916663,0.52916663 0 0 0 0.529167,-0.529167 0.52916663,0.52916663 0 0 0 -0.529167,-0.529166 0.52916663,0.52916663 0 0 0 -0.01292,0 z m -1.058333,2.116666 A 0.52916663,0.52916663 0 0 0 18.520833,63.235416 0.52916663,0.52916663 0 0 0 19.05,63.764583 0.52916663,0.52916663 0 0 0 19.579166,63.235416 0.52916663,0.52916663 0 0 0 19.05,62.706249 a 0.52916663,0.52916663 0 0 0 -0.01292,0 z m 2.116666,0 a 0.52916663,0.52916663 0 0 0 -0.516247,0.529167 0.52916663,0.52916663 0 0 0 0.529166,0.529167 0.52916663,0.52916663 0 0 0 0.529167,-0.529167 0.52916663,0.52916663 0 0 0 -0.529167,-0.529167 0.52916663,0.52916663 0 0 0 -0.01292,0 z" />
    </mask>
    <mask
       maskUnits="userSpaceOnUse"
       id="mask-powermask-path-effect1389">
      <path
         id="path1387"
         style="font-variation-settings:normal;opacity:1;vector-effect:none;fill:#000000;fill-opacity:0.992157;stroke:none;stroke-width:0.264583;stroke-linecap:butt;stroke-linejoin:miter;stroke-miterlimit:4;stroke-dasharray:none;stroke-dashoffset:0;stroke-opacity:1;stop-color:#000000;stop-opacity:1"
         transform="matrix(3.7795275,0,0,3.7795275,-6.9999997,-6.9999997)" />
    </mask>
    <linearGradient
       id="Blue"
       gradientTransform="matrix(0.26458333,0,0,0.26458333,-13.80713,103.48169)">
      <stop
         style="stop-color:#55c3ff;stop-opacity:1;"
         offset="0"
         id="stop2484" />
    </linearGradient>
    <linearGradient
       id="Main-3"
       osb:paint="solid">
      <stop
         style="stop-color:#4d4d4d;stop-opacity:1;"
         offset="0"
         id="stop2082-8" />
    </linearGradient>
    <linearGradient
       id="Orange"
       osb:paint="solid">
      <stop
         style="stop-color:#fdb433;stop-opacity:1;"
         offset="0"
         id="stop2584" />
    </linearGradient>
    <mask
       maskUnits="userSpaceOnUse"
       id="mask-powermask-path-effect1105">
      <path
         id="path1103"
         style="opacity:1;fill:#000000;stroke:none;stroke-width:0.264583px;stroke-linecap:butt;stroke-linejoin:miter;stroke-opacity:1" />
    </mask>
    <linearGradient
       id="Blue-2"
       gradientTransform="matrix(0.26458333,0,0,0.26458333,-13.80713,103.48169)"
       osb:paint="solid">
      <stop
         style="stop-color:#55c3ff;stop-opacity:1;"
         offset="0"
         id="stop2484-2" />
    </linearGradient>
    <linearGradient
       id="Red-1"
       osb:paint="solid">
      <stop
         style="stop-color:#ff664d;stop-opacity:1;"
         offset="0"
         id="stop2533-6" />
    </linearGradient>
    <linearGradient
       xlink:href="#Main-3"
       id="linearGradient3"
       gradientUnits="userSpaceOnUse"
       x1="2.116667"
       y1="-3.7041662"
       x2="6.3499999"
       y2="-3.7041662" />
    <linearGradient
       xlink:href="#Main-3"
       id="linearGradient4"
       gradientUnits="userSpaceOnUse"
       x1="2.116667"
       y1="-3.7041662"
       x2="6.3499999"
       y2="-3.7041662" />
  </defs>
  <g
     id="resources-mesh"
     transform="matrix(3.7795278,0,0,3.7793645,-188.00001,-207.99033)"
     style="display:inline">
    <rect
       style="font-variation-settings:normal;opacity:0.5;vector-effect:none;fill:none;fill-opacity:1;stroke:none;stroke-width:0.264583;stroke-linecap:round;stroke-linejoin:bevel;stroke-miterlimit:4;stroke-dasharray:none;stroke-dashoffset:0;stroke-opacity:1;paint-order:fill markers stroke;stop-color:#000000;stop-opacity:1"
       id="rect1941"
       width="4.2333331"
       height="4.2333331"
       x="49.741665"
       y="55.033333" />
    <path
       style="color:#000000;font-style:normal;font-variant:normal;font-weight:normal;font-stretch:normal;font-size:medium;line-height:normal;font-family:sans-serif;font-variant-ligatures:normal;font-variant-position:normal;font-variant-caps:normal;font-variant-numeric:normal;font-variant-alternates:normal;font-variant-east-asian:normal;font-feature-settings:normal;font-variation-settings:normal;text-indent:0;text-align:start;text-decoration:none;text-decoration-line:none;text-decoration-style:solid;text-decoration-color:#000000;letter-spacing:normal;word-spacing:normal;text-transform:none;writing-mode:lr-tb;direction:ltr;text-orientation:mixed;dominant-baseline:auto;baseline-shift:baseline;text-anchor:start;white-space:normal;shape-padding:0;shape-margin:0;inline-size:0;clip-rule:nonzero;overflow:visible;visibility:visible;opacity:1;isolation:auto;mix-blend-mode:normal;color-interpolation:sRGB;color-interpolation-filters:linearRGB;solid-color:#000000;solid-opacity:1;vector-effect:none;fill:url(#linearGradient4);fill-opacity:1;fill-rule:nonzero;stroke:none;stroke-width:0.264583px;stroke-linecap:butt;stroke-linejoin:miter;stroke-miterlimit:4;stroke-dasharray:none;stroke-dashoffset:0;stroke-opacity:1;paint-order:fill markers stroke;color-rendering:auto;image-rendering:auto;shape-rendering:auto;text-rendering:auto;enable-background:accumulate;stop-color:#000000;stop-opacity:1"
       d="m 51.792969,55.050781 -1.71875,0.992188 -0.06641,0.115234 v 1.984375 l 0.06641,0.113281 1.71875,0.992188 h 0.130859 l 1.71875,-0.992188 0.06641,-0.113281 v -1.984375 l -0.06641,-0.115234 -1.71875,-0.992188 z m 0.06641,0.265625 1.585937,0.917969 v 1.832031 l -1.58789,0.916016 -1.585938,-0.916016 v -1.832031 z"
       id="path2002" />
    <path
       style="color:#000000;font-style:normal;font-variant:normal;font-weight:normal;font-stretch:normal;font-size:medium;line-height:normal;font-family:sans-serif;font-variant-ligatures:normal;font-variant-position:normal;font-variant-caps:normal;font-variant-numeric:normal;font-variant-alternates:normal;font-variant-east-asian:normal;font-feature-settings:normal;font-variation-settings:normal;text-indent:0;text-align:start;text-decoration:none;text-decoration-line:none;text-decoration-style:solid;text-decoration-color:#000000;letter-spacing:normal;word-spacing:normal;text-transform:none;writing-mode:lr-tb;direction:ltr;text-orientation:mixed;dominant-baseline:auto;baseline-shift:baseline;text-anchor:start;white-space:normal;shape-padding:0;shape-margin:0;inline-size:0;clip-rule:nonzero;overflow:visible;visibility:visible;opacity:1;isolation:auto;mix-blend-mode:normal;color-interpolation:sRGB;color-interpolation-filters:linearRGB;solid-color:#000000;solid-opacity:1;vector-effect:none;fill:url(#linearGradient3);fill-opacity:1;fill-rule:nonzero;stroke:none;stroke-width:0.264583px;stroke-linecap:butt;stroke-linejoin:miter;stroke-miterlimit:4;stroke-dasharray:none;stroke-dashoffset:0;stroke-opacity:1;paint-order:fill markers stroke;color-rendering:auto;image-rendering:auto;shape-rendering:auto;text-rendering:auto;enable-background:accumulate;stop-color:#000000;stop-opacity:1"
       d="m 51.857422,55.033203 a 0.1322915,0.1322915 0 0 0 -0.13086,0.132813 v 0.925781 h -1.585937 -0.002 a 0.1322915,0.1322915 0 0 0 -0.03516,0.0059 0.1322915,0.1322915 0 0 0 -0.01758,0.0039 0.1322915,0.1322915 0 0 0 -0.0059,0.0039 0.1322915,0.1322915 0 0 0 -0.02539,0.01758 0.1322915,0.1322915 0 0 0 -0.0332,0.04102 0.1322915,0.1322915 0 0 0 -0.0098,0.01953 0.1322915,0.1322915 0 0 0 -0.002,0.01172 0.1322915,0.1322915 0 0 0 -0.0039,0.02344 0.1322915,0.1322915 0 0 0 0,0.0039 0.1322915,0.1322915 0 0 0 0,0.002 0.1322915,0.1322915 0 0 0 0.0039,0.0293 0.1322915,0.1322915 0 0 0 0.0078,0.02148 0.1322915,0.1322915 0 0 0 0.0059,0.01367 l 0.707031,1.654297 h -0.591797 a 0.1322915,0.1322915 0 0 0 -0.132813,0.132813 0.1322915,0.1322915 0 0 0 0.132813,0.132812 h 0.732422 l 0.886718,1.011719 h 0.199219 l 0.888672,-1.011719 h 0.732422 a 0.1322915,0.1322915 0 0 0 0.132813,-0.132812 0.1322915,0.1322915 0 0 0 -0.132813,-0.132813 h -0.591797 l 0.710938,-1.662109 0.002,-0.0039 a 0.1322915,0.1322915 0 0 0 0,-0.002 0.1322915,0.1322915 0 0 0 0.0098,-0.02734 0.1322915,0.1322915 0 0 0 0,-0.002 0.1322915,0.1322915 0 0 0 0.002,-0.02148 0.1322915,0.1322915 0 0 0 0,-0.0078 0.1322915,0.1322915 0 0 0 -0.0039,-0.02344 0.1322915,0.1322915 0 0 0 -0.002,-0.0078 0.1322915,0.1322915 0 0 0 -0.0078,-0.02148 0.1322915,0.1322915 0 0 0 -0.0039,-0.0059 0.1322915,0.1322915 0 0 0 -0.01367,-0.01953 0.1322915,0.1322915 0 0 0 -0.02148,-0.01953 0.1322915,0.1322915 0 0 0 -0.02734,-0.01758 0.1322915,0.1322915 0 0 0 -0.0293,-0.0078 0.1322915,0.1322915 0 0 0 -0.02344,-0.002 0.1322915,0.1322915 0 0 0 -0.0078,0 h -1.580078 v -0.925781 a 0.1322915,0.1322915 0 0 0 -0.132812,-0.132813 z m -1.519531,1.322266 h 1.30664 l -0.703125,1.40625 z m 1.734375,0 h 1.30664 l -0.603515,1.40625 z m -0.212891,0.164062 0.710937,1.423828 h -1.423828 z m -0.634766,1.689453 h 1.267579 l -0.634766,0.72461 z"
       id="path1996" />
  </g>
</svg>
