<?xml version="1.0" encoding="UTF-8" standalone="no"?>
<svg
   version="1.0"
   width="48pt"
   height="48pt"
   viewBox="0 0 48 48"
   preserveAspectRatio="xMidYMid"
   id="svg2"
   xmlns="http://www.w3.org/2000/svg"
   xmlns:svg="http://www.w3.org/2000/svg"
   xmlns:osb="http://www.openswatchbook.org/uri/2009/osb">
  <defs
     id="defs2">
    <linearGradient
       id="Main"
       gradientTransform="translate(190.49998)">
      <stop
         style="stop-color:#000000;stop-opacity:1;"
         offset="0"
         id="stop2082" />
    </linearGradient>
    <linearGradient
       id="Red">
      <stop
         style="stop-color:#ff664d;stop-opacity:1;"
         offset="0"
         id="stop2533" />
    </linearGradient>
    <mask
       maskUnits="userSpaceOnUse"
       id="mask-powermask-path-effect3119">
      <path
         id="path3117"
         style="opacity:1;fill:#000000;stroke:none;stroke-width:0.264583px;stroke-linecap:butt;stroke-linejoin:miter;stroke-opacity:1"
         d="m 10.250537,66.995394 -0.0047,0.0047 c -0.02767,-0.0066 -0.211799,-0.04039 -0.4563028,0.204116 C 9.6572915,67.468749 9.6572915,67.468749 9.5249999,67.49562 9.3927082,67.468749 9.3927082,67.468749 9.2604165,67.204166 9.061979,67.005731 8.8982935,66.990872 8.8289184,66.99591 c -0.023124,0.0016 -0.035657,0.0057 -0.035657,0.0057 0,0 -0.062009,0.20257 0.2025716,0.467154 0.2645833,0.132291 0.2645841,0.132291 0.291455,0.264583 -0.026871,0.132292 -0.026872,0.132292 -0.291455,0.264583 -0.2445017,0.244505 -0.2107512,0.428639 -0.2041218,0.456304 l -0.00465,0.0047 c 0,0 0.00465,2.65e-4 0.00517,5.29e-4 1.736e-4,5.3e-4 0.00103,0.0057 0.00103,0.0057 l 0.00465,-0.0047 c 0.027721,0.0066 0.2118445,0.04033 0.4563028,-0.204123 0.1322919,-0.264584 0.1322919,-0.264584 0.2645833,-0.291455 0.1322919,0.02687 0.1322917,0.02687 0.2645833,0.291455 0.1984378,0.198435 0.3621234,0.213294 0.4314984,0.208256 0.02312,-0.0016 0.03566,-0.0057 0.03566,-0.0057 0,0 0.06201,-0.20257 -0.202572,-0.467156 -0.2645836,-0.132289 -0.2645839,-0.132291 -0.291455,-0.264583 0.026871,-0.132279 0.026873,-0.132292 0.291455,-0.264583 0.244502,-0.244505 0.210752,-0.428639 0.204122,-0.456304 l 0.0047,-0.0047 c 0,0 -0.0046,-7.94e-4 -0.0052,-0.0011 -1.47e-4,-5.29e-4 -10e-4,-0.0052 -10e-4,-0.0052 z" />
    </mask>
    <linearGradient
       id="Main-6">
      <stop
         style="stop-color:#4d4d4d;stop-opacity:1;"
         offset="0"
         id="stop2082-3" />
    </linearGradient>
    <linearGradient
       id="Green"
       gradientTransform="matrix(0.01852198,0,0,0.01852198,100.09806,0)">
      <stop
         style="stop-color:#66ff7a;stop-opacity:1;"
         offset="0"
         id="stop2506" />
    </linearGradient>
    <mask
       maskUnits="userSpaceOnUse"
       id="mask-powermask-path-effect1741">
      <path
         id="path1739"
         style="font-variation-settings:normal;opacity:1;vector-effect:none;fill:#000000;fill-opacity:0.992157;stroke:none;stroke-width:0.264583;stroke-linecap:butt;stroke-linejoin:miter;stroke-miterlimit:4;stroke-dasharray:none;stroke-dashoffset:0;stroke-opacity:1;marker:none;paint-order:fill markers stroke;stop-color:#000000;stop-opacity:1"
         d="m 20.095414,60.589583 a 0.52916663,0.52916663 0 0 0 -0.516248,0.529166 0.52916663,0.52916663 0 0 0 0.529167,0.529167 0.52916663,0.52916663 0 0 0 0.529167,-0.529167 0.52916663,0.52916663 0 0 0 -0.529167,-0.529166 0.52916663,0.52916663 0 0 0 -0.01292,0 z m -1.058333,2.116666 A 0.52916663,0.52916663 0 0 0 18.520833,63.235416 0.52916663,0.52916663 0 0 0 19.05,63.764583 0.52916663,0.52916663 0 0 0 19.579166,63.235416 0.52916663,0.52916663 0 0 0 19.05,62.706249 a 0.52916663,0.52916663 0 0 0 -0.01292,0 z m 2.116666,0 a 0.52916663,0.52916663 0 0 0 -0.516247,0.529167 0.52916663,0.52916663 0 0 0 0.529166,0.529167 0.52916663,0.52916663 0 0 0 0.529167,-0.529167 0.52916663,0.52916663 0 0 0 -0.529167,-0.529167 0.52916663,0.52916663 0 0 0 -0.01292,0 z" />
    </mask>
    <mask
       maskUnits="userSpaceOnUse"
       id="mask-powermask-path-effect1389">
      <path
         id="path1387"
         style="font-variation-settings:normal;opacity:1;vector-effect:none;fill:#000000;fill-opacity:0.992157;stroke:none;stroke-width:0.264583;stroke-linecap:butt;stroke-linejoin:miter;stroke-miterlimit:4;stroke-dasharray:none;stroke-dashoffset:0;stroke-opacity:1;stop-color:#000000;stop-opacity:1"
         transform="matrix(3.7795275,0,0,3.7795275,-6.9999997,-6.9999997)"
         d="m 4.2207031,24.023437 c -0.1753477,0 -0.3947923,0.03618 -0.6035156,0.166016 -0.2087233,0.129841 -0.3925439,0.377906 -0.4238281,0.703125 a 0.28666925,0.28666925 0 0 0 0.2460937,0.310547 l 0.3691407,0.05078 A 0.28666925,0.28666925 0 0 0 4.125,25.033203 c -0.1437029,0.106531 -0.2727825,0.217419 -0.3457031,0.369141 -0.080497,0.167484 -0.092876,0.34636 -0.083984,0.537109 a 0.28666925,0.28666925 0 0 0 0.2871094,0.273438 h 0.3535156 a 0.28666925,0.28666925 0 0 0 0.2851562,-0.267579 c 0.010216,-0.146016 0.029974,-0.167735 0.027344,-0.164062 -0.00263,0.0037 0.029361,-0.01743 0.1171875,-0.09766 -0.025712,0.02349 -0.00947,0.008 0.00391,-0.002 0.01338,-0.0099 0.033862,-0.02316 0.056641,-0.04102 0.045556,-0.03572 0.1034486,-0.08545 0.1640625,-0.148438 0.1212278,-0.125967 0.2675781,-0.317186 0.2675781,-0.583984 0,-0.262483 -0.1335657,-0.499873 -0.3261719,-0.652344 -0.1926061,-0.15247 -0.441767,-0.232421 -0.7109375,-0.232422 z m 0.015625,0.873047 c 0.023977,0 0.024427,0.0042 0.037109,0.0078 -0.028312,0.02874 -0.070644,0.05991 -0.1132813,0.08984 -0.00937,0.0066 -0.012316,0.01679 -0.021484,0.02344 0.024909,-0.102384 0.043275,-0.121094 0.097656,-0.121094 z" />
    </mask>
    <linearGradient
       id="Blue"
       gradientTransform="matrix(0.26458333,0,0,0.26458333,81.44286,103.48169)">
      <stop
         style="stop-color:#55c3ff;stop-opacity:1;"
         offset="0"
         id="stop2484" />
    </linearGradient>
    <linearGradient
       id="Main-3"
       osb:paint="solid">
      <stop
         style="stop-color:#4d4d4d;stop-opacity:1;"
         offset="0"
         id="stop2082-8" />
    </linearGradient>
    <linearGradient
       id="Orange"
       osb:paint="solid">
      <stop
         style="stop-color:#fdb433;stop-opacity:1;"
         offset="0"
         id="stop2584" />
    </linearGradient>
    <mask
       maskUnits="userSpaceOnUse"
       id="mask-powermask-path-effect1105">
      <path
         id="path1103"
         style="opacity:1;fill:#000000;stroke:none;stroke-width:0.264583px;stroke-linecap:butt;stroke-linejoin:miter;stroke-opacity:1"
         d="m 14.816406,23.548828 c -0.462586,0 -0.865246,0.128541 -1.142578,0.351563 -0.277331,0.223021 -0.443359,0.532159 -0.443359,0.970703 0,0.440241 0.223134,1.15023 0.460937,1.386718 0.173632,0.171974 0.240157,0.394661 0.28125,0.615235 0.02425,0.130152 0.02273,0.252283 0.0293,0.378906 h 1.34375 v -0.263672 a 0.26560995,0.26560995 0 0 1 0.265625,-0.265625 c 0.189524,0 0.294319,-0.02466 0.367188,-0.09961 0.07287,-0.07495 0.160156,-0.262719 0.160156,-0.69336 a 0.26560995,0.26560995 0 0 1 0.265625,-0.265625 h 0.263672 v -0.154296 l -0.451172,-0.451172 a 0.26560995,0.26560995 0 0 1 -0.07813,-0.1875 c 0,-0.500141 -0.215724,-0.80568 -0.496094,-1.017578 -0.280369,-0.211899 -0.642497,-0.304688 -0.826172,-0.304688 z" />
    </mask>
    <linearGradient
       id="Blue-2"
       gradientTransform="matrix(0.26458333,0,0,0.26458333,-13.80713,103.48169)"
       osb:paint="solid">
      <stop
         style="stop-color:#55c3ff;stop-opacity:1;"
         offset="0"
         id="stop2484-2" />
    </linearGradient>
    <linearGradient
       id="Red-1"
       osb:paint="solid">
      <stop
         style="stop-color:#ff664d;stop-opacity:1;"
         offset="0"
         id="stop2533-6" />
    </linearGradient>
  </defs>
  <g
     id="scene-view-terrain"
     style="display:inline"
     transform="matrix(3.7795276,0,0,3.7795276,-120.99999,-420.99999)">
    <rect
       style="display:inline;fill:none;stroke:#eff0f1;stroke-width:0;paint-order:stroke fill markers;stop-color:#000000"
       id="use1375"
       width="12.7"
       height="12.7"
       x="32.01458"
       y="111.38958"
       ry="0" />
    <g
       id="use1365"
       style="display:inline;fill:#c0bfbc;fill-opacity:1;stroke-width:0.264583;stroke-miterlimit:4;stroke-dasharray:none"
       transform="translate(47.624995)">
      <path
         id="path1"
         style="font-variation-settings:normal;opacity:1;vector-effect:none;fill:#cc9465;fill-opacity:1;stroke:#303030;stroke-width:0.264583;stroke-linecap:round;stroke-linejoin:round;stroke-miterlimit:4;stroke-dasharray:none;stroke-dashoffset:0;stroke-opacity:1;stop-color:#000000;stop-opacity:1"
         d="m -14.552077,117.87186 -2.8e-5,0.79371 1.058334,0.52917 1.058329,0.52917 1.05834,0.52916 1.058334,0.52917 1.0583296,0.52916 1.0583333,-0.52916 1.05834,-0.52917 1.05833,-0.52916 1.0583433,-0.52917 1.05833,-0.52917 1.9e-5,-0.79371 m -5.2916966,-2.64586 -1.0583296,0.52917 -1.058334,0.52917 -1.05834,0.52916 -1.058329,0.52917 -1.058334,0.52916 1.058334,0.52917 1.058329,0.52917 1.05834,0.52916 1.058334,0.52917 1.0583296,0.52916 1.0583333,-0.52916 1.05834,-0.52917 1.05833,-0.52916 1.0583433,-0.52917 1.05833,-0.52917 -1.05833,-0.52916 -1.0583433,-0.52917 -1.05833,-0.52916 -1.05834,-0.52917 z" />
      <path
         id="path2"
         style="font-variation-settings:normal;opacity:1;vector-effect:none;fill:none;fill-opacity:1;stroke:#303030;stroke-width:0.264583;stroke-linecap:round;stroke-linejoin:round;stroke-miterlimit:4;stroke-dasharray:none;stroke-dashoffset:0;stroke-opacity:1;stop-color:#000000;stop-opacity:1"
         d="m -8.2021061,115.7552 -5.2916659,2.64583 2.8e-5,0.79378 m 6.3499779,-2.91044 -5.2916769,2.64583 3.2e-5,0.79377 m 6.3499749,-2.91044 -5.2916669,2.64583 2.5e-5,0.79378 m 6.3499852,-2.91044 -5.2916762,2.64583 2.5e-5,0.79378 m -3.175028,-3.43961 5.2916659,2.64583 2.9e-5,0.79378 m -4.2333659,-3.96878 5.2916769,2.64583 2.2e-5,0.79378 m -4.2333589,-3.96877 5.2916669,2.64583 2.6e-5,0.79377 m -4.2333589,-3.96877 5.2916762,2.64583 1.6e-5,0.79378 m -4.2333336,1.32291 v 0.79375" />
    </g>
  </g>
</svg>
