<?xml version="1.0" encoding="UTF-8" standalone="no"?>
<svg
   version="1.0"
   width="48pt"
   height="48pt"
   viewBox="0 0 48 48"
   preserveAspectRatio="xMidYMid"
   id="svg2"
   xmlns:xlink="http://www.w3.org/1999/xlink"
   xmlns="http://www.w3.org/2000/svg"
   xmlns:svg="http://www.w3.org/2000/svg"
   xmlns:osb="http://www.openswatchbook.org/uri/2009/osb">
  <defs
     id="defs2">
    <linearGradient
       id="Main"
       gradientTransform="translate(666.74992)">
      <stop
         style="stop-color:#4d4d4d;stop-opacity:1;"
         offset="0"
         id="stop2082" />
    </linearGradient>
    <linearGradient
       id="Red">
      <stop
         style="stop-color:#ff664d;stop-opacity:1;"
         offset="0"
         id="stop2533" />
    </linearGradient>
    <mask
       maskUnits="userSpaceOnUse"
       id="mask-powermask-path-effect3119">
      <path
         id="path3117"
         style="opacity:1;fill:#4d4d4d;stroke:none;stroke-width:0.264583px;stroke-linecap:butt;stroke-linejoin:miter;stroke-opacity:1"
         d="m 10.250537,66.995394 -0.0047,0.0047 c -0.02767,-0.0066 -0.211799,-0.04039 -0.4563028,0.204116 C 9.6572915,67.468749 9.6572915,67.468749 9.5249999,67.49562 9.3927082,67.468749 9.3927082,67.468749 9.2604165,67.204166 9.061979,67.005731 8.8982935,66.990872 8.8289184,66.99591 c -0.023124,0.0016 -0.035657,0.0057 -0.035657,0.0057 0,0 -0.062009,0.20257 0.2025716,0.467154 0.2645833,0.132291 0.2645841,0.132291 0.291455,0.264583 -0.026871,0.132292 -0.026872,0.132292 -0.291455,0.264583 -0.2445017,0.244505 -0.2107512,0.428639 -0.2041218,0.456304 l -0.00465,0.0047 c 0,0 0.00465,2.65e-4 0.00517,5.29e-4 1.736e-4,5.3e-4 0.00103,0.0057 0.00103,0.0057 l 0.00465,-0.0047 c 0.027721,0.0066 0.2118445,0.04033 0.4563028,-0.204123 0.1322919,-0.264584 0.1322919,-0.264584 0.2645833,-0.291455 0.1322919,0.02687 0.1322917,0.02687 0.2645833,0.291455 0.1984378,0.198435 0.3621234,0.213294 0.4314984,0.208256 0.02312,-0.0016 0.03566,-0.0057 0.03566,-0.0057 0,0 0.06201,-0.20257 -0.202572,-0.467156 -0.2645836,-0.132289 -0.2645839,-0.132291 -0.291455,-0.264583 0.026871,-0.132279 0.026873,-0.132292 0.291455,-0.264583 0.244502,-0.244505 0.210752,-0.428639 0.204122,-0.456304 l 0.0047,-0.0047 c 0,0 -0.0046,-7.94e-4 -0.0052,-0.0011 -1.47e-4,-5.29e-4 -10e-4,-0.0052 -10e-4,-0.0052 z" />
    </mask>
    <linearGradient
       id="Main-6">
      <stop
         style="stop-color:#4d4d4d;stop-opacity:1;"
         offset="0"
         id="stop2082-3" />
    </linearGradient>
    <linearGradient
       id="Green"
       gradientTransform="matrix(3.4306404e-4,0,0,3.4306404e-4,164.9237,0)">
      <stop
         style="stop-color:#66ff7a;stop-opacity:1;"
         offset="0"
         id="stop2506" />
    </linearGradient>
    <mask
       maskUnits="userSpaceOnUse"
       id="mask-powermask-path-effect1741">
      <path
         id="path1739"
         style="font-variation-settings:normal;opacity:1;vector-effect:none;fill:#4d4d4d;fill-opacity:0.992157;stroke:none;stroke-width:0.264583;stroke-linecap:butt;stroke-linejoin:miter;stroke-miterlimit:4;stroke-dasharray:none;stroke-dashoffset:0;stroke-opacity:1;marker:none;paint-order:fill markers stroke;stop-color:#4d4d4d;stop-opacity:1"
         d="m 20.095414,60.589583 a 0.52916663,0.52916663 0 0 0 -0.516248,0.529166 0.52916663,0.52916663 0 0 0 0.529167,0.529167 0.52916663,0.52916663 0 0 0 0.529167,-0.529167 0.52916663,0.52916663 0 0 0 -0.529167,-0.529166 0.52916663,0.52916663 0 0 0 -0.01292,0 z m -1.058333,2.116666 A 0.52916663,0.52916663 0 0 0 18.520833,63.235416 0.52916663,0.52916663 0 0 0 19.05,63.764583 0.52916663,0.52916663 0 0 0 19.579166,63.235416 0.52916663,0.52916663 0 0 0 19.05,62.706249 a 0.52916663,0.52916663 0 0 0 -0.01292,0 z m 2.116666,0 a 0.52916663,0.52916663 0 0 0 -0.516247,0.529167 0.52916663,0.52916663 0 0 0 0.529166,0.529167 0.52916663,0.52916663 0 0 0 0.529167,-0.529167 0.52916663,0.52916663 0 0 0 -0.529167,-0.529167 0.52916663,0.52916663 0 0 0 -0.01292,0 z" />
    </mask>
    <mask
       maskUnits="userSpaceOnUse"
       id="mask-powermask-path-effect1389">
      <path
         id="path1387"
         style="font-variation-settings:normal;opacity:1;vector-effect:none;fill:#4d4d4d;fill-opacity:0.992157;stroke:none;stroke-width:0.264583;stroke-linecap:butt;stroke-linejoin:miter;stroke-miterlimit:4;stroke-dasharray:none;stroke-dashoffset:0;stroke-opacity:1;stop-color:#4d4d4d;stop-opacity:1"
         transform="matrix(3.7795275,0,0,3.7795275,-6.9999997,-6.9999997)"
         d="m 4.2207031,24.023437 c -0.1753477,0 -0.3947923,0.03618 -0.6035156,0.166016 -0.2087233,0.129841 -0.3925439,0.377906 -0.4238281,0.703125 a 0.28666925,0.28666925 0 0 0 0.2460937,0.310547 l 0.3691407,0.05078 A 0.28666925,0.28666925 0 0 0 4.125,25.033203 c -0.1437029,0.106531 -0.2727825,0.217419 -0.3457031,0.369141 -0.080497,0.167484 -0.092876,0.34636 -0.083984,0.537109 a 0.28666925,0.28666925 0 0 0 0.2871094,0.273438 h 0.3535156 a 0.28666925,0.28666925 0 0 0 0.2851562,-0.267579 c 0.010216,-0.146016 0.029974,-0.167735 0.027344,-0.164062 -0.00263,0.0037 0.029361,-0.01743 0.1171875,-0.09766 -0.025712,0.02349 -0.00947,0.008 0.00391,-0.002 0.01338,-0.0099 0.033862,-0.02316 0.056641,-0.04102 0.045556,-0.03572 0.1034486,-0.08545 0.1640625,-0.148438 0.1212278,-0.125967 0.2675781,-0.317186 0.2675781,-0.583984 0,-0.262483 -0.1335657,-0.499873 -0.3261719,-0.652344 -0.1926061,-0.15247 -0.441767,-0.232421 -0.7109375,-0.232422 z m 0.015625,0.873047 c 0.023977,0 0.024427,0.0042 0.037109,0.0078 -0.028312,0.02874 -0.070644,0.05991 -0.1132813,0.08984 -0.00937,0.0066 -0.012316,0.01679 -0.021484,0.02344 0.024909,-0.102384 0.043275,-0.121094 0.097656,-0.121094 z" />
    </mask>
    <linearGradient
       id="Blue"
       gradientTransform="matrix(0.26458333,0,0,0.26458333,-13.80713,103.48169)">
      <stop
         style="stop-color:#55c3ff;stop-opacity:1;"
         offset="0"
         id="stop2484" />
    </linearGradient>
    <linearGradient
       id="Main-3"
       osb:paint="solid">
      <stop
         style="stop-color:#4d4d4d;stop-opacity:1;"
         offset="0"
         id="stop2082-8" />
    </linearGradient>
    <linearGradient
       id="Orange"
       osb:paint="solid">
      <stop
         style="stop-color:#fdb433;stop-opacity:1;"
         offset="0"
         id="stop2584" />
    </linearGradient>
    <mask
       maskUnits="userSpaceOnUse"
       id="mask-powermask-path-effect1105">
      <path
         id="path1103"
         style="opacity:1;fill:#4d4d4d;stroke:none;stroke-width:0.264583px;stroke-linecap:butt;stroke-linejoin:miter;stroke-opacity:1"
         d="m 14.816406,23.548828 c -0.462586,0 -0.865246,0.128541 -1.142578,0.351563 -0.277331,0.223021 -0.443359,0.532159 -0.443359,0.970703 0,0.440241 0.223134,1.15023 0.460937,1.386718 0.173632,0.171974 0.240157,0.394661 0.28125,0.615235 0.02425,0.130152 0.02273,0.252283 0.0293,0.378906 h 1.34375 v -0.263672 a 0.26560995,0.26560995 0 0 1 0.265625,-0.265625 c 0.189524,0 0.294319,-0.02466 0.367188,-0.09961 0.07287,-0.07495 0.160156,-0.262719 0.160156,-0.69336 a 0.26560995,0.26560995 0 0 1 0.265625,-0.265625 h 0.263672 v -0.154296 l -0.451172,-0.451172 a 0.26560995,0.26560995 0 0 1 -0.07813,-0.1875 c 0,-0.500141 -0.215724,-0.80568 -0.496094,-1.017578 -0.280369,-0.211899 -0.642497,-0.304688 -0.826172,-0.304688 z" />
    </mask>
    <linearGradient
       id="Blue-2"
       gradientTransform="matrix(0.26458333,0,0,0.26458333,-13.80713,103.48169)"
       osb:paint="solid">
      <stop
         style="stop-color:#55c3ff;stop-opacity:1;"
         offset="0"
         id="stop2484-2" />
    </linearGradient>
    <linearGradient
       id="Red-1"
       osb:paint="solid">
      <stop
         style="stop-color:#ff664d;stop-opacity:1;"
         offset="0"
         id="stop2533-6" />
    </linearGradient>
    <linearGradient
       xlink:href="#Blue"
       id="linearGradient1"
       gradientUnits="userSpaceOnUse"
       gradientTransform="translate(31.2208,-0.26458333)"
       x1="7.4083338"
       y1="-3.7041662"
       x2="11.641667"
       y2="-3.7041662" />
    <linearGradient
       xlink:href="#Blue"
       id="linearGradient1-2"
       gradientUnits="userSpaceOnUse"
       gradientTransform="translate(31.220771,-0.26459622)"
       x1="7.4083338"
       y1="-3.7041662"
       x2="11.641667"
       y2="-3.7041662" />
    <linearGradient
       id="Main-2"
       gradientTransform="translate(888.99988)"
       xlink:href="#linearGradient2">
      <stop
         style="stop-color:#4d4d4d;stop-opacity:1;"
         offset="0"
         id="stop2082-88" />
    </linearGradient>
    <linearGradient
       id="linearGradient2"
       gradientTransform="translate(888.99988)">
      <stop
         style="stop-color:#304d4d;stop-opacity:1;"
         offset="0"
         id="stop1" />
    </linearGradient>
    <linearGradient
       xlink:href="#Main-2"
       id="linearGradient5"
       gradientTransform="matrix(1.4005478,0,0,0.71400603,-15.874992,-1.2924314e-5)"
       x1="114.21744"
       y1="118.06098"
       x2="121.92512"
       y2="118.06098"
       gradientUnits="userSpaceOnUse" />
    <linearGradient
       xlink:href="#Main-2"
       id="linearGradient6"
       gradientTransform="matrix(1.3972769,0,0,0.71567751,-15.874992,-1.2924314e-5)"
       x1="115.24224"
       y1="118.52464"
       x2="121.45313"
       y2="118.52464"
       gradientUnits="userSpaceOnUse" />
  </defs>
  <g
     id="scene-exterior-status-6"
     style="display:inline"
     transform="matrix(3.7795274,0,0,3.7795279,-540.99966,-300.99998)">
    <rect
       style="opacity:0;fill:#c01c28;stroke:none;stroke-width:0.264583;stroke-linejoin:round;stroke-miterlimit:4;stroke-dasharray:none;paint-order:stroke fill markers;stop-color:#4d4d4d"
       id="frame2688"
       width="12.699989"
       height="12.699999"
       x="143.13951"
       y="79.639572" />
    <rect
       style="font-variation-settings:normal;display:inline;opacity:0.25;vector-effect:none;fill:#5e5c64;fill-opacity:1;stroke:none;stroke-width:0.264583px;stroke-linecap:butt;stroke-linejoin:miter;stroke-miterlimit:4;stroke-dasharray:none;stroke-dashoffset:0;stroke-opacity:1;paint-order:fill markers stroke;stop-color:#4d4d4d"
       id="use2262"
       width="4.7625012"
       height="2.6458344"
       x="147.10831"
       y="80.433334" />
    <path
       id="use2264"
       style="color:#4d4d4d;font-style:normal;font-variant:normal;font-weight:normal;font-stretch:normal;font-size:medium;line-height:normal;font-family:sans-serif;font-variant-ligatures:normal;font-variant-position:normal;font-variant-caps:normal;font-variant-numeric:normal;font-variant-alternates:normal;font-variant-east-asian:normal;font-feature-settings:normal;font-variation-settings:normal;text-indent:0;text-align:start;text-decoration:none;text-decoration-line:none;text-decoration-style:solid;text-decoration-color:#4d4d4d;letter-spacing:normal;word-spacing:normal;text-transform:none;writing-mode:lr-tb;direction:ltr;text-orientation:mixed;dominant-baseline:auto;baseline-shift:baseline;text-anchor:start;white-space:normal;shape-padding:0;shape-margin:0;inline-size:0;clip-rule:nonzero;display:inline;overflow:visible;visibility:visible;opacity:0.25;isolation:auto;mix-blend-mode:normal;color-interpolation:sRGB;color-interpolation-filters:linearRGB;solid-color:#4d4d4d;solid-opacity:1;vector-effect:none;fill:#ffffff;fill-opacity:1;fill-rule:nonzero;stroke:none;stroke-width:0.264583px;stroke-linecap:butt;stroke-linejoin:miter;stroke-miterlimit:4;stroke-dasharray:none;stroke-dashoffset:0;stroke-opacity:1;color-rendering:auto;image-rendering:auto;shape-rendering:auto;text-rendering:auto;enable-background:accumulate;stop-color:#4d4d4d"
       d="m 149.8229,81.227082 0.46044,0.530717 v 0.527617 h 0.26458 v -0.527617 l 0.46044,-0.530717 h -0.33797 l -0.25476,0.318326 -0.25476,-0.318326 z m -1.85208,0 0.42426,0.529167 -0.42323,0.529167 h 0.33642 l 0.25528,-0.318326 0.25528,0.318326 h 0.33641 l -0.42323,-0.529167 0.42426,-0.529167 h -0.33796 l -0.25476,0.318326 -0.25477,-0.318326 z" />
    <path
       id="use2077"
       style="font-variation-settings:normal;display:inline;vector-effect:none;fill:url(#linearGradient1-2);fill-opacity:1;stroke:none;stroke-width:0.529167;stroke-linecap:butt;stroke-linejoin:miter;stroke-miterlimit:4;stroke-dasharray:none;stroke-dashoffset:0;stroke-opacity:1;paint-order:fill markers stroke;stop-color:#4d4d4d"
       d="M 144.99154,84.402066 V 85.4604 l 2.11666,-1.058334 z m 6.87915,0 2.11667,1.058334 v -1.058334 z m -6.87915,4.233333 v 1.058333 h 2.11666 z m 8.99582,0 -2.11667,1.058333 h 2.11667 z" />
    <path
       style="font-variation-settings:normal;display:inline;vector-effect:none;fill:#f5f5f5;fill-opacity:1;stroke:url(#linearGradient5);stroke-width:0.211667;stroke-linecap:round;stroke-linejoin:round;stroke-miterlimit:4;stroke-dasharray:none;stroke-dashoffset:0;stroke-opacity:1;stop-color:#4d4d4d"
       d="m 149.48949,84.402069 -5.29167,2.645833 5.29167,2.645833 5.29166,-2.645833 z"
       id="use2197" />
    <path
       id="use2199"
       style="font-variation-settings:normal;display:inline;vector-effect:none;fill:none;fill-opacity:1;stroke:url(#linearGradient6);stroke-width:0.211667;stroke-linecap:round;stroke-linejoin:round;stroke-miterlimit:4;stroke-dasharray:none;stroke-dashoffset:0;stroke-opacity:1;stop-color:#4d4d4d"
       d="m 153.72282,86.518735 c -0.88194,0.440975 -1.76389,0.576439 -2.64583,1.01741 -0.88194,0.440972 -1.76388,1.187453 -2.64583,1.628423 m 4.23332,-3.174999 c -0.88194,0.440972 -1.76389,0.08819 -2.64582,0.529166 -0.88194,0.440972 -1.76389,1.675694 -2.64584,2.116666 m 4.23333,-3.175 c -0.88194,0.440975 -1.76388,0.0882 -2.64583,0.529169 -0.88194,0.440972 -1.76389,1.675694 -2.64584,2.116666 m -1.05833,-0.529168 c 0.88195,-0.440973 1.76389,-1.187453 2.64584,-1.628425 0.88194,-0.440972 1.76389,-0.576436 2.64582,-1.017407 m -2.11665,0 c 0.88195,0.44097 1.76389,0.576432 2.64583,1.017406 0.88194,0.440972 1.76389,1.187453 2.64583,1.628426 m -6.35,-2.116667 c 0.88196,0.440974 1.7639,0.08819 2.64584,0.529168 0.88193,0.440972 1.76388,1.675693 2.64582,2.116667 m -6.35,-2.116667 c 0.90872,0.454354 1.80931,0.110897 2.69389,0.553182 0.88457,0.442286 1.75312,1.670316 2.59778,2.09265 m -6.35,-2.116666 c 0.88195,0.440972 1.76389,0.576435 2.64584,1.017407 0.88194,0.440972 1.76389,1.187453 2.64582,1.628426" />
    <path
       id="use2662"
       style="color:#4d4d4d;font-style:normal;font-variant:normal;font-weight:normal;font-stretch:normal;font-size:medium;line-height:normal;font-family:sans-serif;font-variant-ligatures:normal;font-variant-position:normal;font-variant-caps:normal;font-variant-numeric:normal;font-variant-alternates:normal;font-variant-east-asian:normal;font-feature-settings:normal;font-variation-settings:normal;text-indent:0;text-align:start;text-decoration:none;text-decoration-line:none;text-decoration-style:solid;text-decoration-color:#4d4d4d;letter-spacing:normal;word-spacing:normal;text-transform:none;writing-mode:lr-tb;direction:ltr;text-orientation:mixed;dominant-baseline:auto;baseline-shift:baseline;text-anchor:start;white-space:normal;shape-padding:0;shape-margin:0;inline-size:0;clip-rule:nonzero;display:inline;overflow:visible;visibility:visible;isolation:auto;mix-blend-mode:normal;color-interpolation:sRGB;color-interpolation-filters:linearRGB;solid-color:#4d4d4d;solid-opacity:1;vector-effect:none;fill:url(#Green);fill-opacity:1;fill-rule:nonzero;stroke:none;stroke-width:0.264583;stroke-linecap:round;stroke-linejoin:round;stroke-miterlimit:4;stroke-dasharray:none;stroke-dashoffset:0;stroke-opacity:1;color-rendering:auto;image-rendering:auto;shape-rendering:auto;text-rendering:auto;enable-background:accumulate;stop-color:#4d4d4d"
       d="m 149.49006,83.740108 a 0.13230472,0.13230472 0 0 0 -0.0605,0.01394 l -6.29006,3.145551 v 0.296625 l 6.29006,3.145544 a 0.13230472,0.13230472 0 0 0 0.11937,0 l 6.29057,-3.146063 v -0.295587 l -6.29057,-3.146063 a 0.13230472,0.13230472 0 0 0 -0.0589,-0.01394 z m 0,0.28112 6.05493,3.027722 -6.05493,3.025137 -6.05441,-3.027206 z" />
  </g>
</svg>
